<?xml version="1.0" encoding="utf-8"?>
<!-- Generator: Adobe Illustrator 21.1.0, SVG Export Plug-In . SVG Version: 6.00 Build 0)  -->
<svg version="1.1" id="Layer_1" xmlns="http://www.w3.org/2000/svg" xmlns:xlink="http://www.w3.org/1999/xlink" x="0px" y="0px"
	 viewBox="0 0 1013 1308.9" style="enable-background:new 0 0 1013 1308.9;" xml:space="preserve">
<style type="text/css">
	.st0{fill:#FFF200;}
</style>
<path class="st0" d="M418.2,1113.3c-1.2-4.5-5.8-6.8-15-11.5c-1.7-0.9-3.6-1.9-5.7-2.9c-9.5-5-23.5-9.6-31.6-12.1
	c-1.5-0.5-3.2-3.8-0.1-4.2c14-2.1,16.4-8.9,18.7-15.5c0.3-0.9,0.6-1.8,1-2.7c3.8-9.6,2.1-17,1.5-19.4c-0.1-0.2-0.1-0.5-0.2-0.7
	c-0.6-2.2-0.7-3.1,0.3-4c2.6-2.2,1.3-8.3-1.6-20.6c-0.6-2.5-1.2-5.2-1.8-7.7c-2.3-10.7-10.3-25.4-16.1-31.8c-0.2-0.3-0.3-0.7-0.1-1
	c1.4-2.8,3.8-8.4,4.2-14.6c0.5-7.6-2-13.8-7.4-18.4c-13.5-11.5-36.6-6.3-47.9,0.7l-0.9,0.6l0,1.1c-0.1,6.9,2.5,8.1,6.7,9.1
	c0.9,0.2,1.9,0.5,3,0.9c1.9,0.7,2.4,2,2.5,3c0.1,1.6-0.8,3.4-2.2,4.2l-0.5,0.3c-3.9,2.2-7.6,4.3-7.3,9.8c0.1,1.5,0.1,2.9,0.1,4.4
	c0,0.2-0.1,0.4-0.2,0.5c-0.1,0.1-0.3,0.2-0.5,0.1c-11.3-1.9-25.8-4-30.2-2.7c-3.6,1-6.7,0.5-9.9,0c-1.4-0.2-2.8-0.4-4.2-0.5
	c-1.6-0.1-2.6-0.8-3.7-1.6c-1.7-1.2-3.9-2.7-7.6-1.5c-0.7,0.2-1.3,0.4-1.9,0.6c-3.3,1-5.8,1.8-8,5.9c0,0.1-0.1,0.1-0.1,0.1
	c0,0-0.1,0-0.2,0l-2.4-1.3c-0.7-0.4-1-1.3-0.6-2c1.6-2.9,1.8-5.1-2-7.5c-1.2-0.8-2.7-0.9-4.1-0.3c-3.7,1.6-6.7,7.7-7.3,10.7
	c-0.8,3.9,3,5.6,5.1,6.4c0.2,0.1,0.5,0.2,0.8,0.4c0.5,0.2,0.8,0.7,0.8,1.3c-0.4,2.8-4.2,6.1-14,8.1c-4.9,1-10.1,3.7-15.4,8
	c-5.1,3.4-8,1.7-13.2-1.4c-1.3-0.8-2.6-1.5-4.1-2.3c-8.7-4.5-16.2-6.5-30.4-4c-11.1,1.9-13.3,3.3-13.8,5.4c-0.5,2.1,1.4,3.5,2.5,4.3
	c3.4,2.5,30.2,11,38.5,10.5c1.2-0.1,2.7,0.1,3,1.1c0.6,1.7-1.1,5.7-5.1,8.5l-21.5,14.9c-0.7-0.7-1.5-1.3-2.4-2l0.5-0.6
	c0.5-0.6,0.7-1.4,0.5-2.2c-0.1-0.8-0.6-1.5-1.3-2c-0.3-0.2-5.3-3.3-5.3-3.3c-0.7-0.4-1.6-0.5-2.4-0.3c-0.8,0.2-1.4,0.7-1.7,1.4
	l-0.4,0.7c-0.9-0.4-1.9-0.8-2.8-1.2l0.3-0.7c0.3-0.7,0.2-1.5-0.1-2.3c-0.4-0.7-1-1.3-1.8-1.6c-0.3-0.1-0.6-0.2-1-0.3
	c-0.7-0.2-1.3-0.4-2-0.6l-3.1-0.7c-0.8-0.2-1.7,0-2.4,0.4c-0.7,0.4-1.1,1.1-1.2,1.9l-0.1,0.8c-1-0.1-2.1-0.3-3.1-0.3l0-0.8
	c0-0.8-0.2-1.5-0.8-2.1c-0.6-0.6-1.4-0.9-2.2-1l-3.2,0l-3.2,0.3c-0.8,0.1-1.6,0.5-2.1,1.1c-0.5,0.6-0.7,1.4-0.6,2.2l0.1,0.8
	c-1,0.2-2,0.4-3,0.6l-0.2-0.8c-0.2-0.8-0.7-1.4-1.4-1.8c-0.7-0.4-1.6-0.5-2.4-0.3c-0.3,0.1-0.6,0.2-1,0.3c-0.7,0.2-1.4,0.4-2.1,0.7
	l-2.9,1.1c-0.8,0.3-1.4,0.9-1.7,1.7c-0.3,0.7-0.3,1.5,0,2.3l0.4,0.8c-0.9,0.5-1.8,0.9-2.7,1.4l-0.4-0.7c-0.4-0.7-1.1-1.1-1.8-1.3
	c-0.8-0.2-1.6,0-2.3,0.4c-1.5,0.9-2.8,1.9-4,2.9c-0.4,0.3-0.8,0.6-1.1,0.9c-0.7,0.5-1.1,1.3-1.2,2.1c-0.1,0.8,0.2,1.6,0.7,2.2
	l0.6,0.7c-0.7,0.7-1.5,1.4-2.2,2.2l-0.6-0.5c-0.6-0.5-1.3-0.8-2.1-0.7c-0.8,0.1-1.6,0.4-2.1,1.1l-1,1.2l-2.7,3.9
	c-0.5,0.7-0.7,1.5-0.5,2.3c0.2,0.8,0.6,1.5,1.3,2l0.7,0.4c-0.5,0.9-1,1.8-1.4,2.7l-0.7-0.3c-0.7-0.3-1.5-0.3-2.2,0
	c-0.8,0.3-1.4,0.9-1.7,1.7l-0.2,0.5c-0.1,0.3-0.3,0.7-0.4,1l-1.4,4.4c-0.3,0.8-0.2,1.7,0.2,2.4c0.4,0.7,1.1,1.3,1.9,1.5l0.8,0.2
	c-0.2,1-0.4,2-0.6,3l-0.8-0.1c-0.8-0.1-1.5,0.1-2.2,0.6c-0.6,0.5-1.1,1.3-1.1,2.1l-0.2,1.6c0,0.4,0,0.8,0,1.2c0,0.2,0,0.3,0,0.5l0,3
	c0,0.8,0.3,1.7,0.9,2.2c0.6,0.6,1.4,0.9,2.2,0.8l0.8,0c0.1,1,0.2,2.1,0.3,3.1l-0.8,0.1c-0.8,0.1-1.4,0.6-1.9,1.2
	c-0.5,0.7-0.6,1.5-0.5,2.3l0.3,1.5l1.3,4.6c0.2,0.8,0.8,1.5,1.5,1.9c0.7,0.4,1.6,0.4,2.4,0.2l0.8-0.3c0.4,1,0.8,1.9,1.2,2.8
	l-0.7,0.4c-1.4,0.8-2,2.6-1.3,4c0.5,1.1,2.9,4.7,3.4,5.5l0.1,0.1c1,1.3,2.9,1.6,4.2,0.6l0.6-0.5c0.7,0.8,1.3,1.6,2,2.3l-0.6,0.6
	c-1.2,1.1-1.2,3,0,4.3c0.7,0.7,4.3,3.8,4.9,4.2c1.4,1,3.3,0.7,4.2-0.6l0.5-0.6c0.9,0.6,1.7,1.1,2.6,1.6l-0.4,0.7
	c-0.8,1.4-0.2,3.2,1.2,4.1l5.8,2.5l0.2,0.1c1.6,0.5,3.3-0.3,3.8-1.8l0.3-0.8c1,0.3,2.1,0.6,3,0.8l-0.2,0.8c-0.3,1.6,0.8,3.2,2.4,3.5
	c1.1,0.2,5.3,0.7,6.4,0.7c1.7,0,3.1-1.3,3.1-2.9l0-0.8c1,0,2.1-0.1,3.1-0.1l0.1,0.8c0.2,1.6,1.7,2.8,3.4,2.6
	c1.1-0.1,5.6-1.1,6.2-1.2l0.1,0c1.6-0.5,2.6-2.1,2.1-3.7l-0.2-0.8c1-0.3,2-0.7,2.9-1l0.3,0.8c0.3,0.7,0.9,1.3,1.7,1.6
	c0.8,0.3,1.6,0.3,2.5-0.1c1.2-0.6,5-2.7,5.5-3c0.7-0.4,1.2-1.1,1.4-1.9c0.2-0.8,0-1.6-0.4-2.2l-0.4-0.7c0.8-0.6,1.7-1.2,2.5-1.8
	l0.6,0.7c0.5,0.6,1.3,1,2.1,1c0.8,0,1.6-0.3,2.2-0.9c0.4-0.4,0.8-0.8,1.2-1.1c1.1-1,2.3-2.1,3.2-3.3c0.5-0.6,0.8-1.4,0.8-2.3
	c-0.1-0.8-0.4-1.5-1-2l-0.6-0.5c0.6-0.8,1.3-1.6,1.8-2.5l0.7,0.5c0.7,0.4,1.5,0.6,2.2,0.4c0.8-0.2,1.5-0.7,1.9-1.5l0.6-1
	c0.8-1.5,1.7-3,2.3-4.6c0.3-0.8,0.4-1.6,0.1-2.4c-0.3-0.7-0.8-1.3-1.6-1.6l-0.7-0.3c0.4-1,0.7-2.1,1-2.9l0.9,0.2
	c0.8,0.2,1.6,0.1,2.3-0.3c0.7-0.4,1.2-1.1,1.4-2l1.1-6l0-0.1c0.1-0.8-0.1-1.7-0.7-2.3c-0.5-0.6-1.2-1-2-1.1l-0.8-0.1
	c0.1-1,0.1-2.1,0.1-3.1l0.8,0c0.8,0,1.5-0.4,2.1-1c0.5-0.6,0.8-1.4,0.7-2.3c-0.1-0.5-0.1-1.1-0.1-1.6c-0.1-1.5-0.3-3.1-0.6-4.7
	c-0.2-0.8-0.7-3.3-0.1-3.8c8-5.5,16.6-11.5,23.3-16.1c0.3-0.2,0.5-0.1,0.6,0c0.1,0.1,0.3,0.3,0.3,0.6c-0.6,6.7-1.3,15.5-1.3,19.3
	c0,3.8,2,6.1,3.8,8c2.5,2.8,4.9,5.5,3.7,13.3c-0.4,2.5-0.9,4.7-1.4,6.9c-2.2,10-3.8,17.3,10,27.4c8.2,6,19.6,8.6,27.9,10.5
	c3,0.7,6.7,1.5,9,2.4c1,0.4,1.7,1.7,1.6,2c-1.2,4.4,3.6,7.2,7.1,9.4c2.4,1.4,5.3,3.1,4.8,4.3c-1.3,3.3-1.3,5.7,0.1,8l-0.6,2
	c-0.3,0.8-0.2,1.7,0.2,2.4c0.4,0.7,1.1,1.3,1.9,1.5l0.8,0.2c-0.2,1-0.4,2-0.6,3l-0.8-0.1c-0.8-0.1-1.5,0.1-2.2,0.6
	c-0.6,0.5-1.1,1.3-1.1,2.1l-0.3,6.3c0,0.8,0.3,1.7,0.9,2.2c0.6,0.6,1.4,0.9,2.2,0.8l0.8,0c0.1,1,0.2,2.1,0.4,3.1l-0.8,0.1
	c-0.8,0.1-1.4,0.6-1.9,1.2c-0.5,0.7-0.6,1.5-0.5,2.3l1.6,6.1c0.2,0.8,0.8,1.5,1.5,1.9c0.7,0.4,1.6,0.4,2.4,0.2l0.8-0.3
	c0.4,1,0.8,1.9,1.2,2.8l-0.7,0.4c-1.4,0.8-2,2.6-1.3,4c0.5,1.1,2.9,4.7,3.5,5.6c1,1.3,2.9,1.6,4.2,0.6l0.6-0.5
	c0.7,0.8,1.3,1.6,2,2.3l-0.6,0.5c-1.2,1.1-1.2,3,0,4.3c0.7,0.7,4.3,3.8,4.9,4.2c1.4,1,3.3,0.7,4.2-0.6l0.5-0.6
	c0.9,0.6,1.7,1.1,2.6,1.6l-0.4,0.7c-0.8,1.4-0.2,3.2,1.3,4.1l5.8,2.5l0.2,0.1c1.6,0.5,3.3-0.3,3.8-1.8l0.2-0.7c1,0.3,2,0.6,3,0.8
	l-0.1,0.8c-0.3,1.6,0.8,3.2,2.4,3.5c1.1,0.2,5.3,0.7,6.4,0.7c0,0,0,0,0,0c1.6,0,3-1.3,3.1-2.9l0-0.8c1,0,2.1-0.1,3.1-0.1l0.1,0.8
	c0.2,1.6,1.7,2.8,3.4,2.6c1.1-0.1,5.6-1.1,6.2-1.2l0.1,0c1.6-0.5,2.6-2.1,2.1-3.7l-0.2-0.8c1-0.3,2-0.7,2.9-1l0.3,0.8
	c0.3,0.7,0.9,1.3,1.7,1.6c0.8,0.3,1.6,0.3,2.5-0.1c1.2-0.6,5-2.7,5.5-3c0.7-0.4,1.2-1.2,1.4-1.9c0.2-0.8,0-1.5-0.4-2.2l-0.4-0.7
	c0.8-0.6,1.7-1.2,2.5-1.8l0.6,0.7c0.5,0.6,1.3,1,2.1,1c0.8,0,1.6-0.3,2.2-0.9c0.4-0.4,0.8-0.8,1.2-1.1c1.1-1,2.3-2.1,3.2-3.3
	c0.5-0.6,0.8-1.4,0.8-2.3c-0.1-0.8-0.4-1.5-1-2l-0.6-0.5c0.6-0.8,1.3-1.6,1.8-2.5l0.7,0.5c0.7,0.4,1.5,0.6,2.2,0.4
	c0.8-0.2,1.5-0.7,1.9-1.5l0.6-1c0.8-1.5,1.7-3,2.3-4.6c0.3-0.8,0.4-1.6,0.1-2.4c-0.3-0.7-0.8-1.3-1.6-1.6l-0.7-0.3
	c0.4-1,0.7-2,1-2.9l0.8,0.2c0.8,0.2,1.6,0.1,2.2-0.3c0.7-0.4,1.2-1.1,1.4-2l1.1-6l0-0.1c0.1-0.8-0.1-1.7-0.7-2.3
	c-0.5-0.6-1.2-1-2-1.1l-0.8-0.1c0.1-1,0.1-2.1,0.1-3.1l0.8,0c0.8,0,1.5-0.4,2.1-1c0.5-0.6,0.8-1.4,0.7-2.3c-0.1-0.5-0.1-1-0.1-1.6
	c-0.1-1.5-0.3-3.1-0.6-4.7c-0.2-0.8-0.6-1.5-1.3-2c-0.7-0.4-1.4-0.6-2.2-0.5l-0.8,0.1c-0.2-1-0.5-2-0.8-3l0.8-0.3
	c0.7-0.3,1.3-0.8,1.7-1.5c0.3-0.7,0.4-1.6,0-2.5l-2.5-5.6l-0.1-0.1c-0.4-0.7-1-1.3-1.8-1.5c-0.8-0.2-1.6-0.2-2.2,0.2l-0.7,0.4
	c-0.5-0.9-1.1-1.8-1.7-2.6l0.6-0.5c0.6-0.5,1.1-1.2,1.2-1.9c0.1-0.8-0.1-1.7-0.7-2.4l-4-4.6l-0.1-0.1c-0.6-0.6-1.4-1-2.2-1
	c-0.8,0-1.5,0.3-2.1,0.9l-0.6,0.6c-0.8-0.7-1.5-1.4-2.4-2l0.5-0.6c0.5-0.6,0.7-1.4,0.5-2.2c-0.1-0.8-0.6-1.5-1.3-2
	c-0.3-0.2-0.6-0.4-0.8-0.6c-0.6-0.4-1.1-0.8-1.8-1.2l-2.7-1.5c-0.7-0.4-1.6-0.5-2.4-0.3c-0.8,0.2-1.4,0.7-1.7,1.4l-0.4,0.7
	c-0.9-0.4-1.9-0.8-2.8-1.2l0.3-0.7c0.3-0.7,0.2-1.5-0.1-2.3c-0.4-0.7-1-1.3-1.8-1.6c-0.3-0.1-0.6-0.2-0.9-0.3
	c-0.7-0.2-1.4-0.4-2-0.6l-3.1-0.7c-0.8-0.2-1.7,0-2.4,0.4c-0.7,0.4-1.1,1.1-1.2,1.9l-0.1,0.8c-1-0.1-2.1-0.3-3.1-0.3l0-0.8
	c0-0.8-0.2-1.5-0.8-2.1c-0.6-0.6-1.4-0.9-2.2-1l-3.2,0l-3.2,0.3c-0.8,0.1-1.6,0.5-2.1,1.1c-0.5,0.6-0.7,1.4-0.6,2.2l0.1,0.8
	c-1,0.2-2,0.4-3,0.6l-0.2-0.7c-0.2-0.8-0.7-1.4-1.4-1.8c-0.7-0.4-1.6-0.5-2.4-0.3c-0.3,0.1-0.6,0.2-1,0.3c-0.7,0.2-1.4,0.4-2.1,0.7
	l-2.9,1.1c-0.8,0.3-1.4,0.9-1.7,1.7c-0.3,0.7-3.1,1.7-3.4-0.8c-0.5-4.4,1.4-11.3,4.3-14.4c2.9-3.2,7.3-1.7,14.3,1.2
	c0.8,0.3,1.5,0.6,2.3,1c2.3,0.9,4.4,2,6.2,2.8c3.8,1.9,6.9,3.4,9.8,2.6c1.4-0.4,2.4-1,3.4-1.7c1.7-1.1,3.5-2.2,8-2.4
	c7.7-0.4,20.1,0,27.5,0.2c3.7,0.1,6.4-0.7,8-2.5c0.3-0.3,0.5-0.6,0.7-0.9c1.3-2.2,4.1-3,6.4-2c14.7,6.1,20.5,6.9,24.8,1.9l0.7-0.8
	L418.2,1113.3z M151.6,1104.4c-6.7,4.5-15.1,6.5-23.5,4.8c-9-1.8-16.7-7.5-21.2-15.5c-4.4-8-5.1-17.6-1.8-26.2
	c4.6-12.2,16.3-20,29-20c1.7,0,3.4,0.1,5.2,0.4c3.3,0.6,6.5,1.6,9.4,3.2c1.4,0.8,1.6,2.8,0.2,3.7l-5.9,4.1c-1,0.7-2.2,0.9-3.3,0.5
	c-0.1,0-0.2-0.1-0.3-0.1c-12.4-3.4-25.3,5.7-25.3,19.6c0,1.7,0.2,3.3,0.7,4.9c2,7.1,7.4,12.3,14.2,14.2c2.7,0.7,5.6,0.9,8.4,0.5
	c0.4-0.1,1.6,0.3,1.8,0.5c1,1.6,3.4,5.5,9.2,2.2c0.3-0.2,0.6-0.4,1-0.6C151.7,1099.2,154,1102.8,151.6,1104.4z M262.1,998.3
	l-0.6-0.1c-2-0.4-1.9-1.1-1.9-1.5l0,0c0.3-2.8,0.8-3.3,2.1-3.4c0.9-0.1,1.9-0.2,2.8-0.3c1.9-0.2,3.8-0.4,5.7-0.5c0,0,0,0,0,0
	c0.3,0,0.8,0.2,1.2,0.4c1,0.7,2.3,1.5,3.9,1.2c0.9-0.2,1.7-0.7,2.4-1.6c0.2-0.2,1-0.6,1.3-0.6c0.8,0.2,1.7,0.3,2.5,0.4
	c2.7,0.4,5,0.7,6.8,2.6c1.7,1.8,4.4,2.7,6.3,3.2c2.1,0.5,4.2,0.8,6.2,1.2c2.4,0.4,4.7,0.8,6.9,1.4c2.5,0.7,5,1.5,7.5,2.3
	c1.2,0.4,2.1,2.8,0.2,2.9c-3.8,0.2-7.8,0.2-11.6,0.3c-3.1,0-6.2,0-9.3,0.2c-1.2,0-2.2,0.6-3,1.1c-0.3,0.2-0.8,0.4-1,0.5
	c-2.1-0.5-4.2-0.8-6.3-1.1c-6.2-0.9-12.1-1.7-16.6-6.4C266.1,999,263.9,998.6,262.1,998.3z M315,1193.5c2.3,2,4.9,3.4,7.8,4.2
	c4.5,1.2,9.2,0.9,13.4-0.9c5.7-2.5,9.8-7.3,11.3-13.2c2-7.4-0.4-15.2-6-20.2l0,0l-15.9-13c-1.2-1-0.6-3,1-3.1
	c3.8-0.2,7.6,0.3,11.3,1.5c15,4.9,23.9,20.2,20.8,35.6c-1.7,8.6-6.8,15.8-14.2,20.4c-7.4,4.6-16.1,5.9-24.5,3.6
	c-12.2-3.3-21-13.5-22.7-25.7c-0.2-1.5,1.5-2.5,2.7-1.5L315,1193.5z M345.9,1041.4c-0.2,0.1-0.7,0.4-1.2,0l0,0
	c-0.3-0.3-0.6-0.7-0.9-1.2c-2.8-4.7-7.6-7.5-13.1-7.7c-5.8-0.2-11.3,2.5-14.7,7.3c-1.2,1.7-1.8,1.5-3.5,1.1c-0.6-0.1-1.2-0.3-2-0.3
	c-2.2-0.1-3.6,0.4-4.2,1.6c-0.6,1.3-1.4,1.3-3.8,1.4c-0.4,0-0.8,0-1.2,0.1c-0.7,0.1-1.4,0.1-2.1,0.2c-1.9,0.1-3.9,0.3-5.9,0.8
	c-1.1,0.3-2.2,0.7-3.6,1.3c-1.7,0.8-3.7,0.3-4.9-1l-0.1-0.2c-2.4-2.7-4.8-5.5-7.3-8.2c-2.3-2.5-4.5-5-6.8-7.5
	c-1.1-1.2-2.2-2.4-3.3-3.6c-0.3-0.3-0.6-0.6-0.9-0.9c-0.1-0.2-0.2-0.5-0.3-0.7c0,0,0,0,0,0c0-1.5,1.7-2.3,2.9-1.4
	c0.3,0.2,0.6,0.4,1,0.6c2.2,1.3,4.9,1.7,7.2,2c0.4,0.1,0.8,0.1,1.2,0.2c1.7,0.3,3.9-1.4,4.3-3c0.4-1.5,1-1.7,3.4-1.7
	c0.6,0,1.3,0,2-0.1c1.7-0.2,2.5,0.3,3.2,2c1.9,4.6,8.1,6.3,13.1,5.9c5.3-0.4,10.7-0.5,16-0.7c2.2,0,4.4-0.1,6.7-0.2
	c1.2,0,2.4-0.1,3.6-0.1c2,0,4-0.1,6-0.2c3.1-0.1,5.5,1.7,6.4,5.1c0.5,1.9,1.3,3.6,2.1,5.2c0.5,0.9,0.9,1.8,1.3,2.7l0,0.1
	C346.5,1040.8,346.1,1041.2,345.9,1041.4z"/>
</svg>
