<?xml version="1.0" encoding="utf-8"?>
<!-- Generator: Adobe Illustrator 19.1.0, SVG Export Plug-In . SVG Version: 6.00 Build 0)  -->
<svg version="1.1" id="Layer_2" xmlns="http://www.w3.org/2000/svg" xmlns:xlink="http://www.w3.org/1999/xlink" x="0px" y="0px"
	 viewBox="0 0 1080 1080" style="enable-background:new 0 0 1080 1080;" xml:space="preserve">
<style type="text/css">
	.st0{fill:#584130;}
</style>
<path class="st0" d="M858.3,605.2l-95.2-21.7c-6.2-1.4-7.6-9.7-2.1-13c1.1-0.7,2.3-1.4,3.4-2c6.9,3.9,14,6.1,19.8,7.2
	c15.5,15.6,37.3,19.7,53.4,0.2c0.5-0.6,0.2-1.5-0.5-1.7c-13.4-4.3-23.8-21-53.3-5.3c-2.9-0.7-6.2-1.6-9.5-3
	c-1.1-0.5-1.2-2.1-0.1-2.6c8.2-4,16.8-7.5,26-10.8c9.6,5.8,17.9,8,24,8.8c13.1,9.9,31.5,20.2,49.8-8.8c0.3-0.5,0.1-1.3-0.4-1.5
	c-14-6.2-32.6-10.3-51.1,3.5c-3-0.6-6.7-1.6-10.7-3.3c-1.2-0.5-1.1-2.2,0.1-2.7c4.5-1.5,9.2-3.1,14.1-4.7c6.8-2.2,13.8-4.6,21.3-7.2
	l0-0.1c12.7,4.7,34.8,10.5,52.5-21.9c0.3-0.6,0-1.4-0.6-1.6c-34.9-13.4-47.9,5.8-54.5,17.6c-7.3,2.5-14.2,4.8-20.8,7
	c-4.3,1.4-8.5,2.8-12.5,4.2c-1.2,0.4-2.3-0.9-1.7-2.1c1.5-2.5,2.9-4.9,4.6-7.1c23.1-1.4,34.7-16.5,41.3-30.3c0.3-0.6,0-1.4-0.7-1.6
	c-32.3-10.1-39.9,9.1-43.5,25c-3.7,4.3-6.4,9-9.3,14.1c-1.2,2.1-2.4,4.2-3.8,6.5c-9.3,3.3-17.9,6.8-26.2,10.8
	c-1.2,0.6-2.5-0.7-1.9-1.9c1.4-2.7,3.5-5.7,6.1-8.9c31.9-7.2,29.2-26.5,36.5-38.3c0.4-0.6,0-1.5-0.7-1.6
	c-25.2-4.5-39.3,13.2-40.7,35.6c-6.6,7.9-10,14.9-10.3,20.9c-7.5,4.3-14.7,9.2-22.1,15.2l-15.3-3.5c-3.2-0.7-3.7-5.1-0.7-6.5
	c11.7-5.6,23.2-14.6,32.9-28.7c3.9-5.7,7.3-10.9,10.3-15.4c15.1-22.9,21.4-32.4,42.1-37.1l50.1-11.4c19.9,16.8,61.9,43.1,87-25.4h0
	v0c-52.3-50.8-78.7-9-89.4,14.8l-50.1,11.4c-20.7,4.7-30.5-1.1-54-15.2c-4.7-2.8-10-6-16-9.4c-14.8-8.5-29.1-11.6-42.1-11.6
	c-3.3,0-4.7-4.1-2.2-6.2l12.3-9.8c9.2,2.2,17.9,3.5,26.5,4.1c2.8,5.2,8.9,10.1,18.3,14.4c11,19.6,31.3,29.4,52.1,14.4
	c0.6-0.4,0.6-1.4-0.1-1.8c-11.8-7.4-17.7-26-49.5-18.6c-3.7-1.7-6.8-3.5-9.3-5.3c-1.1-0.8-0.5-2.6,0.9-2.6c9.2,0,18.4-0.6,28.2-1.6
	c2.2,1.4,4.2,2.8,6.2,4.2c4.8,3.4,9.3,6.5,14.5,8.7c10.2,12.7,25.4,26.8,50,3.6c0.5-0.5,0.5-1.3-0.1-1.7c-12-9.5-29-18.1-50.4-9.3
	c-2.4-1.3-4.7-2.8-7.2-4.4c-1.1-0.8-0.7-2.5,0.6-2.6c4.2-0.5,8.5-1.1,13-1.7c6.9-0.9,14.1-1.8,21.8-2.7c11,7.7,31.1,19.4,56.7-7.8
	c0.5-0.5,0.4-1.3-0.2-1.7c-30.1-21.5-47.5-6.7-56.8,3.1l0-0.1c-7.9,0.9-15.2,1.9-22.3,2.8c-5.1,0.7-9.9,1.3-14.7,1.9
	c-1.3,0.2-2.2-1.4-1.3-2.4c2.9-3.3,5.7-5.8,8.2-7.6c22.6,4.4,37.6-7.3,47.5-19c0.4-0.5,0.3-1.3-0.3-1.7c-29-18.1-41.1-0.8-48.6,13.7
	c-5.1,3.3-11.6,8.9-17.8,18.3c-9.7,1-18.9,1.6-28,1.5c-1.3,0-1.9-1.5-1.1-2.4c2.4-2.6,4.9-4.9,7.3-6.7c33.4,1.4,35.6-18.2,45.8-27.9
	c0.5-0.5,0.4-1.4-0.3-1.8c-23-10.6-40.8,2.5-48,23.3c-4.6,3.5-10.2,8.6-14.7,15.1c-1.3-0.1-2.6-0.2-3.9-0.3
	c-6.4-0.6-8.7-8.7-3.7-12.7l76.4-60.9c25.3,6.5,74.4,12,67.3-60.6h0l0,0c-69.2-23.1-74.8,26-74.1,52.1L716.4,400
	c-5,4-12.3-0.1-11.5-6.5c0.2-1.3,0.4-2.6,0.6-3.9c7.3-2.9,13.5-7.2,18-10.9c21.9-2.4,38.6-16.9,33.4-41.6c-0.2-0.7-1-1.1-1.6-0.7
	c-11.7,7.8-31.3,5.5-37.4,38.4c-2.4,1.9-5.1,3.8-8.2,5.6c-1.1,0.6-2.4-0.3-2.1-1.5c2-8.9,4.6-17.8,7.8-27.1c10.5-4,17.4-9,21.8-13.3
	c15.8-4.1,35.4-12,24.2-44.3c-0.2-0.6-1-1-1.6-0.6c-13.6,7-28.3,19-29,42c-2.2,1.9-5.1,4-8.7,6c-1.4,0.8-2.9-0.6-2.4-2.1
	c1.6-4.3,3.2-8.7,4.9-13.3c2.5-6.7,5-13.6,7.7-21.1l-0.1,0c11.6-7,29.9-20.6,15.6-54.7c-0.3-0.6-1-0.9-1.6-0.5
	c-32.2,18.9-25.3,41.1-20.2,53.5c-2.6,7.3-5.1,14.1-7.5,20.6c-1.5,4-2.9,7.9-4.3,11.8c-0.5,1.4-2.6,1.5-3.1,0c-1-2.5-1.8-5-2.5-7.4
	c13.3-18.9,8.7-37.5,2.1-51.3c-0.3-0.6-1-0.8-1.5-0.4c-28.1,18.9-17.8,36.9-7.7,49.6c1,5.5,3,10.6,5.2,16.1c0.9,2.2,1.8,4.5,2.7,7
	c-3.2,9.3-5.9,18.2-7.9,27.2c-0.3,1.3-2.1,1.5-2.7,0.3c-1.2-2.8-2.3-6.3-3.1-10.3c14.3-29.4-2.5-39.3-7.2-52.4
	c-0.3-0.7-1.2-1-1.7-0.5c-19.3,16.9-14.2,38.9,2.4,54c2.1,10.1,5.4,17.2,9.9,21c-1.3,8.5-2,17.3-1.9,26.7l-12.3,9.8
	c-2.6,2-6.3-0.3-5.5-3.5c2.9-12.6,3.1-27.3-1.9-43.6c-2-6.6-3.9-12.5-5.6-17.7c-8.5-26.1-12-36.9-2.8-56.1l22.3-46.3
	c25.6-5.1,72.2-21.5,34.3-83.9l0,0l0,0c-72.4,9.2-56.1,55.9-44.1,79.1l-22.3,46.3c-9.2,19.2-19.9,23.1-45.6,32.8
	c-5.1,1.9-10.9,4.1-17.3,6.6c-15.9,6.3-27.3,15.5-35.3,25.7c-2,2.6-6.2,1.1-6.2-2.2v-15.7c7.4-5.8,13.9-11.8,19.7-18.1
	c5.8,1.1,13.4-0.7,22.6-5.4c22.2,3.6,42.6-6.2,43.7-31.8c0-0.8-0.7-1.3-1.4-1.1c-13.2,4.6-31.4-2.4-45.5,27.1
	c-3.5,1.7-6.7,3-9.6,3.9c-1.5,0.4-2.6-1.3-1.6-2.5c5.7-7.1,10.9-14.7,16.1-22.8c2.5-0.8,4.8-1.5,7.1-2.2c5.6-1.7,10.9-3.3,15.8-5.9
	c16.3,0,36.8-3.1,34-37c-0.1-0.6-0.6-1.1-1.3-0.9c-14.9,3.4-32.3,11.3-38.8,33.6c-2.4,1.1-4.9,1.9-7.6,2.8c-1.4,0.4-2.5-1.1-1.8-2.3
	c2.2-3.5,4.4-7.2,6.7-11c3.6-6,7.4-12.1,11.4-18.7c12.9-3.8,34.5-12.2,29.2-49.2c-0.1-0.7-0.8-1.1-1.4-0.9
	c-35.6,10.1-34.8,33-33.1,46.4l-0.1,0c-4.2,6.8-8,13.1-11.7,19.2c-2.6,4.3-5.1,8.4-7.5,12.4c-0.7,1.2-2.6,0.9-2.9-0.5
	c-0.7-4.2-0.9-7.8-0.8-10.8c17.6-15,17.7-34,14.7-49c-0.1-0.6-0.8-1-1.4-0.8c-32.3,11.4-26.4,31.7-19.7,46.6
	c-0.6,6.1-0.2,14.6,3.2,25.3c-5.2,8.1-10.4,15.6-16.1,22.7c-0.9,1.1-2.6,0.6-2.8-0.8c-0.5-3.4-0.7-6.7-0.7-9.6
	c22-25.3,7.9-39.2,6.7-53.2c-0.1-0.8-0.9-1.2-1.5-0.9c-22.6,11.4-23.5,33.5-11.7,52.1c-0.1,5.8,0.3,13.3,2.6,20.9
	c-0.9,1-1.8,1.9-2.7,2.9c-4.4,4.6-12.2,1.4-12.2-5v-97.7c20.9-15.7,55.7-50.7-5.4-90.4v0l0,0c-61.2,39.7-26.3,74.8-5.4,90.4v97.7
	c0,6.4-7.8,9.6-12.2,5c-0.9-0.9-1.8-1.9-2.7-2.9c2.3-7.6,2.8-15,2.6-20.9c11.8-18.6,10.9-40.7-11.7-52.1c-0.7-0.3-1.5,0.1-1.5,0.9
	c-1.2,14-15.2,27.9,6.7,53.2c0,3-0.2,6.5-0.8,10.1c-0.2,1.2-1.7,1.6-2.4,0.6c-5.8-7.1-11.1-14.8-16.4-23c3.5-10.7,3.8-19.3,3.2-25.3
	c6.7-14.9,12.7-35.2-19.7-46.6c-0.6-0.2-1.2,0.2-1.4,0.8c-3,15-2.8,34.1,14.7,49c0.1,3.1-0.1,6.9-0.9,11.3c-0.2,1.2-1.9,1.6-2.5,0.5
	c-2.5-4.1-5.1-8.4-7.8-12.8c-3.7-6.1-7.5-12.4-11.7-19.2l-0.1,0c1.8-13.4,2.5-36.2-33.1-46.4c-0.7-0.2-1.3,0.3-1.4,0.9
	c-5.3,37,16.3,45.4,29.2,49.2c4.1,6.6,7.8,12.8,11.4,18.7c2.4,3.9,4.7,7.7,6.9,11.4c0.7,1.1-0.4,2.4-1.6,2c-2.9-0.9-5.5-1.8-8.1-2.9
	c-6.5-22.2-23.9-30.2-38.8-33.6c-0.6-0.1-1.2,0.3-1.3,0.9c-2.8,33.8,17.7,36.9,34,37c5,2.7,10.2,4.2,15.8,5.9
	c2.3,0.7,4.7,1.4,7.1,2.2c5.3,8.3,10.7,16,16.5,23.3c0.8,1-0.1,2.5-1.4,2.2c-3-0.8-6.4-2.1-10.2-4c-14.1-29.5-32.3-22.5-45.5-27.1
	c-0.7-0.2-1.5,0.3-1.4,1.1c1.2,25.6,21.6,35.4,43.7,31.8c9.2,4.7,16.8,6.5,22.6,5.4c5.8,6.3,12.3,12.3,19.7,18.1v15.7
	c0,3.3-4.1,4.7-6.2,2.2c-8-10.1-19.4-19.4-35.3-25.7c-6.4-2.5-12.2-4.7-17.3-6.6c-25.7-9.6-36.4-13.6-45.6-32.8l0,0c0,0,0,0,0,0
	l-22.3-46.3c12-23.2,28.2-69.9-44.1-79.1l0,0l0,0c-37.9,62.3,8.7,78.8,34.3,83.9l22.3,46.3l0,0c9.2,19.2,5.7,30-2.8,56.1
	c-1.7,5.2-3.6,11.1-5.6,17.7c-5,16.3-4.8,31-1.9,43.6c0.7,3.2-3,5.5-5.5,3.5l-12.3-9.8c0.1-9.4-0.6-18.2-1.9-26.7
	c4.5-3.9,7.8-10.9,9.9-21c16.6-15.1,21.7-37.1,2.4-54c-0.6-0.5-1.5-0.3-1.7,0.5c-4.6,13.1-21.4,23-7.2,52.4c-1,4.7-2.3,8.7-3.8,11.8
	c-0.4,0.7-1.5,0.6-1.6-0.2c-2.1-9.5-4.9-18.9-8.2-28.8c0.9-2.4,1.8-4.7,2.7-7c2.2-5.5,4.2-10.5,5.2-16.1
	c10.1-12.8,20.5-30.7-7.7-49.6c-0.5-0.4-1.2-0.2-1.5,0.4c-6.7,13.8-11.3,32.3,2.1,51.3c-0.8,3.1-2,6.1-3.3,9.4
	c-0.3,0.8-1.4,0.7-1.6,0c-1.6-4.4-3.3-9-5-13.7c-2.4-6.6-4.9-13.3-7.5-20.6c5.1-12.5,12-34.6-20.2-53.5c-0.6-0.3-1.4-0.1-1.6,0.5
	c-14.2,34.1,4.1,47.8,15.6,54.7l-0.1,0c2.7,7.5,5.2,14.4,7.7,21.1c2,5.3,3.8,10.4,5.6,15.3c0.3,0.7-0.5,1.4-1.2,1.1
	c-4.5-2.3-8-4.7-10.6-7c-0.8-23-15.5-35-29-42c-0.6-0.3-1.4,0-1.6,0.6c-11.2,32.3,8.4,40.3,24.2,44.3c4.4,4.2,11.3,9.3,21.8,13.3
	c3.3,9.7,6,18.9,8,28.2c0.2,0.8-0.6,1.3-1.3,1c-3.5-1.9-6.7-4.1-9.3-6.2c-6.1-32.9-25.7-30.6-37.4-38.4c-0.6-0.4-1.5-0.1-1.6,0.7
	c-5.2,24.7,11.5,39.2,33.4,41.6c4.5,3.7,10.6,8,18,10.9c0.2,1.3,0.4,2.6,0.6,3.9c0.8,6.3-6.5,10.4-11.5,6.5l-76.4-60.9
	c0.7-26.1-4.9-75.2-74.1-52.1l0,0h0c-7.1,72.6,42,67.2,67.3,60.6l76.4,60.9c5,4,2.6,12-3.7,12.7c-1.3,0.1-2.6,0.2-3.9,0.3
	c-4.5-6.5-10-11.5-14.7-15.1c-7.2-20.8-25.1-33.9-48-23.3c-0.7,0.3-0.8,1.2-0.3,1.8c10.2,9.7,12.3,29.3,45.8,27.9
	c2.3,1.9,4.9,4.1,7.3,6.8c0.8,0.9,0.2,2.4-1.1,2.4c-9.1,0.1-18.4-0.5-28.1-1.5c-6.2-9.4-12.7-15-17.8-18.3
	c-7.5-14.5-19.6-31.8-48.6-13.7c-0.6,0.4-0.7,1.2-0.3,1.7c9.9,11.6,24.9,23.3,47.5,19c2.5,1.8,5.3,4.3,8.2,7.6
	c0.9,1,0.1,2.5-1.2,2.4c-4.7-0.6-9.6-1.2-14.7-1.9c-7.1-0.9-14.4-1.9-22.3-2.8l0,0.1c-9.4-9.7-26.8-24.5-56.8-3.1
	c-0.6,0.4-0.6,1.2-0.2,1.7c25.6,27.2,45.7,15.5,56.7,7.8c7.7,0.9,14.9,1.8,21.8,2.7c4.5,0.6,8.8,1.1,13.1,1.7
	c1.3,0.2,1.7,1.9,0.6,2.6c-2.4,1.7-4.8,3.2-7.2,4.4c-21.4-8.8-38.4-0.2-50.4,9.3c-0.5,0.4-0.6,1.2-0.1,1.7
	c24.7,23.1,39.9,9.1,50-3.6c5.2-2.2,9.7-5.3,14.5-8.7c2-1.4,4-2.8,6.2-4.2c9.8,1,19.1,1.6,28.3,1.6c1.4,0,2,1.7,0.9,2.6
	c-2.5,1.8-5.6,3.6-9.3,5.3c-31.9-7.4-37.8,11.2-49.5,18.6c-0.6,0.4-0.7,1.3-0.1,1.8c20.8,15,41.1,5.2,52.1-14.4
	c9.4-4.3,15.5-9.1,18.3-14.4c8.6-0.6,17.3-1.9,26.5-4.1l12.3,9.8c2.6,2,1.1,6.2-2.2,6.2c-12.9,0-27.3,3.1-42.1,11.6
	c-6,3.4-11.3,6.6-16,9.4c-23.6,14.1-33.3,19.9-54,15.2c0,0,0,0,0,0v0c0,0,0,0,0,0l-50.1-11.4c-10.7-23.8-37.1-65.6-89.4-14.8l0,0h0
	c25.1,68.5,67,42.3,87,25.4l50.1,11.4v0c20.7,4.7,27,14.2,42.1,37.1c3,4.6,6.4,9.7,10.3,15.4c9.6,14.1,21.2,23.1,32.9,28.7
	c3,1.4,2.5,5.8-0.7,6.5l-15.3,3.5c-7.3-6-14.6-10.9-22.1-15.2c-0.2-5.9-3.7-12.9-10.3-20.9c-1.4-22.4-15.5-40.1-40.7-35.6
	c-0.7,0.1-1.1,1-0.7,1.6c7.4,11.8,4.6,31.1,36.5,38.3c2.6,3.2,4.7,6.1,6.1,8.9c0.6,1.2-0.7,2.5-1.9,1.9c-8.3-4-16.9-7.5-26.2-10.8
	c-1.3-2.2-2.6-4.4-3.8-6.5c-2.9-5.1-5.6-9.9-9.3-14.1c-3.7-15.9-11.2-35.1-43.5-25c-0.6,0.2-1,0.9-0.7,1.6
	c6.6,13.8,18.3,28.9,41.3,30.3c1.6,2.2,3.1,4.6,4.6,7.1c0.7,1.1-0.4,2.5-1.7,2.1c-4-1.4-8.2-2.7-12.5-4.2c-6.6-2.2-13.5-4.5-20.8-7
	c-6.6-11.7-19.6-30.9-54.5-17.6c-0.6,0.2-0.9,1-0.6,1.6c17.8,32.4,39.9,26.6,52.5,21.9l0,0.1c7.5,2.6,14.5,4.9,21.3,7.2
	c4.9,1.6,9.6,3.2,14.1,4.7c1.2,0.4,1.3,2.2,0.1,2.7c-4.1,1.7-7.7,2.7-10.7,3.3c-18.5-13.8-37.1-9.7-51.1-3.5c-0.6,0.3-0.8,1-0.4,1.5
	c18.3,29,36.7,18.7,49.8,8.8c6-0.8,14.3-3,24-8.8c9.2,3.3,17.8,6.8,26,10.8c1.1,0.5,1.1,2.1-0.1,2.6c-3.3,1.3-6.6,2.3-9.5,3
	c-29.5-15.8-40,1-53.3,5.3c-0.7,0.2-1,1.1-0.5,1.7c16.1,19.5,37.8,15.4,53.4-0.2c5.7-1.2,12.9-3.3,19.8-7.2c1.1,0.7,2.3,1.3,3.4,2
	c5.5,3.3,4.1,11.6-2.1,13l-95.2,21.7c-19.9-16.8-61.9-43.1-87,25.4h0l0,0c52.3,50.8,78.7,9,89.4-14.8l95.2-21.7
	c6.2-1.4,11,5.5,7.6,10.8c-0.7,1.1-1.5,2.2-2.2,3.3c-7.9-0.5-15.3,0.6-20.9,2.1c-20.8-7.3-42.1-1.5-48.2,23
	c-0.2,0.7,0.4,1.4,1.2,1.3c13.9-1.9,30.6,8.6,50.3-18.4c2.9-0.7,6.3-1.2,9.9-1.5c1.2-0.1,2,1.3,1.2,2.3c-5.7,7.2-11.9,14-18.7,21
	c-11.2-1-19.6,0.6-25.4,2.5c-16.1-3.2-37.2-4.5-41.1,29.5c-0.1,0.6,0.4,1.2,1.1,1.2c15.3-0.4,33.8-4.8,44.5-25.3
	c3-0.8,6.7-1.4,11.1-1.7c1.3-0.1,2,1.5,1.1,2.4c-3.4,3.3-7,6.8-10.7,10.4c-5.1,5-10.4,10.1-16.1,15.7l0.1,0.1
	c-13.4,1.3-35.9,5.6-37.8,42.5c0,0.7,0.5,1.2,1.2,1.2c37.2-3.1,40.6-26,41.4-39.5c5.5-5.5,10.7-10.5,15.7-15.3
	c3.3-3.2,6.4-6.2,9.4-9.2c0.9-0.9,2.5-0.2,2.4,1.1c-0.2,2.9-0.5,5.7-1,8.4c-20.2,11.3-24.1,30-24.1,45.3c0,0.6,0.6,1.1,1.2,1
	c33.6-4.8,32.1-25.5,28.5-41.4c1.5-5.4,1.9-10.9,2.3-16.8c0.2-2.4,0.3-4.9,0.6-7.4c6.9-7,13.2-13.9,18.9-21.1
	c0.8-1.1,2.6-0.4,2.5,0.9c-0.1,3.1-0.7,6.7-1.7,10.6c-25.6,20.3-14.8,36.5-16.3,50.3c-0.1,0.8,0.6,1.4,1.4,1.2
	c24.7-6.9,29.7-28.9,21.2-49.7c2.5-10,2.6-17.8,0.2-23.3c4.9-7.1,9.3-14.7,13.3-23.3l15.3-3.5c3.2-0.7,5.5,3,3.5,5.5
	c-8.1,10.1-14.6,23.2-17.2,40.1c-1,6.8-1.9,13-2.6,18.4c-3.7,27.2-5.2,38.5-21.8,51.7l-40.1,32c-25.3-6.5-74.4-12-67.3,60.6h0l0,0
	c69.2,23.1,74.8-26,74.1-52.1l40.2-32c0,0,0,0,0,0l0,0c16.6-13.3,27.9-12.2,55.3-9.8c5.4,0.5,11.6,1.1,18.5,1.6
	c17,1.2,31.3-2.2,42.9-7.8c2.9-1.4,6,1.7,4.6,4.6l-6.8,14.2c-9.2,2-17.6,4.6-25.6,7.8c-4.8-3.5-12.4-5.2-22.7-5
	c-18.4-12.9-41-12.9-53.2,9.6c-0.4,0.7,0.1,1.5,0.8,1.6c13.8,1.6,27.2,15.8,52.7-4.7c4.1-0.1,7.7,0.2,10.7,0.8
	c1.3,0.3,1.6,2.1,0.3,2.7c-8.3,4-16.4,8.6-24.8,13.7c-2.6-0.3-5-0.7-7.4-1.1c-5.8-0.9-11.2-1.8-16.8-1.5
	c-14.7-7-34.5-13.1-46.7,18.5c-0.2,0.6,0.1,1.3,0.7,1.4c14.9,3.4,34,3.8,49.5-13.4c2.7,0.1,5.5,0.4,8.4,0.9c1.3,0.2,1.7,1.9,0.6,2.6
	c-3.6,2.3-7.3,4.7-11,7.2c-5.9,3.8-11.9,7.8-18.4,11.9c-13.3-2.2-36.4-4-47.7,31.6c-0.2,0.6,0.2,1.3,0.9,1.5
	c36.4,6.3,45.7-14.6,49.9-27.4l0,0.1c6.7-4.3,12.9-8.3,18.9-12.2c4.3-2.8,8.4-5.5,12.5-8.1c1.1-0.7,2.5,0.3,2.1,1.6
	c-1.2,4.3-2.6,7.7-4.1,10.4c-22.3,5.9-30.7,23-34.6,37.8c-0.2,0.6,0.3,1.2,0.9,1.3c34.1,3.8,37.5-17.1,37.9-33.5
	c3.2-5.2,6.6-13.1,8.1-24.2c8.3-5.1,16.4-9.7,24.7-13.6c1.1-0.5,2.3,0.5,2,1.7c-1,3.4-2.3,6.6-3.6,9.3c-30.7,13.2-24.2,31.8-29.1,45
	c-0.3,0.7,0.3,1.5,1,1.5c25.3-0.4,35.7-20,33.1-41.8c2.7-5.2,5.5-12.1,6.7-19.9c1.2-0.5,2.4-1,3.7-1.4c6-2.2,11.6,4,8.9,9.8
	l-42.4,88c-25.6,5.1-72.2,21.5-34.3,83.9l0,0l0,0c72.4-9.2,56.1-55.9,44.1-79.1l42.4-88c2.8-5.8,11.2-5.2,13.2,0.8
	c0.4,1.3,0.8,2.5,1.2,3.8c-5.3,5.8-9,12.3-11.4,17.7c-18.7,11.7-27.5,32-12.1,52c0.5,0.6,1.4,0.5,1.8-0.1
	c7.2-12.1,25.8-18.5,17-50.8c1.3-2.7,3-5.7,5-8.6c0.7-1,2.3-0.7,2.6,0.5c2.1,8.9,3.5,18,4.7,27.7c-7.8,8.1-11.8,15.7-13.9,21.4
	c-12.5,10.5-26.7,26.2-2.6,50.5c0.5,0.5,1.3,0.4,1.7-0.1c9.2-12.2,17.2-29.4,7.9-50.5c1.2-2.8,3-6.1,5.6-9.7
	c0.8-1.1,2.4-0.6,2.6,0.7c0.5,4.8,1,9.7,1.5,14.8c0.7,7.1,1.4,14.4,2.2,22.4l0.1,0c-7.4,11.3-18,31.5,9.7,56.1
	c0.5,0.5,1.3,0.3,1.7-0.2c20.8-31,5-48-5-57c-0.8-7.7-1.5-14.9-2.2-21.9c-0.4-4.5-0.9-8.9-1.3-13.1c-0.1-1.3,1.4-2.1,2.4-1.2
	c2.2,2,4.1,4,5.9,6c-3.8,22.8,8.4,37.5,20.3,47c0.5,0.4,1.3,0.3,1.7-0.3c17.1-29.2,0-40.9-14.7-48c-3.3-4.5-7.3-8.2-11.7-12.2
	c-1.8-1.6-3.6-3.3-5.5-5.1c-1.2-9.8-2.6-19-4.7-27.9c-0.3-1.3,1.3-2.3,2.3-1.4c2.3,2,4.8,4.7,7.3,7.9c-0.1,32.7,19.3,34.3,29.2,44.1
	c0.5,0.5,1.5,0.4,1.8-0.3c10-23.6-4.1-41.2-25.6-47.6c-6.3-8.2-12.3-13.1-18.1-14.7c-2.5-8.2-5.7-16.4-9.9-24.9l6.8-14.2
	c1.4-3,5.8-2.5,6.5,0.7c2.8,12.6,9.1,25.9,20.6,38.4c4.7,5.1,9,9.5,12.7,13.5c19,19.8,26.8,28,26.8,49.3V856
	c-20.9,15.7-55.7,50.7,5.4,90.4v0l0,0c61.2-39.7,26.3-74.8,5.4-90.4v-51.4c0-21.3,7.9-29.5,26.8-49.3c3.8-4,8.1-8.4,12.7-13.5
	c11.6-12.5,17.8-25.8,20.6-38.4c0.7-3.2,5.1-3.7,6.5-0.7l6.8,14.2c-4.2,8.5-7.4,16.7-9.9,24.9c-5.7,1.5-11.8,6.4-18.1,14.7
	c-21.5,6.4-35.7,24-25.6,47.6c0.3,0.7,1.2,0.9,1.8,0.3c9.9-9.8,29.3-11.4,29.2-44.1c2.5-3.2,4.9-5.9,7.3-7.9c1-0.9,2.6,0.1,2.3,1.4
	c-2.1,9-3.5,18.2-4.7,27.9c-1.9,1.8-3.7,3.5-5.5,5.1c-4.4,4-8.4,7.7-11.7,12.2c-14.6,7.1-31.7,18.8-14.7,48c0.3,0.6,1.1,0.7,1.7,0.3
	c12-9.5,24.1-24.2,20.3-47c1.8-2.1,3.8-4,5.9-6c1-0.9,2.5-0.1,2.4,1.2c-0.4,4.2-0.8,8.6-1.3,13.1c-0.7,7-1.4,14.1-2.2,21.9
	c-10,9-25.8,26-5,57c0.4,0.6,1.2,0.7,1.7,0.2c27.6-24.6,17.1-44.8,9.7-56.1l0.1,0c0.8-7.9,1.6-15.3,2.2-22.4c0.5-5.1,1-10,1.5-14.8
	c0.1-1.3,1.8-1.7,2.6-0.7c2.6,3.6,4.4,6.9,5.6,9.7c-9.3,21.1-1.2,38.3,7.9,50.5c0.4,0.5,1.2,0.6,1.7,0.1
	c24.1-24.3,9.9-39.9-2.6-50.5c-2.1-5.7-6.1-13.3-13.9-21.4c1.2-9.7,2.7-18.8,4.7-27.7c0.3-1.2,1.9-1.5,2.6-0.5c2,3,3.7,5.9,5,8.6
	c-8.8,32.3,9.8,38.7,17,50.8c0.4,0.7,1.3,0.7,1.8,0.1c15.4-20,6.6-40.3-12.1-52c-2.4-5.3-6.1-11.8-11.4-17.7
	c0.4-1.3,0.8-2.5,1.2-3.8c2-6.1,10.4-6.6,13.2-0.8l42.4,88c-12,23.2-28.2,69.9,44.1,79.1l0,0l0,0c37.9-62.3-8.7-78.8-34.3-83.9
	l-42.4-88c-2.8-5.8,2.9-12,8.9-9.8c1.2,0.5,2.5,0.9,3.7,1.4c1.2,7.8,4,14.8,6.7,19.9c-2.5,21.9,7.9,41.4,33.1,41.8
	c0.8,0,1.3-0.8,1-1.5c-5-13.1,1.6-31.7-29.1-45c-1.3-2.7-2.6-5.9-3.6-9.3c-0.4-1.2,0.9-2.2,2-1.7c8.3,3.9,16.3,8.5,24.7,13.6
	c1.5,11.1,4.9,19,8.1,24.2c0.4,16.4,3.9,37.2,37.9,33.5c0.6-0.1,1.1-0.7,0.9-1.3c-3.8-14.8-12.2-31.9-34.6-37.8
	c-1.4-2.7-2.9-6.2-4.1-10.4c-0.3-1.3,1-2.3,2.1-1.6c4,2.6,8.2,5.3,12.5,8.1c6,3.9,12.2,7.9,18.9,12.2l0-0.1
	c4.2,12.8,13.5,33.7,49.9,27.4c0.7-0.1,1.1-0.8,0.9-1.5c-11.3-35.6-34.4-33.8-47.7-31.6c-6.5-4.2-12.6-8.1-18.4-11.9
	c-3.8-2.5-7.5-4.9-11.1-7.2c-1.1-0.7-0.7-2.4,0.6-2.6c2.9-0.4,5.7-0.8,8.4-0.9c15.5,17.2,34.6,16.8,49.5,13.4c0.6-0.1,1-0.8,0.7-1.4
	c-12.2-31.7-32-25.6-46.7-18.5c-5.6-0.2-11,0.6-16.8,1.5c-2.4,0.4-4.8,0.8-7.4,1.1c-8.4-5.2-16.5-9.8-24.8-13.7
	c-1.2-0.6-1-2.4,0.3-2.7c3-0.6,6.6-0.8,10.7-0.8c25.5,20.5,38.9,6.3,52.7,4.7c0.8-0.1,1.2-0.9,0.8-1.6
	c-12.2-22.6-34.8-22.5-53.2-9.6c-10.3-0.2-17.9,1.5-22.7,5c-8-3.2-16.4-5.8-25.6-7.8l-6.8-14.2c-1.4-3,1.7-6.1,4.6-4.6
	c11.6,5.6,25.9,9.1,42.9,7.8c6.9-0.5,13.1-1.1,18.5-1.6c27.3-2.5,38.7-3.5,55.3,9.8l40.2,32c-0.7,26.1,4.9,75.2,74.1,52.1l0,0h0
	c7.1-72.6-42-67.2-67.3-60.6l-40.1-32c-16.6-13.3-18.1-24.5-21.8-51.7c-0.7-5.4-1.6-11.6-2.6-18.4c-2.6-16.9-9.1-30-17.2-40.1
	c-2.1-2.6,0.3-6.3,3.5-5.5l15.3,3.5c4,8.6,8.4,16.2,13.3,23.3c-2.4,5.4-2.3,13.2,0.2,23.3c-8.4,20.8-3.5,42.9,21.2,49.7
	c0.7,0.2,1.4-0.4,1.4-1.2c-1.5-13.8,9.3-30-16.3-50.3c-1-4-1.5-7.5-1.7-10.6c-0.1-1.4,1.7-2,2.5-0.9c5.7,7.2,12,14.1,18.9,21.1
	c0.3,2.6,0.4,5,0.6,7.4c0.4,5.9,0.8,11.3,2.3,16.8c-3.6,15.9-5.1,36.5,28.5,41.4c0.6,0.1,1.2-0.4,1.2-1c0-15.3-3.9-34-24.1-45.3
	c-0.5-2.7-0.8-5.5-1-8.4c-0.1-1.3,1.5-2.1,2.4-1.1c3,3,6.2,6,9.5,9.2c5,4.9,10.2,9.9,15.7,15.3c0.8,13.4,4.2,36.4,41.4,39.5
	c0.7,0.1,1.3-0.5,1.2-1.2c-2-36.9-24.4-41.3-37.8-42.5l0.1-0.1c-5.7-5.6-11-10.7-16.1-15.7c-3.7-3.6-7.2-7-10.7-10.4
	c-0.9-0.9-0.2-2.5,1.1-2.4c4.4,0.2,8.1,0.9,11.1,1.7c10.7,20.4,29.2,24.8,44.5,25.3c0.6,0,1.1-0.5,1.1-1.2
	c-3.9-34.1-25-32.8-41.1-29.5c-5.8-1.9-14.2-3.5-25.4-2.5c-6.8-7-13.1-13.8-18.7-21c-0.8-1,0-2.4,1.2-2.3c3.6,0.2,6.9,0.8,9.9,1.5
	c19.8,27,36.4,16.5,50.3,18.4c0.7,0.1,1.4-0.6,1.2-1.3c-6-24.5-27.4-30.3-48.2-23c-5.7-1.4-13-2.6-20.9-2.1
	c-0.7-1.1-1.5-2.2-2.2-3.3c-3.5-5.4,1.3-12.2,7.6-10.8l95.2,21.7c10.7,23.8,37.1,65.6,89.4,14.8h0l0,0
	C920.2,562.1,878.3,588.4,858.3,605.2z M554.7,411.2c0-15.2,9.5-47.8,45.4-62c6.3-2.5,12.1-4.7,17.2-6.6
	c12.7-4.8,22.4-8.4,30.3-13.3c2.2-1.3,5,0,5.3,2.5c1.1,9.2,4.3,19.1,8.5,32c1.7,5.2,3.6,11,5.6,17.5c11.3,36.9-8.2,64.7-20.1,74.2
	l0,0l0,0c0,0,0,0,0,0l0,0l-73.9,58.9c-2.9,2.3-6.9-0.9-5.3-4.2l14.3-29.6c1.5-0.6,3.3-1.3,5.2-2.1c4.4-1.8,9.8-4,15-6.4
	c21.3-0.2,38.9-12.5,36.9-37.1c-0.1-0.8-0.8-1.2-1.5-0.9c-12.6,6.3-31.9,1.4-42.1,33.9c-2,0.9-4,1.7-5.9,2.5
	c-1.2,0.5-2.4-0.8-1.8-1.9l11.9-24.8c8.5-3.4,15.8-7.5,21.8-12.2c16.4-1.9,37.9-6.9,30.6-41.1c-0.1-0.6-0.8-1-1.4-0.8
	c-14.2,5.2-30.2,15.1-34.1,37.4c-2.7,2-5.6,3.9-8.8,5.7c-1.2,0.7-2.6-0.6-2-1.9l16-33.3c12.4-5.5,32.1-16.8,22.3-52.3
	c-0.2-0.6-0.9-1-1.5-0.7c-33.9,14.5-30.5,36.9-27,50l-16.3,33.9c-0.6,1.2-2.4,1-2.7-0.3c-0.8-4.3-1.1-7.8-1.1-10.6
	c15.4-17,13.2-35.9,8.4-50.4c-0.2-0.6-0.9-0.9-1.5-0.6c-30.9,15.5-22,35.1-13.4,49.1c-0.2,5.5,0.5,14,4.3,25.2l-11.5,23.9
	c-0.6,1.2-2.4,1-2.7-0.3c-0.5-2.3-0.9-4.4-1.3-6.4c17.8-27.3,2.4-39.2-0.5-52.8c-0.2-0.7-1-1.1-1.6-0.7c-21.3,14.3-19,36.8-4.4,53.9
	c1.1,5.5,2.7,13.1,4.4,19.2l-14.2,29.6c-1.6,3.3-6.6,2.2-6.6-1.5V411.2z M431.7,381.4c2-6.5,3.9-12.3,5.6-17.5
	c4.2-12.9,7.4-22.8,8.5-32c0.3-2.5,3.1-3.8,5.3-2.5c7.9,4.9,17.6,8.6,30.3,13.3c5.1,1.9,10.8,4.1,17.2,6.6
	c35.9,14.2,45.4,46.8,45.4,62v94.5c0,3.7-5,4.8-6.6,1.5L523,477.7c1.7-6.1,3.3-13.8,4.4-19.2c14.6-17.1,16.9-39.6-4.4-53.9
	c-0.6-0.4-1.5-0.1-1.6,0.7c-2.9,13.6-18.3,25.5-0.5,52.8c-0.4,1.9-0.8,4.1-1.3,6.4c-0.3,1.3-2.1,1.5-2.7,0.3l-11.5-23.9
	c3.9-11.2,4.5-19.8,4.3-25.2c8.6-14,17.5-33.6-13.4-49.1c-0.6-0.3-1.3,0-1.5,0.6c-4.8,14.5-7.1,33.3,8.4,50.4
	c0,2.8-0.3,6.3-1.1,10.6c-0.3,1.3-2.1,1.6-2.7,0.3L483,394.6c3.4-13.1,6.9-35.5-27-50c-0.6-0.3-1.3,0.1-1.5,0.7
	c-9.8,35.5,9.9,46.8,22.3,52.3l16,33.3c0.6,1.2-0.8,2.5-2,1.9c-3.2-1.8-6.1-3.6-8.8-5.7c-3.9-22.3-19.9-32.2-34.1-37.4
	c-0.6-0.2-1.3,0.2-1.4,0.8c-7.2,34.2,14.3,39.2,30.6,41.1c6,4.7,13.2,8.7,21.8,12.2l11.9,24.8c0.6,1.2-0.6,2.4-1.8,1.9
	c-1.9-0.8-3.9-1.6-5.9-2.5c-10.2-32.4-29.4-27.6-42.1-33.9c-0.7-0.3-1.5,0.1-1.5,0.9c-2,24.6,15.5,36.9,36.9,37.1
	c5.2,2.4,10.6,4.6,15,6.4c2,0.8,3.7,1.5,5.2,2.1l14.3,29.6c1.6,3.3-2.4,6.5-5.3,4.2l-73.9-58.9C439.9,446.1,420.3,418.3,431.7,381.4
	z M351.7,533.1c-3.8-5.6-7.2-10.7-10.2-15.3c-7.5-11.3-13.2-20-19.8-26.6c-1.8-1.8-1.1-4.8,1.3-5.7c8.8-3.1,17.7-8.4,29.3-15.4
	c4.7-2.8,9.9-5.9,15.8-9.3c33.5-19.3,64.9-6.4,76.8,3.1l0,0l73.9,58.9c2.9,2.3,0.7,6.9-2.9,6.1l-32-7.3c-1-1.3-2-2.9-3.2-4.6
	c-2.7-3.9-6-8.7-9.6-13.2c-4.9-20.8-20.8-35.1-44.3-27.7c-0.7,0.2-1,1.1-0.5,1.7c8.9,10.9,8.5,30.8,42.4,33.5
	c1.3,1.7,2.5,3.5,3.7,5.2c0.8,1.1-0.2,2.5-1.5,2.2l-26.8-6.1c-5.3-7.6-10.8-13.7-16.7-18.5c-5.5-15.5-15.1-35.4-46.9-20.7
	c-0.6,0.3-0.8,1-0.5,1.5c8.2,12.7,21.5,26.1,44.1,24.9c2.6,2.1,5,4.6,7.5,7.3c0.9,1,0,2.6-1.4,2.3l-36-8.2
	c-8.1-10.8-23.5-27.5-56-10.1c-0.6,0.3-0.7,1.1-0.4,1.6c21.7,29.8,42.8,21.5,54.8,15.2l36.7,8.4c1.3,0.3,1.5,2.1,0.3,2.7
	c-4,1.8-7.4,2.8-10.1,3.5c-20-11.2-38-4.9-51,3.1c-0.5,0.3-0.7,1.1-0.3,1.6c22,26.7,39.1,13.6,50.8,2.1c5.4-1,13.6-3.6,23.6-9.8
	l25.8,5.9c1.3,0.3,1.5,2.1,0.3,2.7c-2.1,1-4.1,1.9-5.9,2.7c-30.6-11.3-38.8,6.4-51.4,12.3c-0.7,0.3-0.8,1.2-0.3,1.8
	c18.7,17.5,40.1,10.3,53.5-7.7c5.1-2.3,12.2-5.5,17.8-8.5l32,7.3c3.6,0.8,3.6,5.9,0,6.8l-92.2,21C407.4,567,373.6,565,351.7,533.1z
	 M488.4,654.1L488.4,654.1c-6.6,13.7-29.3,39-67.9,36.2c-6.8-0.5-12.9-1-18.3-1.5c-13.5-1.2-23.8-2.2-33.1-1.1
	c-2.5,0.3-4.5-2.2-3.6-4.6c3.1-8.8,4.4-19.1,6.3-32.5c0.7-5.4,1.5-11.5,2.6-18.2c5.8-38.2,35.5-54.7,50.4-58.1v0l92.2-21
	c3.6-0.8,5.8,3.8,2.9,6.1l-25.7,20.5c-1.6-0.1-3.5-0.2-5.6-0.3c-4.8-0.3-10.6-0.7-16.3-0.8c-19.3-9.1-40.4-5.6-49.3,17.4
	c-0.3,0.7,0.2,1.5,1,1.5c14.1-0.2,29.4,12.5,52.6-12.2c2.2,0.1,4.3,0.2,6.4,0.3c1.3,0.1,1.8,1.7,0.8,2.5l-21.5,17.2
	c-9.2-0.6-17.5-0.1-24.9,1.5c-15.6-5.4-37.1-10.2-45.5,23.8c-0.2,0.6,0.3,1.3,0.9,1.3c15.1,1.5,33.8-0.5,47-18.9
	c3.3-0.7,6.7-1.1,10.4-1.3c1.4-0.1,2,1.7,1,2.5l-28.9,23.1c-13.5-0.4-36.2,1.2-42.8,37.5c-0.1,0.6,0.4,1.2,1,1.3
	c36.8,1.7,43.5-20.1,46.1-33.3l29.4-23.5c1.1-0.9,2.6,0.2,2.3,1.5c-1.1,4.2-2.4,7.5-3.6,10c-21.3,8.7-27.5,26.6-29.4,41.8
	c-0.1,0.6,0.4,1.2,1.1,1.2c34.6-0.6,35-22.1,33.3-38.4c2.6-4.9,5.7-12.8,7-24.6l20.7-16.5c1.1-0.8,2.6,0.1,2.3,1.5
	c-0.5,2.2-1.1,4.4-1.6,6.3c-27.9,16.9-19.2,34.3-22.4,47.8c-0.2,0.7,0.4,1.4,1.2,1.3c25.4-3.7,33.1-24.9,27.3-46.6
	c1.4-5.4,3.3-13,4.4-19.2l25.7-20.5c2.9-2.3,6.9,0.9,5.3,4.2L488.4,654.1C488.4,654.1,488.4,654.1,488.4,654.1z M586.3,734.4
	c-4.6,5-8.9,9.4-12.6,13.4c-9.4,9.8-16.5,17.3-21.5,25.2c-1.3,2.1-4.5,2.1-5.8,0c-5-7.9-12.1-15.4-21.5-25.2
	c-3.8-3.9-8-8.4-12.6-13.4c-26.2-28.4-20.6-61.9-14-75.6l41-85.2c1.6-3.3,6.6-2.2,6.6,1.5V608c-4.2,4.8-8.9,11-12.3,15.4
	c-20.6,9.1-32.4,28.3-19.4,50.5c0.4,0.7,1.3,0.7,1.8,0.1c8.5-11,27.6-15,23.4-47.4c1.2-1.6,2.5-3.4,4-5.2c0.8-1.1,2.6-0.5,2.6,0.9
	v26.5c-8.3,8.4-12.7,15.8-14.9,20.9c-13.8,8.9-30.4,22.6-9.3,50c0.4,0.5,1.2,0.6,1.6,0.1c10.6-10.9,20.8-27,14.3-49
	c1.2-2.5,3-5.6,5.6-9.1c0.8-1.1,2.6-0.5,2.6,0.9v37.6c-8.8,10.3-21.6,29,2.7,56.8c0.4,0.5,1.2,0.5,1.6,0
	c24.3-27.8,11.4-46.5,2.7-56.8v-37c0-1.4,1.8-2,2.6-0.8c2.1,3,3.9,5.9,5.4,8.9c-6.2,21.8,3.9,37.7,14.5,48.5
	c0.5,0.5,1.2,0.4,1.6-0.1c21.4-27.7,4.2-41.5-9.8-50.3c-3.4-6.8-8.1-13.6-14.3-20.4v-27.5c0-1.3,1.6-1.9,2.5-1
	c1.4,1.5,2.8,3.1,4.2,4.8c-4.9,33.6,14.6,37.6,23.2,48.8c0.5,0.6,1.4,0.5,1.8-0.1c12.5-21.3,2-40-17.1-49.4
	c-3.6-4.4-7.5-8.7-10.8-12.3c-1.4-1.6-2.7-3-3.8-4.2v-32.9c0-3.7,5-4.8,6.6-1.5l41,85.2C607,672.6,612.5,706.1,586.3,734.4z
	 M724.2,632.4c1,6.7,1.8,12.8,2.6,18.2c1.8,13.4,3.2,23.7,6.3,32.5c0.8,2.4-1.1,4.9-3.6,4.6c-9.2-1-19.6-0.1-33.1,1.1
	c-5.4,0.5-11.5,1-18.3,1.5c-38.5,2.8-61.2-22.4-67.9-36.2l-41-85.2c-1.6-3.3,2.4-6.5,5.3-4.2l25.7,20.5c0.3,1.6,0.6,3.5,0.9,5.6
	c0.8,4.7,1.7,10.5,2.9,16.1c-4.5,20.8,3.5,40.7,27.9,44.2c0.7,0.1,1.4-0.6,1.2-1.3c-3.3-13.7,5.7-31.4-23.6-48.6
	c-0.4-2.1-0.8-4.3-1.1-6.3c-0.2-1.3,1.3-2.2,2.3-1.3l21.5,17.2c1.4,9.1,3.8,17.1,7,23.9c-1.8,16.4-1.7,38.4,33.3,39
	c0.6,0,1.2-0.6,1.1-1.2c-1.9-15-8-32.8-28.9-41.6c-1.4-3-2.6-6.3-3.6-9.8c-0.4-1.3,1.2-2.4,2.3-1.5l28.9,23.1
	c2.6,13.3,9.2,35,46.1,33.3c0.6,0,1.1-0.6,1-1.3c-6.6-36.3-29.2-37.9-42.8-37.5l-29.4-23.5c-1.1-0.9-0.4-2.6,0.9-2.5
	c4.4,0.1,7.9,0.7,10.6,1.3c13.2,18.8,32.1,20.9,47.3,19.4c0.6-0.1,1.1-0.7,0.9-1.3c-8.3-33.6-29.3-29.2-44.9-24
	c-5.3-1.4-13.8-2.7-25.6-1.4l-20.7-16.5c-1.1-0.8-0.4-2.6,0.9-2.5c2.3,0,4.5,0.1,6.5,0.1c22.7,23.4,37.7,11.1,51.6,11.2
	c0.8,0,1.3-0.7,1-1.5c-9.2-23.9-31.7-26.7-51.6-16.3c-5.6-0.2-13.4-0.3-19.7,0l-25.7-20.5c-2.9-2.3-0.7-6.9,2.9-6.1l92.2,21
	C688.7,577.7,718.4,594.2,724.2,632.4z M676.3,563.6l-92.2-21c-3.6-0.8-3.6-5.9,0-6.8l32-7.3c5.6,3,12.7,6.3,17.8,8.5
	c13.4,18,34.8,25.2,53.5,7.7c0.6-0.5,0.4-1.4-0.3-1.8c-12.6-5.9-20.8-23.5-51.4-12.3c-1.8-0.8-3.8-1.7-5.9-2.7
	c-1.2-0.6-1-2.4,0.3-2.7l25.8-5.9c10.1,6.3,18.2,8.8,23.6,9.8c11.7,11.5,28.8,24.6,50.8-2.1c0.4-0.5,0.3-1.2-0.3-1.6
	c-13-7.9-30.9-14.3-51-3.1c-2.7-0.6-6.1-1.7-10.1-3.5c-1.2-0.6-1.1-2.4,0.3-2.7L706,508c12,6.3,33.1,14.6,54.8-15.2
	c0.4-0.5,0.2-1.3-0.4-1.6c-32.5-17.5-47.9-0.8-56,10.1l-36,8.2c-1.3,0.3-2.3-1.3-1.4-2.3c2.4-2.7,4.9-5.2,7.5-7.3
	c22.6,1.2,35.8-12.2,44.1-24.9c0.4-0.5,0.1-1.3-0.5-1.5c-31.8-14.7-41.4,5.2-46.9,20.7c-5.9,4.8-11.5,11-16.7,18.5l-26.8,6.1
	c-1.3,0.3-2.2-1.1-1.5-2.2c1.2-1.7,2.4-3.4,3.7-5.2c33.9-2.7,33.4-22.6,42.4-33.5c0.5-0.6,0.2-1.5-0.5-1.7
	c-23.5-7.4-39.4,6.9-44.3,27.7c-3.5,4.5-6.8,9.3-9.6,13.2c-1.2,1.7-2.3,3.3-3.2,4.6l-32,7.3c-3.6,0.8-5.8-3.8-2.9-6.1l73.9-58.9
	c11.9-9.5,43.3-22.4,76.8-3.1c5.9,3.4,11.2,6.5,15.8,9.3c11.6,7,20.5,12.3,29.3,15.4c2.4,0.8,3.1,3.9,1.3,5.7
	c-6.6,6.6-12.3,15.3-19.8,26.6c-3,4.5-6.4,9.7-10.2,15.3C725,565,691.1,567,676.3,563.6z"/>
</svg>
