<svg xmlns="http://www.w3.org/2000/svg" viewBox="1403 1708 100 100"><g transform="translate(1403 1708)" fill="#fff" stroke="#f5f5f5" stroke-width="4"><circle cx="50" cy="50" r="50" stroke="none"/><circle cx="50" cy="50" r="48" fill="none"/></g><path d="M1479.075 1738.306a14.016 14.016 0 0 0-19.067-1.068l-6.508 5.441-6.511-5.441a14.016 14.016 0 0 0-19.067 1.069 14.189 14.189 0 0 0 1.143 20.661l2.872 2.4a4.257 4.257 0 0 0 .44 4.255 4.188 4.188 0 0 0 2.89 1.647 4.247 4.247 0 0 0 .829.012 4.494 4.494 0 0 0-.031.59 4.262 4.262 0 0 0 1.637 3.294 4.14 4.14 0 0 0 2.948.848 4.262 4.262 0 0 0 1.6 3.908 4.1 4.1 0 0 0 2.948.848 4.423 4.423 0 0 0-.035.616 4.256 4.256 0 0 0 1.637 3.292 4.1 4.1 0 0 0 2.542.866 4.408 4.408 0 0 0 2.825-1.031l.366-.306a4.214 4.214 0 0 0 5.724-.068 4.276 4.276 0 0 0 1.32-3.119c0-.106-.027-.207-.035-.312a4.256 4.256 0 0 0 .581.052 4.2 4.2 0 0 0 2.9-1.154 4.274 4.274 0 0 0 1.32-3.118c0-.106-.027-.208-.035-.313a4.269 4.269 0 0 0 .582.052 4.2 4.2 0 0 0 2.9-1.156 4.268 4.268 0 0 0 1.321-3.117c0-.107-.027-.208-.035-.314a4.256 4.256 0 0 0 .581.052 4.2 4.2 0 0 0 2.9-1.155 4.211 4.211 0 0 0 1.206-4.038c.01-.008.021-.01.03-.018l4.139-3.513a14.186 14.186 0 0 0 1.14-20.662zm-48.788 19.2a12.182 12.182 0 0 1 15.482-18.811l15.492 12.953a2.391 2.391 0 0 1 .192 3.48 2.324 2.324 0 0 1-3.155.206l-7.015-5.652a.949.949 0 0 0-1.337.144v.008l-.008-.007a6.024 6.024 0 0 1-4.752 2.312 6.106 6.106 0 0 1-6.074-6.124h-1.9a8.035 8.035 0 0 0 4 6.946l-8.034 6.719c-.047.039-.082.088-.127.128zm17.689 21.675a2.358 2.358 0 0 1-.071-3.665l.508-.425a4.248 4.248 0 0 0 1.308 2.531l1.4 1.286-.173.145a2.374 2.374 0 0 1-2.972.129zm8.968-.423a2.309 2.309 0 0 1-3.151.026l-2.786-2.563a2.358 2.358 0 0 1-.028-3.437 2.311 2.311 0 0 1 3.15-.026l.915.842 1.875 1.726a2.355 2.355 0 0 1 .025 3.432zm4.767-4.533a2.314 2.314 0 0 1-3.15.027l-.35-.322-.008-.009-2.429-2.234a2.357 2.357 0 0 1-.028-3.436 2.311 2.311 0 0 1 3.151-.025l2.786 2.563a2.358 2.358 0 0 1 .028 3.437zm4.768-4.535a2.31 2.31 0 0 1-3.15.026l-2.787-2.564a2.357 2.357 0 0 1-.028-3.436 2.311 2.311 0 0 1 3.15-.026l2.03 1.867.759.7a2.358 2.358 0 0 1 .026 3.433zm4.768-4.534a2.313 2.313 0 0 1-3.151.027l-.351-.323s0-.006-.007-.008l-2.164-1.991-.264-.244a2.358 2.358 0 0 1-.028-3.437 2.31 2.31 0 0 1 3.15-.025l2.787 2.564a2.358 2.358 0 0 1 .028 3.437zm9.829-16.373a12.132 12.132 0 0 1-4.37 8.727l-3.819 3.242a4.223 4.223 0 0 0-.381-.433l-2.787-2.564a4.219 4.219 0 0 0-5.748.048 4.274 4.274 0 0 0-1.32 3.118c0 .106.027.207.035.312a4.205 4.205 0 0 0-3.483 1.1 4.272 4.272 0 0 0-1.32 3.118c0 .106.027.207.035.312a4.2 4.2 0 0 0-3.483 1.1 4.276 4.276 0 0 0-1.32 3.119c0 .106.027.207.035.311a4.094 4.094 0 0 0-4.118 1.895.97.97 0 0 0-.344.182l-2 1.674-.288.242a2.318 2.318 0 0 1-3.879-1.7 2.342 2.342 0 0 1 .835-1.838l9.895-8.274-1.22-1.46-9.895 8.274-.287.241a2.318 2.318 0 0 1-3.88-1.7 2.342 2.342 0 0 1 .836-1.837l10.034-8.39-1.22-1.46-10.034 8.396-.006.006-.367.305a2.3 2.3 0 0 1-3.323-.384 2.468 2.468 0 0 1 .5-3.33l8.8-7.361a7.865 7.865 0 0 0 7.595-2.055l6.318 5.091a4.213 4.213 0 0 0 5.725-.372 4.294 4.294 0 0 0-.345-6.254l-7.5-6.271 6.246-5.222a12.135 12.135 0 0 1 19.849 10.09z" fill="#c0a360"/></svg>