<svg xmlns="http://www.w3.org/2000/svg" viewBox="379 1126 175 175"><defs><style>.b{fill:#be9b47}</style></defs><g transform="translate(379 1126)" stroke="#c1a050" stroke-width="7" fill="none"><circle cx="87.5" cy="87.5" r="87.5" stroke="none"/><circle cx="87.5" cy="87.5" r="84"/></g><path class="b" d="M505.662 1183.363v-5.608a8.765 8.765 0 0 0-8.755-8.758h-23.348a8.77 8.77 0 0 0-8.259 5.84h-15.088a8.755 8.755 0 0 0 0 17.511h23.347a8.77 8.77 0 0 0 8.255-5.837h5.84l-4.914 31.13h-8.208v-14.592a2.921 2.921 0 0 0-4.67-2.335l-18.677 14.008v-11.673a2.921 2.921 0 0 0-4.67-2.335l-23.348 17.511a2.918 2.918 0 0 0-1.167 2.334v35.022a2.918 2.918 0 0 0 2.918 2.916h83.663a2.918 2.918 0 0 0 2.919-2.916v-35.022c0-.385.216 1.145-5.838-37.196zm-.5 34.278h-16.513l.922-5.837h14.673zm-1.84-11.674h-12.83l.922-5.837H502.4zm-1.843-11.67h-9.144l1.229-7.782h6.686zm-22.079-13.623a2.918 2.918 0 0 0-2.922 2.923 2.922 2.922 0 0 1-2.918 2.918h-23.348a2.919 2.919 0 0 1 0-5.837h17.511a2.918 2.918 0 0 0 2.918-2.918 2.922 2.922 0 0 1 2.918-2.923h23.348a2.922 2.922 0 0 1 2.918 2.918v2.918zm26.262 71.988h-77.825v-30.643l17.511-13.133v11.673a2.921 2.921 0 0 0 4.67 2.335l18.682-14.008v11.673a2.918 2.918 0 0 0 2.918 2.918h34.044z"/><path class="b" d="M495.934 1229.315H484.26a2.918 2.918 0 0 0-2.918 2.918v11.674a2.918 2.918 0 0 0 2.918 2.918h11.674a2.918 2.918 0 0 0 2.918-2.918v-11.674a2.918 2.918 0 0 0-2.918-2.918zm-2.919 11.674h-5.837v-5.837h5.837zm-20.432-11.674h-11.671a2.918 2.918 0 0 0-2.918 2.918v11.674a2.918 2.918 0 0 0 2.918 2.918h11.671a2.918 2.918 0 0 0 2.918-2.918v-11.674a2.918 2.918 0 0 0-2.918-2.918zm-2.918 11.674h-5.837v-5.837h5.837zm-20.426-11.674h-11.674a2.918 2.918 0 0 0-2.918 2.918v11.674a2.918 2.918 0 0 0 2.918 2.918h11.674a2.918 2.918 0 0 0 2.918-2.918v-11.674a2.918 2.918 0 0 0-2.918-2.918zm-2.918 11.674h-5.837v-5.837h5.837z"/></svg>