<svg xmlns="http://www.w3.org/2000/svg" viewBox="356 6454 175 175"><g transform="translate(356 6454)" stroke="#c1a050" stroke-width="7" fill="none"><circle cx="87.5" cy="87.5" r="87.5" stroke="none"/><circle cx="87.5" cy="87.5" r="84"/></g><path d="M485.692 6509.308a7.565 7.565 0 0 0-5.549-2.308h-72.286a7.566 7.566 0 0 0-5.549 2.308 7.565 7.565 0 0 0-2.308 5.549v53.426a7.562 7.562 0 0 0 2.308 5.548 7.562 7.562 0 0 0 5.549 2.309h72.286a7.881 7.881 0 0 0 7.857-7.857v-53.426a7.564 7.564 0 0 0-2.308-5.549zm-3.978 58.975a1.592 1.592 0 0 1-1.571 1.57h-72.286a1.591 1.591 0 0 1-1.571-1.57v-37.712a28.745 28.745 0 0 0 3.388 3.241q13.161 10.116 20.92 16.6 2.5 2.112 4.076 3.29a22.636 22.636 0 0 0 4.247 2.382 12.3 12.3 0 0 0 5.034 1.2h.1a12.3 12.3 0 0 0 5.033-1.2 22.607 22.607 0 0 0 4.249-2.382q1.571-1.179 4.076-3.29 7.759-6.483 20.919-16.6a28.6 28.6 0 0 0 3.387-3.241v37.712zm0-52.151v.54a12.263 12.263 0 0 1-2.283 6.457 23.1 23.1 0 0 1-4.931 5.674q-9.483 7.465-19.7 15.567-.294.245-1.719 1.448t-2.259 1.842q-.836.639-2.185 1.547a13.1 13.1 0 0 1-2.48 1.35 5.834 5.834 0 0 1-2.111.441h-.1a5.835 5.835 0 0 1-2.111-.441 13.082 13.082 0 0 1-2.48-1.35q-1.35-.908-2.185-1.547t-2.259-1.842l-1.719-1.448q-10.214-8.1-19.692-15.567-7.219-5.7-7.219-13.946a1.594 1.594 0 0 1 1.577-1.574h72.286a.852.852 0 0 0 .687.123c.2-.066.344.057.441.368s.188.458.27.442.131.188.148.614l.024.639v.662z" fill="#be9b47"/></svg>