<svg xmlns="http://www.w3.org/2000/svg" viewBox="357 4910 175 175"><path d="M498.11 4953.255l-.074-2.644-2.566-.643a80.293 80.293 0 0 0-17.221-1.965c-12.941-.1-23.806 3.079-31.427 9.2l-1.493 1.2a26.926 26.926 0 0 0-4.788 37.01v13.085a29.692 29.692 0 0 0-3.34-2.854A22.276 22.276 0 0 0 411 4989.937l-1.5.33c-18.606 4.1-28.96 26.163-29.392 27.1L379 5019.77l2.014 1.715c.695.592 15.382 12.918 31.642 12.918a29.762 29.762 0 0 0 6.419-.684l1.5-.33a22.283 22.283 0 0 0 17.092-17.7 39.008 39.008 0 0 1 2.874 4.014v32.856h6.981v-50.578a26.981 26.981 0 0 0 31.528-1.588l1.494-1.2c18.229-14.638 17.601-44.666 17.566-45.938zm-79.04 73.318l-1.5.33c-11.951 2.633-24.812-5.425-29.843-9.056 3.043-5.413 11.325-18.129 23.273-20.763l1.5-.33a15.275 15.275 0 0 1 14.564 4.631c-11.527-1.714-21.895 6.118-27.532 10.376l4.209 5.57c4.922-3.719 14.082-10.641 22.928-8.934a15.1 15.1 0 0 1 4.286 1.545 15.289 15.289 0 0 1-11.885 16.631zm57.1-32.822l-1.494 1.2a19.94 19.94 0 0 1-26.983-1.858c2.565-15.12 19.831-19.466 29.233-21.832l-1.7-6.77c-5.2 1.308-13.059 3.285-20.044 7.492a30.087 30.087 0 0 0-12.187 12.872 19.984 19.984 0 0 1 6.7-21.013l1.493-1.2c7.857-6.309 18.649-7.663 26.46-7.663h.383a78.043 78.043 0 0 1 13.051 1.209 77.98 77.98 0 0 1-1.637 13c-1.645 7.67-5.286 18.15-13.272 24.562z" fill="#be9b47"/><g transform="translate(357 4910)" stroke="#c1a050" stroke-width="7" fill="none"><circle cx="87.5" cy="87.5" r="87.5" stroke="none"/><circle cx="87.5" cy="87.5" r="84"/></g></svg>