<svg xmlns="http://www.w3.org/2000/svg" viewBox="0 0 146 102"><path d="M27.1 91.3v-34h-6.5v14H8v-14H1.6v34H8V77h12.6v14.3zm19.3 0c6.2 0 9.3-3 9.3-7.8v-3.6c0-3.3-1.8-5.6-5-6.3 2.6-1.1 3.8-2.7 3.8-5.5v-3.5c0-4.6-2.6-7.3-9-7.3H32.1v34h14.3zm2.8-8.6c0 2.5-1.2 3.3-4.1 3.3h-6.6v-9.3h7.1c2.6 0 3.6 1.1 3.6 3.4v2.6zm-1.1-14.3c0 2-.9 3.2-3.4 3.2h-6.1v-8.9h6.2c2.3 0 3.4.9 3.4 2.8v2.9zm31.3 13.7c0-6.8-.5-8.3-9.6-10.5-5.9-1.4-6-1.5-6-5.4 0-3 .8-3.9 5.1-3.9 3 0 6.3.4 9.1 1l.7-5.4c-3.4-.8-6.9-1.1-9.9-1.1-8.6 0-11.4 3.1-11.4 9.2 0 7.2 1.1 8.8 9.4 10.6 6.1 1.3 6.2 1.6 6.2 5.4 0 3.3-.8 4.2-5.4 4.2-3.4 0-6.4-.6-9.6-1.6l-1.1 5.1c2.3 1.1 6.7 2 10.6 2 10 .1 11.9-3.2 11.9-9.6zm8.4.7c0-2.2.9-2.9 3.1-2.9.7 0 1.6.1 2.6.3l.2-1.2c-.8-.2-1.9-.4-2.8-.4-3.4 0-4.6 1.6-4.6 4.2v4.3c0 2.6 1.2 4.2 4.6 4.2.8 0 1.9-.1 2.8-.3l-.2-1.2c-1 .2-1.9.2-2.6.2-2.3 0-3.1-.7-3.1-2.8v-4.4zm15-.6c0-2.3-1.2-3.5-4.4-3.5-1.2 0-2.8.2-3.7.5l.2 1.2c1.1-.2 2.4-.4 3.6-.4 2 0 2.9.6 2.9 2.2v2.4h-3.6c-2.4 0-3.6.8-3.6 3.4 0 2.2 1 3.4 3.1 3.4 1.6 0 2.9-.5 4.1-1.2l.1.9h1.2v-8.9zm-1.4 6.6c-1.1.8-2.5 1.2-3.7 1.2-1.7 0-2-.6-2-2.1 0-1.6.5-2.1 2.2-2.1h3.5v3zm-5.3-11.4c1-.5 1.9-1 2.7-1.5.8.5 1.6 1 2.7 1.5l.5-1c-1.2-.7-2.1-1.4-3.2-2.1-1.2.8-2.2 1.5-3.2 2.1l.5 1zm24.7 13.7v-9.7c0-1.7-.7-2.7-2.6-2.7-1.5 0-3.7.7-5.1 1.4-.3-.8-1-1.4-2.3-1.4-1.5 0-3.6.7-4.9 1.4l-.1-1.1h-1.3v12.2h1.5v-9.7c1.5-.8 3.7-1.4 4.7-1.4.8 0 1.3.3 1.3 1.2v9.8h1.5v-9.7c1.5-.8 3.5-1.4 4.7-1.4.8 0 1.3.3 1.3 1.2V91h1.3zm10.7-8.9c0-2.1-1-3.5-3.5-3.5-1.7 0-3 .4-4 .9v-5.8l-1.5.2v16.9c1.1.3 3 .4 4.1.4 3.7 0 4.9-1.6 4.9-4.3v-4.8zm-7.5-1.1c1.1-.6 2.3-1 3.8-1 1.6 0 2.2.7 2.2 2.1v4.9c0 1.8-.6 2.9-3.2 2.9-.9 0-1.8-.1-2.8-.2v-8.7zm10.3 10V78.9h-1.5v12.2h1.5zm0-14.5v-2.7h-1.5v2.7h1.5zM145 86.9v-3.8c0-2.5-1.3-4.4-4.7-4.4s-4.7 1.9-4.7 4.4v3.8c0 2.5 1.3 4.4 4.7 4.4s4.7-1.9 4.7-4.4zm-1.5.1c0 2-1 3.1-3.3 3.1s-3.3-1-3.3-3.1v-4c0-2.1 1-3.1 3.3-3.1s3.3 1 3.3 3.1v4z"/><path d="M86 57.4v-44h44.2v14.5h-29.4v29.5H86m59-29.5v44h-44.2V57.4h29.4V27.9H145" fill="#be9b47"/></svg>