<?xml version="1.0" encoding="utf-8"?>
<!-- Generator: Adobe Illustrator 18.0.0, SVG Export Plug-In . SVG Version: 6.00 Build 0)  -->
<!DOCTYPE svg PUBLIC "-//W3C//DTD SVG 1.1//EN" "http://www.w3.org/Graphics/SVG/1.1/DTD/svg11.dtd">
<svg version="1.1" id="Layer_1" xmlns="http://www.w3.org/2000/svg" xmlns:xlink="http://www.w3.org/1999/xlink" x="0px" y="0px"
	 width="1400px" height="980px" viewBox="0 0 1400 980" enable-background="new 0 0 1400 980" xml:space="preserve">
<g>
	<g>
		<g>
			<path fill="#9D9D9D" d="M827.1,624.3h36.1v56.8c-13.4,0-25.3-8.1-33-20.9h-3.8c-8.9,0-16.2-7.2-16.2-16.2c0-4.5,1.8-8.5,4.7-11.4
				c1.7-1.7,3.8-3,6.2-3.9c0-1-0.1-2-0.1-2.9c0-24.7,12.4-45.6,29.4-52.7c2.5-1,5.1-1.8,7.8-2.2c1.6-0.3,3.3-0.4,5-0.4v6
				c-1.4,0-2.7,0.1-4,0.3c-2.1,0.3-4.2,0.9-6.2,1.7C838.3,584.5,827.5,602.6,827.1,624.3z"/>
		</g>
		<g>
			<path fill="#EEEEEE" d="M863.2,576.6v47.8h-36.1c0.5-21.7,11.3-39.9,25.9-45.7c2-0.8,4.1-1.4,6.2-1.7
				C860.5,576.7,861.8,576.6,863.2,576.6z"/>
		</g>
		<g>
			<g>
				<path fill="#9D9D9D" d="M863.2,543.6v8h-91c-2.2,0-4-1.8-4-4s1.8-4,4-4H863.2z"/>
			</g>
		</g>
		<g>
			<path fill="#616262" d="M863.2,551.6v19c-1.7,0-3.4,0.1-5,0.4c-2.7,0.4-5.3,1.1-7.8,2.2c-0.2-0.8-0.3-1.7-0.3-2.6
				c0-5.4,3.3-10,8-12v-7H863.2z"/>
		</g>
		<g>
			<g>
				<g>
					<path fill="#616262" d="M844.3,682.2L829.6,707c-1.5-1.4-3.3-2.4-5.3-2.9l14.9-25.1h0C840.9,680.2,842.5,681.2,844.3,682.2z"/>
				</g>
			</g>
		</g>
		<g>
			<g>
				<path fill="#9D9D9D" d="M833.8,716.6c0,7.2-5.8,13-13,13s-13-5.8-13-13c0-7.2,5.8-13,13-13c1.2,0,2.4,0.2,3.5,0.5
					c2,0.5,3.8,1.6,5.3,2.9C832.2,709.3,833.8,712.8,833.8,716.6z"/>
			</g>
		</g>
		<g>
			<path fill="#757576" d="M918.6,716.6c0,7.2-5.8,13-13,13c-7.2,0-13-5.8-13-13c0-3.8,1.7-7.3,4.3-9.7c1.5-1.3,3.3-2.4,5.3-2.9
				c1.1-0.3,2.3-0.5,3.5-0.5C912.8,703.5,918.6,709.4,918.6,716.6z"/>
		</g>
		<g>
			<path fill="#434343" d="M902.1,704c-2,0.5-3.8,1.6-5.3,2.9l-14.7-24.8c1.8-1,3.4-2,5.1-3.2L902.1,704z"/>
		</g>
		<g>
			<path fill="#757576" d="M916.2,644.1c0,4.5-1.8,8.5-4.7,11.4c-2.9,2.9-7,4.7-11.4,4.7h-3.8c-7.7,12.7-19.6,20.9-33,20.9v-56.8
				h36.1c-0.5-21.7-11.3-39.9-25.9-45.7c-2-0.8-4.1-1.4-6.2-1.7c-1.3-0.2-2.7-0.3-4-0.3v-6c1.7,0,3.4,0.1,5,0.4
				c2.7,0.4,5.3,1.1,7.8,2.2c17.1,7.1,29.4,28,29.4,52.7c0,1,0,2,0,2.9C911.6,631,916.2,637,916.2,644.1z"/>
		</g>
		<g>
			<path fill="#E0E0E0" d="M899.3,624.3h-36.1v-47.8c1.3,0,2.7,0.1,4,0.3c2.1,0.3,4.2,0.9,6.2,1.7
				C888.1,584.5,898.8,602.6,899.3,624.3z"/>
		</g>
		<g>
			<path fill="#434343" d="M876.2,570.6c0,0.9-0.1,1.8-0.3,2.6c-2.5-1-5.1-1.8-7.8-2.2c-1.6-0.3-3.3-0.4-5-0.4v-19h5v7
				C872.9,560.5,876.2,565.1,876.2,570.6z"/>
		</g>
		<g>
			<path fill="#757576" d="M958.2,547.6c0,2.2-1.8,4-4,4h-91v-8h91C956.4,543.6,958.2,545.3,958.2,547.6z"/>
		</g>
	</g>
	<g>
		<g>
			<g>
				<path fill="#9D9D9D" d="M532.1,548.8v23h-4v-23.4C529.3,548.6,530.7,548.8,532.1,548.8z"/>
			</g>
		</g>
		<g>
			<g>
				<path fill="#9D9D9D" d="M532.1,571.8v6h-9.5v94.5c0,1.7-1.3,3-3,3c-1.7,0-3-1.3-3-3v-97.5c0-1.7,1.3-3,3-3H532.1z"/>
			</g>
		</g>
		<g>
			<g>
				<path fill="#616262" d="M532.1,585.3v155.3c-2.8,0-5-2.2-5-5V590.3C527.1,587.5,529.3,585.3,532.1,585.3z"/>
			</g>
		</g>
		<g>
			<path fill="#EEEEEE" d="M532.1,532.6v16.2c-1.4,0-2.7-0.1-4-0.4c-3.5-0.8-6.4-2.5-7.7-4.8c-0.5-0.9-0.8-1.9-0.8-2.9
				c0-1,0.3-2,0.8-2.9C522.2,534.8,526.7,532.6,532.1,532.6z"/>
		</g>
		<g>
			<g>
				<path fill="#616262" d="M519.6,540.7c0,1,0.3,2,0.8,2.9c-0.3,0.1-0.5,0.1-0.8,0.1h-33.3c-1.7,0-3-1.4-3-3c0-1.7,1.3-3,3-3h33.3
					c0.3,0,0.6,0,0.8,0.1C519.9,538.7,519.6,539.7,519.6,540.7z"/>
			</g>
		</g>
		<g>
			<g>
				<path fill="#616262" d="M513.8,688c0,1.7-1.3,3-3,3h-16.5c-1.7,0-3-1.3-3-3s1.3-3,3-3h16.5C512.5,685,513.8,686.3,513.8,688z"/>
			</g>
		</g>
		<g>
			<path fill="#434343" d="M537.1,590.3v145.3c0,2.8-2.2,5-5,5V585.3C534.8,585.3,537.1,587.5,537.1,590.3z"/>
		</g>
		<g>
			<path fill="#434343" d="M574.1,646c0,1.7-1.3,3-3,3h-16.5c-1.7,0-3-1.3-3-3s1.3-3,3-3h16.5C572.7,643,574.1,644.3,574.1,646z"/>
		</g>
		<g>
			<path fill="#757576" d="M547.6,574.8v97.5c0,1.7-1.3,3-3,3c-1.7,0-3-1.3-3-3v-94.5h-9.5v-6h12.5
				C546.2,571.8,547.6,573.1,547.6,574.8z"/>
		</g>
		<g>
			<path fill="#757576" d="M536.1,548.3v23.4h-4v-23C533.5,548.8,534.8,548.6,536.1,548.3z"/>
		</g>
		<g>
			<path fill="#E0E0E0" d="M544.6,540.7c0,1-0.3,2-0.8,2.9c-1.3,2.2-4.1,4-7.7,4.8c-1.3,0.3-2.6,0.4-4,0.4v-16.2
				c5.3,0,9.9,2.2,11.7,5.2C544.3,538.7,544.6,539.7,544.6,540.7z"/>
		</g>
		<g>
			<path fill="#434343" d="M580.9,540.7c0,1.6-1.3,3-3,3h-33.3c-0.3,0-0.6,0-0.8-0.1c0.5-0.9,0.8-1.9,0.8-2.9c0-1-0.3-2-0.8-2.9
				c0.3-0.1,0.5-0.1,0.8-0.1h33.3C579.6,537.7,580.9,539,580.9,540.7z"/>
		</g>
	</g>
	<g>
		<g>
			<path fill="#757576" d="M1277.9,646.3c-1.1,1.4-2.3,2.7-3.7,3.8c-7.1,5.8-20.1,12.6-43.5,16.5c-12.5,2.1-27.9,3.5-47.1,3.5
				c-9.1,0-17.6-0.3-25.6-0.8c-19.7-1.3-36.4-4.1-50.2-7.5c-17.7-4.3-30.7-9.5-39.6-13.9c-3.5-1.7-6.3-3.3-8.6-4.7
				c5.2,1.4,12,3,20.4,4.6c7.9,1.5,17.1,3,27.9,4.2c20.1,2.4,45.5,4.2,76.6,4.2C1237.5,656.2,1264.4,651.2,1277.9,646.3z"/>
		</g>
		<g>
			<path fill="#E0E0E0" d="M1282.8,632c0,2-0.3,4.1-0.8,6c-0.8,0.5-1.6,0.9-2.5,1.3c-11.5,5-37.4,10.9-94.8,10.9
				c-75.3,0-116.5-10.4-130.7-14.9c-0.1,0-0.1,0-0.2-0.1c-0.3-1.1-0.4-2.2-0.4-3.3H1282.8z"/>
		</g>
		<g>
			<path fill="#434343" d="M1107.9,661.8l-17.5,17.5c-1.7,1.7-4,2.7-6.4,2.7l-6.1,0.1c-5.2,0.1-9.5-4.1-9.5-9.4v-24.9
				C1077.2,652.3,1090.2,657.5,1107.9,661.8z"/>
		</g>
		<g>
			<path fill="#434343" d="M1230.8,666.7v19.5c0,2.9-2.4,5.3-5.3,5.3h-62c-2.9,0-5.3-2.4-5.3-5.3v-16.9c8,0.5,16.6,0.8,25.6,0.8
				C1202.9,670.1,1218.3,668.8,1230.8,666.7z"/>
		</g>
		<g>
			<path fill="#616262" d="M1108,602.1c-17.7,4.3-30.8,9.5-39.7,13.9h0v-25c0-5.2,4.3-9.5,9.5-9.4l6.1,0.1c2.4,0,4.7,1,6.4,2.7
				L1108,602.1z"/>
		</g>
		<g>
			<path fill="#9D9D9D" d="M1277.9,617.5c-13.6-4.8-40.5-9.9-93.2-9.9c-31.1,0-56.5,1.8-76.6,4.2c-10.8,1.3-20.1,2.8-27.9,4.2
				c-8.3,1.6-14.9,3.1-20.1,4.5c2.2-1.3,5-2.8,8.3-4.5h0c8.9-4.4,22-9.6,39.7-13.9c19.5-4.7,44.5-8.3,75.8-8.3
				c55,0,79.6,11.1,90.5,20C1275.6,614.9,1276.8,616.2,1277.9,617.5z"/>
		</g>
		<g>
			<path fill="#EEEEEE" d="M1282.8,632h-229.5c0-1.2,0.2-2.3,0.4-3.4c0.1,0,0.1,0,0.2-0.1c14.2-4.5,55.4-14.9,130.7-14.9
				c57.5,0,83.3,5.9,94.8,10.9c0.9,0.4,1.8,0.8,2.5,1.3C1282.5,627.8,1282.8,629.9,1282.8,632z"/>
		</g>
	</g>
	<g>
		<g>
			<path fill="#757576" d="M214.5,554c-2.6-0.4-4.9-0.6-6.8-0.8c-3.1-0.2-5-0.1-5-0.1s-0.1,0-0.1,0v80.1h3.1v-74.1
				c1.3,0,2.9,0.1,4.9,0.4c5.4,0.6,13.1,2.2,20.2,6.2c13.2,7.3,19.9,20.3,19.9,38.5v29.1h5.6c0.3-3.6,0.4-7.1,0.4-10.7v-18.4
				C256.7,566.4,230.4,556.5,214.5,554z M202.7,639.3h48v14.2c0,5.3-4.4,9.5-9.8,9.5h-23.1c-1.7,6.8-7.8,11.8-15.1,11.8h-0.1v29.3
				h27.6c0.4-0.6,0.8-1.1,1.2-1.7c8-11.4,14.2-23.9,18.5-37c2.8-8.5,4.7-17.3,5.8-26.2h-53.1C202.6,639.3,202.7,639.3,202.7,639.3z"
				/>
		</g>
		<g>
			<polygon fill="#9D9D9D" points="202.7,639.8 202.1,639.8 202.1,638.7 202.7,638.8 202.7,639.3 203.1,639.3 202.7,639.3 			"/>
		</g>
		<g>
			<path fill="#E0E0E0" d="M250.7,604.2v29.1h-45v-74.1c1.3,0,2.9,0.1,4.9,0.4c5.4,0.6,13.1,2.2,20.2,6.2
				C244.1,573,250.7,586,250.7,604.2z"/>
		</g>
		<g>
			<path fill="#434343" d="M250.7,639.3v14.2c0,5.3-4.4,9.5-9.8,9.5h-23.1c0.3-1.2,0.5-2.5,0.5-3.8c0-8.6-7-15.6-15.6-15.6h-0.1
				v-4.4H250.7z"/>
		</g>
		<g>
			<polygon fill="#9D9D9D" points="202.7,639.8 202.1,639.8 202.1,638.7 202.7,638.8 202.7,639.3 203.1,639.3 202.7,639.3 			"/>
		</g>
		<g>
			<g>
				<g>
					<path fill="#434343" d="M252.9,738.9l-4.3,2.5l-21.9-37.3h3.6c0.4-0.6,0.8-1.1,1.2-1.7L252.9,738.9z"/>
				</g>
			</g>
		</g>
		<g>
			<path fill="#E0E0E0" d="M218.3,659.3c0,1.3-0.2,2.6-0.5,3.8c-1.7,6.8-7.8,11.8-15.1,11.8h-0.1v-31.1h0.1
				C211.4,643.7,218.3,650.7,218.3,659.3z"/>
		</g>
		<g>
			<g>
				<g>
					<path fill="#434343" d="M226.6,536.4L214.5,554c-2.6-0.4-4.9-0.6-6.8-0.8l13.9-20.2c0.9-1.4,2.8-1.7,4.2-0.8
						C227.2,533.2,227.5,535.1,226.6,536.4z"/>
				</g>
			</g>
		</g>
		<g>
			<g>
				<path fill="#9D9D9D" d="M202.7,639.3h-0.1v0C202.6,639.3,202.7,639.3,202.7,639.3z"/>
			</g>
		</g>
		<g>
			<path fill="#616262" d="M178.8,704.2l-21.9,37.3l-4.3-2.5l21.4-36.5c0.4,0.6,0.8,1.1,1.2,1.7H178.8z"/>
		</g>
		<g>
			<g>
				<path fill="#9D9D9D" d="M202.6,553.2v80.1h-53.5c-0.3-3.6-0.4-7.1-0.4-10.7v-18.4c0-37.8,26.4-47.6,42.3-50.2
					c2.6-0.4,4.9-0.6,6.8-0.7C200.4,553.1,202.1,553.1,202.6,553.2z"/>
			</g>
			<g>
				<path fill="#9D9D9D" d="M149.8,639.3h52.9v0h-47.9v14.2c0,5.3,4.4,9.5,9.8,9.5h23.1c1.7,6.7,7.7,11.8,15,11.8v29.3h-27.4
					c-0.4-0.6-0.8-1.1-1.2-1.7C160.8,683.7,152.5,662,149.8,639.3z"/>
			</g>
			<g>
				<path fill="#9D9D9D" d="M199.7,559.2v74.1h-45v-29.1c0-18.2,6.7-31.2,19.9-38.5c7.1-3.9,14.8-5.5,20.2-6.1
					C196.8,559.3,198.5,559.2,199.7,559.2z"/>
			</g>
		</g>
		<g>
			<path fill="#616262" d="M197.8,553.3c-1.9,0.1-4.2,0.3-6.8,0.7l-12.1-17.6c-0.9-1.4-0.6-3.2,0.8-4.2c1.4-0.9,3.2-0.6,4.2,0.8
				L197.8,553.3z"/>
		</g>
		<g>
			<path fill="#EEEEEE" d="M199.7,559.2v74.1h-45v-29.1c0-18.2,6.7-31.2,19.9-38.5c7.1-3.9,14.8-5.5,20.2-6.1
				C196.8,559.3,198.5,559.2,199.7,559.2z"/>
		</g>
		<g>
			<path fill="#616262" d="M202.6,639.3v4.4c-8.5,0.1-15.4,7-15.4,15.6c0,1.3,0.2,2.6,0.5,3.8h-23.1c-5.3,0-9.7-4.2-9.8-9.5v-14.2
				H202.6z"/>
		</g>
		<g>
			<path fill="#EEEEEE" d="M202.6,643.7v31.1c-7.2-0.1-13.3-5.1-15-11.8c-0.3-1.2-0.5-2.5-0.5-3.8
				C187.2,650.8,194.1,643.8,202.6,643.7z"/>
		</g>
	</g>
	<g>
		<g>
			<path fill="#EEEEEE" d="M1168,250.6v150.6h-5.6c-0.7-1-1.4-2-2.1-3c-15.2-22.6-21.6-50.7-24.3-70.8c-1.5-11.2-1.7-18.7-1.7-18.7
				c0-27,10-49.8,23.7-57.5C1161.2,250.8,1164.6,250.6,1168,250.6z"/>
		</g>
		<g>
			<path fill="#9D9D9D" d="M1152.2,396.7c-0.6-0.4-1.2-0.8-1.8-1.3c-31.3-22.2-43.8-50.3-48.7-68.3c-3-10.7-3.2-17.8-3.2-17.8
				c0-25.9,19.8-47.9,47.3-55.7c-2.3,2.5-4.4,5.5-6.3,8.8c-7.2,12.4-11.2,28.8-11.2,46.3c0,0.3,0.2,7.9,1.7,19.5
				c2.6,18.8,8.3,44.3,21,66.4C1151.4,395.4,1151.8,396,1152.2,396.7z"/>
		</g>
		<g>
			<g>
				<path fill="#616262" d="M1154.3,398.1v15.1h-2.9c-0.4,0-0.8,0.1-1.1,0.3v-17.3c0-0.3,0.1-0.5,0.2-0.8c0.6,0.4,1.2,0.8,1.8,1.3
					C1152.9,397.2,1153.6,397.7,1154.3,398.1z"/>
			</g>
		</g>
		<g>
			<path fill="#616262" d="M1168,413.2V434h-16.6c-1.3,0-2.4-1.1-2.4-2.4v-16c0-0.9,0.5-1.7,1.3-2.1c0.3-0.2,0.7-0.3,1.1-0.3H1168z"
				/>
		</g>
		<g>
			<path fill="#E0E0E0" d="M1201.7,308.7c0,6.4-0.6,12.6-1.7,18.6l0,0.1c-2.7,20.1-9.2,48.2-24.4,70.8c-0.7,1-1.4,2-2.1,3h-5.6
				V250.6c3.4,0,6.8,0.2,10.1,0.6C1191.8,258.9,1201.7,281.8,1201.7,308.7z"/>
		</g>
		<g>
			<path fill="#757576" d="M1237.6,309.4c0,6.2-1.1,12.2-3.2,17.8c-5,18-17.5,46.3-49.1,68.5c-0.5,0.3-0.9,0.6-1.4,1
				c0.3-0.6,0.7-1.1,1-1.7c12.9-22.2,18.6-47.8,21.2-66.6c1.2-6.3,1.8-12.9,1.8-19.6c0-17.4-4-33.8-11.2-46.2
				c-1.9-3.3-4.1-6.3-6.3-8.8C1217.8,261.6,1237.6,283.5,1237.6,309.4z"/>
		</g>
		<g>
			<path fill="#434343" d="M1185.3,396.2v17.1c-0.2-0.1-0.4-0.1-0.6-0.1h-3.4v-15h0.3c0.8-0.5,1.5-1,2.3-1.6c0.5-0.3,0.9-0.6,1.4-1
				C1185.2,395.9,1185.3,396.1,1185.3,396.2z"/>
		</g>
		<g>
			<path fill="#434343" d="M1187,415.6v16c0,1.3-1.1,2.4-2.4,2.4H1168v-20.8h16.6c0.2,0,0.4,0,0.6,0.1
				C1186.3,413.6,1187,414.5,1187,415.6z"/>
		</g>
	</g>
	<g>
		<g>
			<path fill="#9D9D9D" d="M863.2,282.9v72.8c-11.5,0-20.8,9.4-20.8,20.8v23.7c-13.1-3.2-22.9-15-22.9-29.1v-68.5
				c0-15,11-27.5,25.4-29.6C848.8,279,855.5,282.9,863.2,282.9z"/>
		</g>
		<g>
			<path fill="#EEEEEE" d="M863.2,239.2v43.8c-7.7,0-14.4-3.9-18.3-9.9c-1.7-2.6-2.9-5.5-3.3-8.7c-0.2-1.1-0.2-2.2-0.2-3.3
				c0-1,0.1-2,0.2-2.9C842.9,247.4,852.1,239.2,863.2,239.2z"/>
		</g>
		<g>
			<path fill="#616262" d="M863.2,361.8v83.7c-8.2,0-14.8-6.6-14.8-14.8v-54C848.3,368.4,855,361.8,863.2,361.8z"/>
		</g>
		<g>
			<g>
				<g>
					<path fill="#616262" d="M841.5,264.3l-24.6-5.6c-1.6-0.4-2.6-2-2.3-3.6c0.4-1.6,2-2.6,3.6-2.3l23.3,5.3c-0.1,1-0.2,1.9-0.2,2.9
						C841.3,262.2,841.4,263.2,841.5,264.3z"/>
				</g>
			</g>
		</g>
		<g>
			<path fill="#757576" d="M906.9,302.7v68.5c0,14.1-9.8,26-22.9,29.1v-23.8c0-11.5-9.3-20.8-20.8-20.8v-72.8
				c7.7,0,14.4-3.9,18.3-9.9C895.9,275.2,906.9,287.7,906.9,302.7z"/>
		</g>
		<g>
			<path fill="#434343" d="M878,376.6v54c0,8.2-6.6,14.8-14.8,14.8v-83.7c4.1,0,7.8,1.7,10.5,4.4C876.4,368.8,878,372.5,878,376.6z"
				/>
		</g>
		<g>
			<path fill="#E0E0E0" d="M885.1,261.1c0,1.1-0.1,2.2-0.2,3.3c-0.5,3.2-1.6,6.1-3.3,8.7c-3.9,6-10.6,9.9-18.3,9.9v-43.8
				c11.1,0,20.3,8.3,21.7,19C885,259.1,885.1,260.1,885.1,261.1z"/>
		</g>
		<g>
			<path fill="#434343" d="M909.4,258.7l-24.6,5.6c0.2-1.1,0.2-2.2,0.2-3.3c0-1-0.1-2-0.2-2.9l23.3-5.3c1.6-0.4,3.2,0.6,3.6,2.3
				C912.1,256.8,911,258.4,909.4,258.7z"/>
		</g>
	</g>
	<g>
		<g>
			<path fill="#616262" d="M135.5,305.5c0,2.1-0.7,4-2,5.4c-1.3,1.5-3.1,2.6-5.2,2.9c-0.4,0.1-0.8,0.1-1.2,0.1
				c-4.6,0-8.4-3.8-8.4-8.4c0-4.6,3.8-8.4,8.4-8.4C131.7,297.1,135.5,300.9,135.5,305.5z"/>
		</g>
		<g>
			<path fill="#616262" d="M149.7,377.4v20.9c0,5.4-4.3,9.7-9.7,9.7s-9.7-4.3-9.7-9.7v-20.9H149.7z"/>
		</g>
		<g>
			<path fill="#9D9D9D" d="M202.7,370.4v7h-72.4l-6.9-6.9c0,0-0.1-0.1-0.1-0.1H202.7z"/>
		</g>
		<g>
			<path fill="#9D9D9D" d="M177.2,335.9h25.5v-19h-67.8c-0.6,0.7-1.3,1.3-2,2l-9,8.5c-4.3,4-6.7,9.6-6.7,15.5v12.7
				c0,3.1,0.7,6.1,1.9,8.9h83.6v-2.8h-25.5c-7.1,0-12.8-5.8-12.8-12.8c0-3.5,1.4-6.8,3.8-9.1C170.5,337.3,173.7,335.9,177.2,335.9z
				 M143.2,361.6c-7.1,0-12.8-5.8-12.8-12.8c0-7.1,5.7-12.8,12.8-12.8c7.1,0,12.8,5.8,12.8,12.8
				C156.1,355.8,150.3,361.6,143.2,361.6z"/>
		</g>
		<g>
			<path fill="#EEEEEE" d="M156.1,348.7c0,7.1-5.7,12.8-12.8,12.8c-7.1,0-12.8-5.8-12.8-12.8c0-7.1,5.7-12.8,12.8-12.8
				C150.3,335.9,156.1,341.6,156.1,348.7z"/>
		</g>
		<g>
			<path fill="#616262" d="M202.7,335.9v25.7h-25.5c-7.1,0-12.8-5.8-12.8-12.8c0-3.5,1.4-6.8,3.8-9.1c2.3-2.3,5.5-3.8,9.1-3.8H202.7
				z"/>
		</g>
		<g>
			<path fill="#9D9D9D" d="M148.9,307.4c-0.5,1.3,0.4,2.7,1.8,2.7h52v0.8h-63.3c1.6-2.6,2.9-5.5,3.8-8.4l5.9-19c1.3-4.1,5.1-7,9.4-7
				h44.2v7h-41.4c-2.9,0-5.5,1.9-6.4,4.7l-5.1,16.3C149.6,305.5,149.3,306.5,148.9,307.4z"/>
		</g>
		<g>
			<path fill="#EEEEEE" d="M202.7,283.6v26.6h-52c-1.4,0-2.3-1.4-1.8-2.7c0.4-0.9,0.7-1.9,1-2.8l5.1-16.3c0.9-2.8,3.5-4.7,6.4-4.7
				H202.7z"/>
		</g>
		<g>
			<path fill="#434343" d="M275.2,377.4v20.9c0,5.4-4.3,9.7-9.7,9.7s-9.7-4.3-9.7-9.7v-20.9H275.2z"/>
		</g>
		<g>
			<path fill="#9D9D9D" d="M282.2,370.4c0,0-0.1,0.1-0.1,0.1l-6.9,6.9h-72.4v-7H282.2z"/>
		</g>
		<g>
			<path fill="#757576" d="M281.6,327.4l-9-8.5c-0.7-0.6-1.3-1.3-1.9-2h-67.8v19h25.5c7.1,0,12.8,5.8,12.8,12.8
				c0,3.5-1.4,6.8-3.8,9.1c-2.3,2.3-5.5,3.8-9.1,3.8h-25.5v2.8h83.6c1.3-2.8,1.9-5.8,1.9-8.9v-12.7
				C288.2,337,285.8,331.4,281.6,327.4z M262.2,361.6c-7.1,0-12.8-5.8-12.8-12.8c0-7.1,5.7-12.8,12.8-12.8c7.1,0,12.8,5.8,12.8,12.8
				C275.1,355.8,269.3,361.6,262.2,361.6z"/>
		</g>
		<g>
			<path fill="#434343" d="M241.1,348.7c0,3.5-1.4,6.8-3.8,9.1c-2.3,2.3-5.5,3.8-9.1,3.8h-25.5v-25.7h25.5
				C235.3,335.9,241.1,341.6,241.1,348.7z"/>
		</g>
		<g>
			<path fill="#E0E0E0" d="M275.1,348.7c0,7.1-5.7,12.8-12.8,12.8c-7.1,0-12.8-5.8-12.8-12.8c0-7.1,5.7-12.8,12.8-12.8
				C269.3,335.9,275.1,341.6,275.1,348.7z"/>
		</g>
		<g>
			<path fill="#434343" d="M286.9,305.5c0,4.6-3.8,8.4-8.4,8.4c-1.8,0-3.5-0.6-4.9-1.6c-0.6-0.4-1.1-0.9-1.6-1.4
				c-1.2-1.5-2-3.4-2-5.4c0-4.6,3.8-8.4,8.4-8.4C283.1,297.1,286.9,300.9,286.9,305.5z"/>
		</g>
		<g>
			<path fill="#757576" d="M266.1,310.9h-63.3v-0.8h52c1.4,0,2.3-1.4,1.8-2.7c-0.4-0.9-0.7-1.9-1-2.8l-5.1-16.3
				c-0.9-2.8-3.5-4.7-6.4-4.7h-41.4v-7H247c4.3,0,8.2,2.8,9.5,7l5.9,19C263.2,305.5,264.5,308.3,266.1,310.9z"/>
		</g>
		<g>
			<path fill="#E0E0E0" d="M254.7,310.1h-52v-26.6h41.4c2.9,0,5.5,1.9,6.4,4.7l5.1,16.3c0.3,1,0.6,1.9,1,2.8
				C257.1,308.7,256.2,310.1,254.7,310.1z"/>
		</g>
	</g>
	<g>
		<g>
			<path fill="#616262" d="M532.3,238.6v42h-44.5c-11.4,0-20.8,9.3-20.8,20.8v25.5c0,6.1,2.6,11.7,7.1,15.6c-0.3,0.3-0.7,0.5-1,0.8
				c-0.2,0.2-0.4,0.3-0.6,0.5c0,0,0,0,0,0c-0.1,0.1-0.1,0.1-0.2,0.2c-0.2,0.2-0.4,0.4-0.5,0.5c-0.1,0.1-0.2,0.2-0.3,0.4
				c-0.3,0.3-0.5,0.5-0.8,0.8c0,0,0,0,0,0c-0.3,0.3-0.5,0.6-0.7,0.9c-0.3,0.3-0.5,0.6-0.7,1c-0.2,0.3-0.4,0.6-0.7,1
				c-0.2,0.3-0.4,0.6-0.6,1c0,0,0,0,0,0c-0.2,0.3-0.4,0.7-0.6,1s-0.3,0.7-0.5,1c0,0,0,0,0,0c-0.2,0.4-0.3,0.7-0.5,1.1
				c-0.1,0.4-0.3,0.7-0.4,1.1c-0.1,0.3-0.2,0.6-0.3,0.9c-0.1,0.2-0.1,0.3-0.2,0.5c-0.1,0.3-0.2,0.6-0.2,0.9
				c-0.1,0.4-0.2,0.8-0.2,1.2c0,0.1,0,0.3-0.1,0.4c0,0.3-0.1,0.5-0.1,0.8c-1,7.5-1.8,18.8-2,35.7c-9.3-6.2-15.4-16.8-15.4-28.8v-92
				c0-19.2,15.6-34.8,34.8-34.8H532.3z"/>
		</g>
		<g>
			<path fill="#616262" d="M497.6,430.7v2.8c0,6.9-5.6,12.5-12.5,12.5c-6.9,0-12.5-5.6-12.5-12.5V429c2,1.1,4.3,1.7,7.2,1.7H497.6z"
				/>
		</g>
		<g>
			<path fill="#9D9D9D" d="M510.3,415.1h22v-67.5h-44.5c-4.1,0-8-1.2-11.4-3.4c-0.8-0.5-1.6-1.1-2.3-1.7c-0.3,0.3-0.7,0.5-1,0.8
				c-0.2,0.2-0.4,0.3-0.6,0.5c0,0,0,0,0,0c-0.1,0.1-0.1,0.1-0.2,0.2c-0.2,0.2-0.4,0.4-0.5,0.5c-0.1,0.1-0.2,0.2-0.3,0.4
				c-0.3,0.3-0.5,0.5-0.8,0.8c0,0,0,0,0,0c-0.3,0.3-0.5,0.6-0.7,0.9c-0.3,0.3-0.5,0.6-0.7,1c-0.2,0.3-0.4,0.6-0.7,1
				c-0.2,0.3-0.4,0.6-0.6,1c0,0,0,0,0,0c-0.2,0.3-0.4,0.7-0.6,1s-0.3,0.7-0.5,1c0,0,0,0,0,0c-0.2,0.4-0.3,0.7-0.5,1.1
				c-0.1,0.4-0.3,0.7-0.4,1.1c-0.1,0.3-0.2,0.6-0.3,0.9c-0.1,0.2-0.1,0.3-0.2,0.5c-0.1,0.3-0.2,0.6-0.2,0.9
				c-0.1,0.4-0.2,0.8-0.2,1.2c0,0.1,0,0.3-0.1,0.4c0,0.3-0.1,0.5-0.1,0.8c-1,7.5-1.8,18.8-2,35.7c0,2.5,0,5.1,0,7.9
				c0,0-1.7,20.8,9.7,27c2,1.1,4.3,1.7,7.2,1.7h17.8c17,0,34.8,0,34.8,0v-5h-22c-3,0-5.3-2.4-5.3-5.3c0-1.5,0.6-2.8,1.6-3.8
				C507.5,415.7,508.9,415.1,510.3,415.1z M483.9,397.7c-5.9,0-10.7-4.8-10.7-10.7s4.8-10.7,10.7-10.7s10.7,4.8,10.7,10.7
				S489.8,397.7,483.9,397.7z"/>
		</g>
		<g>
			<path fill="#EEEEEE" d="M494.6,387.1c0,5.9-4.8,10.7-10.7,10.7s-10.7-4.8-10.7-10.7s4.8-10.7,10.7-10.7S494.6,381.2,494.6,387.1z
				"/>
		</g>
		<g>
			<path fill="#FFFAFA" d="M592.1,429v4.5c0,6.9-5.6,12.5-12.5,12.5c-6.9,0-12.5-5.6-12.5-12.5v-2.8h17.8
				C587.7,430.7,590.1,430.1,592.1,429z"/>
		</g>
		<g>
			<path fill="#616262" d="M532.3,415.1v10.7h-22c-3,0-5.3-2.4-5.3-5.3c0-1.5,0.6-2.8,1.6-3.8c1-1,2.3-1.6,3.8-1.6H532.3z"/>
		</g>
		<g>
			<path fill="#434343" d="M592.1,429v4.5c0,6.9-5.6,12.5-12.5,12.5c-6.9,0-12.5-5.6-12.5-12.5v-2.8h17.8
				C587.7,430.7,590.1,430.1,592.1,429z"/>
		</g>
		<g>
			<path fill="#434343" d="M559.7,420.4c0,1.5-0.6,2.8-1.6,3.8c-1,1-2.3,1.6-3.8,1.6h-22v-10.7h22
				C557.3,415.1,559.7,417.4,559.7,420.4z"/>
		</g>
		<g>
			<path fill="#434343" d="M616.6,273.3v92c0,11.8-5.9,22.2-14.9,28.5c-0.2-16.7-1-27.9-2-35.3c-0.8-6.4-4.2-12.2-9.2-16.1
				c4.5-3.9,7.1-9.6,7.1-15.6v-25.5c0-11.4-9.3-20.8-20.8-20.8h-44.5v-42h49.5C601,238.6,616.6,254.1,616.6,273.3z"/>
		</g>
		<g>
			<path fill="#9D9D9D" d="M473.1,301.3v25.5c0,5.2,2.7,9.7,6.7,12.3c2.3,1.5,5.1,2.4,8.1,2.4h44.5v6h-44.5c-4.1,0-8-1.2-11.4-3.4
				c-0.8-0.5-1.6-1.1-2.3-1.7c-4.5-3.9-7.1-9.6-7.1-15.6v-25.5c0-11.4,9.3-20.8,20.8-20.8h44.5v6h-44.5
				C479.7,286.6,473.1,293.2,473.1,301.3z"/>
		</g>
		<g>
			<path fill="#E0E0E0" d="M591.6,301.3v25.5c0,5.2-2.6,9.7-6.7,12.3c-2.3,1.5-5.1,2.4-8.1,2.4h-44.5v-55h44.5
				C585,286.6,591.6,293.2,591.6,301.3z"/>
		</g>
		<g>
			<path fill="#EEEEEE" d="M532.3,286.6v55h-44.5c-3,0-5.8-0.9-8.1-2.4c-4-2.6-6.7-7.2-6.7-12.3v-25.5c0-8.1,6.6-14.8,14.8-14.8
				H532.3z"/>
		</g>
		<g>
			<path fill="#757576" d="M597.6,301.3v25.5c0,6.1-2.6,11.7-7.1,15.6c-0.7,0.6-1.5,1.2-2.3,1.7c-3.3,2.2-7.3,3.4-11.4,3.4h-44.5v-6
				h44.5c3,0,5.8-0.9,8.1-2.4c4-2.6,6.7-7.2,6.7-12.3v-25.5c0-8.1-6.6-14.8-14.8-14.8h-44.5v-6h44.5
				C588.3,280.6,597.6,289.9,597.6,301.3z"/>
		</g>
		<g>
			<path fill="#757576" d="M601.8,402.1c0-2.9,0-5.6-0.1-8.3c-0.2-16.7-1-27.9-2-35.3c-0.8-6.4-4.2-12.2-9.2-16.1
				c-0.7,0.6-1.5,1.2-2.3,1.7c-3.3,2.2-7.3,3.4-11.4,3.4h-44.5v67.5h22c3,0,5.3,2.4,5.3,5.3c0,1.5-0.6,2.8-1.6,3.8
				c-1,1-2.3,1.6-3.8,1.6h-22v5c0,0,17.7,0,34.8,0h17.8c2.8,0,5.2-0.6,7.2-1.7C603.4,422.9,601.8,402.1,601.8,402.1z M580.8,397.7
				c-5.9,0-10.7-4.8-10.7-10.7s4.8-10.7,10.7-10.7c5.9,0,10.7,4.8,10.7,10.7S586.6,397.7,580.8,397.7z"/>
		</g>
		<g>
			<path fill="#E0E0E0" d="M591.4,387.1c0,5.9-4.8,10.7-10.7,10.7c-5.9,0-10.7-4.8-10.7-10.7s4.8-10.7,10.7-10.7
				C586.6,376.4,591.4,381.2,591.4,387.1z"/>
		</g>
	</g>
</g>
</svg>
