<?xml version="1.0" encoding="iso-8859-1"?>
<!-- Generator: Adobe Illustrator 19.0.0, SVG Export Plug-In . SVG Version: 6.00 Build 0)  -->
<svg version="1.1" id="Capa_1" xmlns="http://www.w3.org/2000/svg" xmlns:xlink="http://www.w3.org/1999/xlink" x="0px" y="0px"
	 viewBox="0 0 376.076 376.076" style="enable-background:new 0 0 376.076 376.076;" xml:space="preserve">
<g>
	<g>
		<path d="M266.611,0.076h-158.32c-13.946-0.758-27.602,4.179-37.84,13.68c-9.859,10.682-14.918,24.933-14,39.44v269.76
			c0,39.12,27.44,53.12,53.12,53.12h157.04c39.12,0,53.12-27.44,53.12-53.12V53.116C319.731,13.996,292.291,0.076,266.611,0.076z
			 M307.651,322.956c0.08,12.32-4,41.12-41.04,41.12h-157.04c-12.32,0-41.12-4-41.12-41.12v-32h239.2V322.956z M307.651,279.116
			h-239.2V69.836h239.2V279.116z M307.731,57.916H68.451v-4.72c-0.827-11.287,2.954-22.428,10.48-30.88
			c8.172-7.329,18.971-11.025,29.92-10.24h157.76c12.32,0,41.12,4,41.12,41.12V57.916z"/>
	</g>
</g>
<g>
	<g>
		<path d="M207.011,29.356h-37.6c-3.314,0-6,2.686-6,6c0,3.314,2.686,6,6,6h37.6c3.314,0,6-2.686,6-6
			C213.011,32.042,210.325,29.356,207.011,29.356z"/>
	</g>
</g>
<g>
	<g>
		<path d="M188.051,302.316c-14.536,0.044-26.284,11.864-26.24,26.4s11.864,26.284,26.4,26.24
			c14.474-0.044,26.196-11.766,26.24-26.24C214.451,314.136,202.631,302.316,188.051,302.316z M188.051,342.956
			C188.051,342.956,188.051,342.956,188.051,342.956l0,0.08c-7.909-0.044-14.284-6.491-14.24-14.4
			c0.044-7.909,6.491-14.284,14.4-14.24c7.877,0.044,14.24,6.442,14.24,14.32C202.407,336.625,195.96,343,188.051,342.956z"/>
	</g>
</g>
<g>
</g>
<g>
</g>
<g>
</g>
<g>
</g>
<g>
</g>
<g>
</g>
<g>
</g>
<g>
</g>
<g>
</g>
<g>
</g>
<g>
</g>
<g>
</g>
<g>
</g>
<g>
</g>
<g>
</g>
</svg>
