<?xml version="1.0" encoding="utf-8"?>
<!-- Generator: Adobe Illustrator 16.0.0, SVG Export Plug-In . SVG Version: 6.00 Build 0)  -->
<!DOCTYPE svg PUBLIC "-//W3C//DTD SVG 1.1//EN" "http://www.w3.org/Graphics/SVG/1.1/DTD/svg11.dtd">
<svg version="1.1" id="Layer_1" xmlns="http://www.w3.org/2000/svg" xmlns:xlink="http://www.w3.org/1999/xlink" x="0px" y="0px"
	 width="1400px" height="1400px" viewBox="0 0 1400 1400" enable-background="new 0 0 1400 1400" xml:space="preserve">
<g>
	<rect x="0" y="0" fill="#FB8084" width="1400" height="1400"/>
	<path fill="#E07276" d="M1260.9,749c0,302.4-245.2,547.6-547.6,547.6c-302.4,0-547.6-245.2-547.6-547.6
		c0-302.4,245.2-547.6,547.6-547.6C1015.8,201.4,1260.9,446.6,1260.9,749z"/>
	<path fill="#FFE5EC" d="M703.4,1158.6c253.3,0,458.6-205.3,458.6-458.6c0-14-0.7-27.8-1.9-41.4c-45.1-205.9-228.5-360-447.9-360
		c-253.3,0-458.6,205.3-458.6,458.6c0,14,0.7,27.8,1.9,41.4C300.5,1004.4,483.9,1158.6,703.4,1158.6z"/>
	<path fill="#00A7E6" d="M916.9,488.2c1-2.9,1.6-6.1,1.6-9.3c0-16-13-29-29-29c-3.1,0-6,0.5-8.8,1.4c-3.3-24.4-24.1-43.2-49.5-43.2
		c-25.6,0-46.6,19.2-49.6,44c-13,2-23,13.3-23,26.9c0,3.3,0.6,6.4,1.7,9.3H916.9z"/>
	<path fill="#E6CCD3" d="M712.1,298.5c219.4,0,402.8,154.1,447.9,360c-20.9-233.9-217.4-417.2-456.7-417.2
		c-253.3,0-458.6,205.3-458.6,458.6c0,33.8,3.7,66.8,10.7,98.5c-1.2-13.6-1.9-27.5-1.9-41.4C253.6,503.9,458.9,298.5,712.1,298.5z"
		/>
	<path fill="#E66366" d="M768.6,650c-19.3-15.6-42.2-26.1-66.3-30.9c6.4,15.3,9.9,32.1,9.9,49.8c0,71.8-58.2,129.9-130,129.9
		c-7.8,0-15.5-0.7-22.9-2.1l61.4,106.4c0.4,0.7,1.1,1.1,1.9,1.1c0.8,0,1.5-0.4,1.9-1.1l144.5-250.3C769.7,652,769.4,650.7,768.6,650
		z"/>
	<path fill="#FB6C70" d="M712.1,669c0-17.6-3.5-34.4-9.9-49.8c-9.7-1.9-19.6-2.9-29.5-2.9c-71.4,0-132.7,48.5-148.9,118
		c-0.1,0.6,0,1.1,0.2,1.6l35.2,60.9c7.4,1.3,15.1,2.1,22.9,2.1C654,798.9,712.1,740.7,712.1,669z"/>
	<g>
		<defs>
			<path id="SVGID_1_" d="M1232.6,706c0,289.8-235,524.8-524.8,524.8c-289.8,0-524.8-235-524.8-524.8c0-289.8,235-524.8,524.8-524.8
				C997.6,181.2,1232.6,416.2,1232.6,706z"/>
		</defs>
		<clipPath id="SVGID_2_">
			<use xlink:href="#SVGID_1_"  overflow="visible"/>
		</clipPath>
		<g clip-path="url(#SVGID_2_)">
			<path fill="#755A5E" d="M780,1169L508.3,699.6c-0.3-0.6-1-1-1.6-1.1c-0.7-0.1-1.4,0.1-1.9,0.6l-25.2,25.2l-27.1-27.1
				c-0.5-0.5-1.1-0.7-1.7-0.7c-0.6,0.1-1.2,0.4-1.6,0.9l118.3,455.6l210.6,19.3c0.8,0,1.5-0.4,1.9-1.1
				C780.4,1170.6,780.4,1169.7,780,1169z"/>
			<path fill="#89696E" d="M417.2,740.6c-3.4-5.1-11.8-16.4-31.6-43.2c-0.4-0.5-1-0.9-1.6-0.9c-0.6-0.1-1.3,0.2-1.7,0.7l-27.1,27.1
				L330,699.1c-0.5-0.5-1.2-0.7-1.9-0.6c-0.7,0.1-1.3,0.5-1.6,1.1L91.7,1106.3c-0.4,0.7-0.4,1.5,0,2.2c0.4,0.7,1.1,1.1,1.9,1.1
				l473.8,43.4L449.1,697.5L417.2,740.6z"/>
		</g>
		<g clip-path="url(#SVGID_2_)">
			<path fill="#786189" d="M949.2,595.2c-0.1,0.1-0.3,0.2-0.4,0.4L908.6,650c-2.6-3.8-8.1-11.2-19.1-26.1l-20.9-28.4
				c-0.4-0.5-1-0.8-1.6-0.9c-0.6-0.1-1.3,0.2-1.7,0.6l-34.2,34.2l-31.9-31.8c-0.5-0.5-1.2-0.7-1.9-0.6c-0.7,0.1-1.3,0.5-1.6,1.1
				L620.7,901c-0.4,0.7-0.4,1.5,0,2.2l155.4,268c0.4,0.7,1.1,1.1,1.9,1.1l332.7-39l-158.1-523L949.2,595.2z"/>
			<path fill="#665275" d="M1315.1,1106.3l-293.4-508.1c-0.3-0.6-1-1-1.6-1.1c-0.7-0.1-1.4,0.1-1.9,0.6l-31.8,31.9l-34.2-34.2
				c-0.5-0.5-1.1-0.7-1.7-0.6c-0.5,0-0.9,0.2-1.2,0.5l3.5,15.2l158.1,523l202.4-23.7c0.8,0,1.5-0.4,1.9-1.1
				C1315.5,1107.8,1315.5,1107,1315.1,1106.3z"/>
		</g>
		<g clip-path="url(#SVGID_2_)">
			<path fill="#FFFFFF" d="M795.6,598.2c-0.5,0.9-0.4,2,0.4,2.7l33.4,33.4c0.9,0.9,2.3,0.9,3.2,0l34-34c7.5,10.2,40,54.2,40.4,54.7
				c0.4,0.6,1.1,0.9,1.8,0.9c0,0,0,0,0,0c0.7,0,1.4-0.3,1.8-0.9l40-54.2l-44.6-193.6L795.6,598.2z"/>
			<path fill="#E6E6E6" d="M984.8,634.3c0.9,0.9,2.3,0.9,3.2,0l33.4-33.4c0.7-0.7,0.9-1.8,0.4-2.7L910.6,405.6
				c-0.8-1.4-3.1-1.4-3.9,0l-0.9,1.5l44.6,193.6l0.3-0.5L984.8,634.3z"/>
		</g>
		<g clip-path="url(#SVGID_2_)">
			<path fill="#E6E6E6" d="M450.6,703l0.6-0.8L478,729c0.8,0.8,2.3,0.8,3.2,0l26.8-26.8c0.7-0.7,0.9-1.8,0.4-2.7l-89-154.1
				c-0.8-1.3-2.8-1.3-3.7-0.2l33.5,152.1L450.6,703z"/>
			<path fill="#FFFFFF" d="M449.1,697.5l-33.5-152.1c0,0.1-0.1,0.1-0.2,0.2l-89,154.1c-0.5,0.9-0.4,2,0.4,2.7l26.8,26.8
				c0.9,0.9,2.3,0.9,3.2,0l26.8-26.8c6.5,8.9,31.6,42.9,32,43.3c0.4,0.6,1.1,0.9,1.8,0.9c0,0,0,0,0,0c0.7,0,1.4-0.3,1.8-0.9
				l31.4-42.5L449.1,697.5z"/>
		</g>
		<g clip-path="url(#SVGID_2_)">
			<path fill="#00A85E" d="M1167.5,1102.8c0.3-0.7,0.2-1.6-0.4-2.2c-37.2-40.1-78.8-75.1-123.8-104.7c2.9-16.1,2-32.8-2.9-48.9
				c-8.1-26.8-26.1-48.8-50.8-62c-44.8-23.9-99.3-12-130.3,25.9c0,0,12,5.6,30,18.3c10.1-7.8,22.8-12.5,36.5-12.5
				c33.1,0,60,26.9,60,60c0,13.8-4.7,26.5-12.6,36.7c26.4,37.2,50.5,85.8,63.1,147.9h162.8C1166.4,1104,1167.2,1103.5,1167.5,1102.8
				z"/>
			<path fill="#00A85E" d="M576.2,890.5c0,0,16-2.3,38.6-4.5c-39.6-54.1-107-82.4-174-71.9C469.2,819.4,533.6,837.1,576.2,890.5z"/>
			<path fill="#00B767" d="M973.3,1013.3c7.9-10.1,12.6-22.8,12.6-36.7c0-33.1-26.9-60-60-60c-13.8,0-26.4,4.7-36.5,12.5
				c-18-12.6-30-18.3-30-18.3c-60.8-17.7-124.3-27-188.6-27c-18.7,0-37.3,0.8-55.7,2.3c-0.1-0.1-0.1-0.2-0.2-0.3
				c-22.6,2.3-38.6,4.5-38.6,4.5c-42.6-53.4-107-71-135.4-76.4c-11.3,1.8-22.6,4.6-33.8,8.7C330.4,850.5,284,925,288.2,1002.5
				c-41.2,28.2-79.5,61-113.9,98.1c-0.6,0.6-0.7,1.5-0.4,2.2c0.3,0.7,1.1,1.2,35.5,58.5h827
				C1023.8,1099.1,999.8,1050.5,973.3,1013.3z"/>
		</g>
		<g clip-path="url(#SVGID_2_)">
			<path fill="#00A85E" d="M912.6,1157.7C894,1058.5,807,983.5,702.4,983.5c-104.6,0-191.6,75.1-210.2,174.3
				C577.2,1190,741,1230.7,912.6,1157.7z"/>
		</g>
	</g>
	<g>
		<polygon fill="#6D6C68" points="604.5,473.3 586.1,473.3 609.4,483.2 632.7,500.8 632.7,483.9 		"/>
		<polygon fill="#545451" points="660.9,473.3 632.7,483.9 632.7,500.8 656,483.2 679.3,473.3 		"/>
	</g>
	<g>
		<polygon fill="#6D6C68" points="694.4,526.9 682.2,526.9 697.7,533.5 713.3,545.3 713.3,534 		"/>
		<polygon fill="#545451" points="732.2,526.9 713.3,534 713.3,545.3 728.9,533.5 744.5,526.9 		"/>
	</g>
	<g>
		<polygon fill="#6D6C68" points="536.1,576.2 523.8,576.2 539.4,582.8 555,594.6 555,583.3 		"/>
		<polygon fill="#545451" points="573.8,576.2 555,583.3 555,594.6 570.5,582.8 586.1,576.2 		"/>
	</g>
	<path fill="#00A7E6" d="M493,417.5c0-0.2,0-0.3,0-0.5c0-8.5,6.9-15.5,15.5-15.5c1.8,0,3.5,0.4,5.2,0.9
		c3.7-10.2,13.4-17.6,24.9-17.6c3.1,0,6.1,0.6,8.9,1.5c3.3-21.5,21.8-38,44.2-38c24.7,0,44.8,20,44.8,44.8c0,0,0,0.1,0,0.1
		c0.6,0,1.1-0.1,1.7-0.1c13.9,0,25.3,10.7,26.4,24.3H493z"/>
	<path fill="#FFFFFF" d="M703.4,152.4C401,152.4,155.8,397.6,155.8,700c0,302.4,245.2,547.6,547.6,547.6S1251,1002.4,1251,700
		C1251,397.6,1005.8,152.4,703.4,152.4z M703.4,1158.6c-253.3,0-458.6-205.3-458.6-458.6c0-253.3,205.3-458.6,458.6-458.6
		c253.3,0,458.6,205.3,458.6,458.6C1162,953.3,956.6,1158.6,703.4,1158.6z"/>
	<path fill="#00B1F5" d="M1353.9,526.8c0.8-2.7,1.3-5.6,1.3-8.6c0-16.1-13-29.1-29.1-29.1c-10.1,0-18.9,5.1-24.1,12.9
		c-8.2-17.7-26.1-30.1-46.9-30.1c-20.2,0-37.6,11.6-46.1,28.4c-5.6-40.4-40.1-71.5-82-71.5c-22.1,0-42.1,8.7-56.9,22.7
		c-4.8-13.9-18-23.8-33.5-23.8c-19.6,0-35.5,15.9-35.5,35.5c0,4.1,0.7,8,2,11.7c-20,7.1-34.3,26.2-34.3,48.6c0,1.1,0.1,2.2,0.2,3.2
		H1353.9z"/>
	<path fill="#00B1F5" d="M430.9,508.5c3.2-7,5-14.7,5-22.9c0-30.3-24.6-54.9-54.9-54.9c-5.9,0-11.7,1-17,2.7
		c-10-35.3-42.4-61.1-80.9-61.1c-43.5,0-79.3,33-83.7,75.4c-4-1-8.2-1.6-12.5-1.6c-16.9,0-31.8,8.2-41.2,20.7
		c-7.9-7.9-18.8-12.8-30.9-12.8c-24.1,0-43.7,19.5-43.7,43.7c0,3.8,0.5,7.4,1.4,10.9H430.9z"/>
</g>
</svg>
