<?xml version="1.0" encoding="UTF-8" standalone="no"?>
<svg style="enable-background:new 0 0 432 432" xmlns="http://www.w3.org/2000/svg" xml:space="preserve" viewBox="0 0 432 432" version="1.1" y="0px" x="0px">
<style type="text/css">
	.st0{fill:#591C00;}
	.st1{fill:#999999;}
	.st2{fill:#FCC062;}
	.st3{fill:#DA7D81;}
	.st4{fill:#C1272D;}
	.st5{fill:#1A1A1A;}
	.st6{fill:#736357;}
	.st7{fill:#8D819B;}
	.st8{fill:#BF7F99;}
	.st9{fill:#881B30;}
	.st10{fill:#A58B66;}
	.st11{fill:#781F00;}
	.st12{fill:#852A00;}
	.st13{fill:#AD8C52;}
	.st14{fill:#859660;}
	.st15{fill:#D3AB99;}
	.st16{fill:#A12E37;}
	.st17{fill:#8F8279;}
	.st18{fill:#758295;}
	.st19{fill:#60373C;}
	.st20{fill:#EFD333;}
	.st21{fill:#CE74B4;}
	.st22{fill:#313E2B;}
	.st23{fill:#5A1700;}
	.st24{fill:#BC79A7;}
	.st25{fill:#877F9A;}
	.st26{fill:#CC8FC1;}
	.st27{fill:#333333;}
	.st28{fill:#C3CD84;}
	.st29{fill:#7E97A5;}
	.st30{fill:#627C55;}
	.st31{fill:#B3B3B3;}
	.st32{fill:#AD3642;}
	.st33{fill:#2A7893;}
	.st34{fill:#669AB4;}
	.st35{fill:#AF689C;}
	.st36{fill:#6EA892;}
	.st37{fill:#663D2C;}
	.st38{fill:#BBBA2A;}
	.st39{fill:#A09830;}
	.st40{fill:#799D7D;}
	.st41{fill:#C69C6D;}
	.st42{fill:#BC79AD;}
	.st43{fill:#BC8A70;}
	.st44{fill:#ADADAD;}
	.st45{fill:#606981;}
	.st46{fill:#4D4D4D;}
	.st47{fill:#70BEB2;}
	.st48{fill:#11937F;}
	.st49{fill:#C78287;}
	.st50{fill:#944F54;}
	.st51{fill:#534741;}
	.st52{fill:#D6A354;}
	.st53{fill:#E7AC22;}
	.st54{fill:#89BBA2;}
	.st55{fill:#BF4D28;}
	.st56{fill:#88382D;}
	.st57{fill:#D86C62;}
	.st58{fill:#B57C53;}
	.st59{fill:#E6C34F;}
	.st60{fill:#A0392B;}
	.st61{fill:#FFFFFF;}
	.st62{fill:#AD7460;}
	.st63{fill:#939E9E;}
	.st64{fill:#2E4DA7;}
	.st65{fill:#39B54A;}
	.st66{fill:#D1417E;}
	.st67{fill:#FD8402;}
	.st68{fill:#727D6D;}
	.st69{fill:#BAAC91;}
	.st70{fill:#3F4650;}
	.st71{fill:#653F34;}
	.st72{fill:#3F3C35;}
	.st73{fill:#A84A5C;}
	.st74{fill:#3B5347;}
	.st75{fill:#854B16;}
	.st76{fill:#5B6F69;}
	.st77{fill:#767094;}
	.st78{fill:#08B19A;}
	.st79{fill:#AAB1A7;}
	.st80{fill:#4C5839;}
	.st81{fill:#6E2521;}
	.st82{fill:#ED6184;}
	.st83{fill:#A4B449;}
	.st84{fill:#EB7466;}
</style>
		<path class="st53" d="m217.9 84.3c-0.5-5.2-0.8-10.3-0.8-15.4 0-0.9 0.4-1.4 1.1-1.7 1-0.4 2.1-0.7 3.2-1 5.1-1.1 10.3-1.5 15.5-1.4 1.9 0 3.1 0.7 3.6 2.5 0.5 1.9 1.1 3.7 1.4 5.6 0.8 4.9 1.4 9.8 2.1 14.7 0.2 1.2 0.3 2.3 0.6 3.4 0.1 0.7 0 1.2-0.5 1.6-2.7 2.3-3.6 5.3-2.7 8.7 1.8 7 3.7 14 5.4 21 1.9 7.6 3.8 15.2 5.7 22.9 0.4 1.6 0.4 3.3 0.6 4.9 0.6 6.8 1.2 13.5 1.9 20.3 0.6 6.3 1.3 12.5 1.9 18.8 0.6 5.7 1.1 11.4 1.7 17.3-8.6 1.8-17.2 2.8-26 3.2-0.2-1.6-0.5-3.1-0.6-4.5-0.4-4.2-0.7-8.4-1-12.6-0.5-6.1-1.1-12.2-1.6-18.3-0.3-3.9-0.7-7.7-1-11.6-0.5-5.6-0.9-11.1-1.4-16.7-0.2-2.8-0.6-5.5-0.8-8.3-0.1-0.9 0.1-1.8 0.2-2.7 0.6-5.3 1.3-10.7 2-16 0.6-5.3 1.3-10.6 1.9-15.9 0.4-3.9 0.7-7.8 1-11.7 0.1-1.2 0-2.3-0.2-3.5-0.3-2.1-1.6-3.3-3.7-3.4-2.8-0.1-5.5-0.1-8.3-0.2h-1.2z"/>
		<path class="st53" d="m173.5 85.2c0.2 1 0.4 2 0.5 3 0.6 6 0.4 12 0.1 18-0.2 4.1-0.5 8.2-0.7 12.4-0.4 6.3-0.7 12.6-1 18.9-0.2 3.9-0.3 7.8-0.4 11.6-0.2 5.9-0.6 11.8-0.7 17.7-0.2 6.5-0.3 13-0.4 19.5l-0.3 16.2c0 0.1 0 0.3-0.1 0.5-0.4-0.1-0.8-0.1-1.2-0.2-2.7-0.8-5.4-1.7-8.1-2.4-0.8-0.2-1.1-0.7-1.5-1.4-3.6-6.9-6.3-14.1-9.3-21.2-0.4-1.1-0.7-2.1-0.7-3.2 0-9.2 0-18.4 0.1-27.5 0-4 0-8.1 0.2-12.1 0.2-5.1 0.5-10.2 0.7-15.3 0.2-3.7 0.4-7.4 0.7-11 0.5-6.5 1.1-13 1.7-19.4 0.3-3.4 0.7-3.6 4.2-4.1 5-0.7 10-0.5 15 0 0.3-0.2 0.7-0.1 1.2 0z"/>
		<path class="st53" d="m209 209.2c-2.6 0.2-15.7-1.2-19.8-2.2v-0.8c1-5.9 2.2-11.8 3.1-17.8 1.7-11 3.3-22.1 4.9-33.1 2.3-15.4 5.5-30.7 8.4-45.9 1-5.4 2-10.9 3.1-16.3 0.6-3 0.8-3.3 3.7-3.5 4.1-0.3 8.1-0.4 12.2-0.5 0.5 0 1 0.1 1.5 0.1 0.2 2.2 0.1 4.2-0.1 6.3-0.9 8.3-1.9 16.7-2.8 25-1.1 9.5-2.4 18.9-3.9 28.3-1.2 7.6-2.4 15.1-3.6 22.7-1.3 7.6-2.6 15.1-3.9 22.7-0.8 4.7-1.7 9.4-2.5 14-0.1 0.3-0.2 0.6-0.3 1z"/>
		<path class="st53" d="m291.7 196.5c-3.3 1.8-17.6 6.6-21.9 7.4-0.3-1.6-0.7-3.3-1-4.9-2.6-14.9-5.8-29.6-9.2-44.3-3.8-16.7-8.1-33.4-12.5-50-0.4-1.6-0.7-3.2-1.1-4.8-0.4-1.4 0.1-2.6 1.1-3.4 1.3-1 2.6-1.9 4-2.6 3.9-1.7 8-2.8 12.1-3.7 1.1-0.2 1.3-0.2 1.7 0.8 0.7 1.7 1.4 3.4 1.8 5.2 2.5 10 4.9 20.1 7.3 30.1 5.1 21.8 10.8 43.5 16.5 65.2 0.4 1.7 0.8 3.3 1.2 5z"/>
		<path class="st53" d="m107 79.2c0.6 1.3 1.2 2.5 1.7 3.8 2.6 6.8 5.3 13.6 7.8 20.4 4.9 13.1 9.6 26.4 14.6 39.5 6.4 16.8 13.3 33.5 20.4 50 0.7 1.6 1.4 3.1 2.2 4.8-0.4 0-0.7 0-0.9-0.1-6.7-2.5-13.3-5.1-19.5-8.8-0.9-0.5-1.8-1.2-2.7-1.7s-1.9-1-2.9-1.4c-0.6-0.2-0.9-0.5-1-1.1-1.9-7-4.7-13.8-7.4-20.5-9.1-22.2-18.2-44.5-27.3-66.7-0.9-2.2-1.8-4.5-2.6-6.8-0.9-2.7-0.6-3.4 1.7-5 0.6-0.4 1.2-0.8 1.9-1.1 4.5-2.2 9.1-3.8 14-5.3z"/>
		<path class="st53" d="m327 111.3c0.5 0.1 0.8 0.2 1.1 0.3 3.7 1.4 7.3 2.8 11 4.3 1 0.4 1.9 0.9 2.8 1.5 1.3 0.8 1.4 1.2 0.8 2.7-2.1 4.7-4.1 9.4-6.3 13.9-6.8 14.2-13.4 28.5-19.8 42.8-0.6 1.3-1.2 2.6-1.6 3.9-0.6 2-1.9 3.5-3.5 4.7-4.5 3.5-9.5 6.4-14.7 8.8-0.2 0.1-0.4 0.1-0.6 0.1-0.1-0.4-0.3-0.8-0.4-1.3-0.8-3.1-1.6-6.3-2.4-9.4-0.2-0.8-0.2-1.4 0.3-2 0.3-0.5 0.6-1 0.8-1.5 3-6 6-12 8.9-18 6-12.4 12.1-24.7 17-37.5 1.4-3.6 3.2-7 4.8-10.4 0.6-1 1.2-1.9 1.8-2.9z"/>
		<path class="st53" d="m291.4 175.8c-1.4-5.5-2.8-10.6-4.1-15.8-2-8-3.9-16-6-24-0.5-2-0.2-4 0.1-5.9 2.6-15.6 4.9-31.2 8.7-46.6 0.2-0.8 0.4-1.7 0.6-2.5 0.3-1.2 0.5-1.4 1.7-1.2 2.3 0.2 4.5 0.4 6.8 0.9 2.6 0.6 5.2 1.3 7.7 2.1 1.5 0.4 1.7 0.6 1.5 2.2-0.3 3-0.5 6.1-1.1 9.1-1.9 10.8-4 21.6-5.8 32.4-1.4 8.5-2.7 17.1-3.9 25.6-0.7 4.7-1.1 9.4-1.7 14.1 0 0.3-0.1 0.7-0.3 1-1.2 2.7-2.5 5.4-3.8 8 0 0.1-0.1 0.2-0.4 0.6z"/>
		<path class="st53" d="m178.8 111.2c3.3-0.8 6.4-1.6 9.5-2.3 1.6-0.4 1.7-0.4 2.5 1.2 1.3 2.5 2.5 5.1 3.6 7.6 1.1 2.3 2.1 4.6 3.1 6.9 0.3 0.6 0.3 1.1 0.2 1.7-1.2 6.8-2.5 13.6-3.7 20.5-1 6.1-1.9 12.2-2.8 18.3-1.1 7.7-2.3 15.4-3.4 23l-2.1 15.6c-0.1 0.9-0.1 1.7-0.2 2.8-3.5-0.4-6.9-1.3-10.4-2.1 0.1-3.2 0.2-6.2 0.2-9.3 0.1-7.1 0.2-14.3 0.4-21.4 0.1-4.5 0.3-8.9 0.5-13.4 0.2-5.7 0.4-11.5 0.7-17.2 0.4-7.8 0.8-15.5 1.2-23.3 0.2-2.9 0.5-5.7 0.7-8.6z"/>
		<path class="st53" d="m147.9 96.2c-2.3 23.3-3 46.5-1.9 69.7-0.1 0-0.2 0-0.3 0.1-0.2-0.3-0.3-0.6-0.5-0.9-5-12.7-10-25.5-15-38.2-0.4-1-0.5-2-0.3-3.1 0.6-3.8 1-7.7 1.6-11.5 0.8-4.5 1.6-9.1 2.6-13.6 0.5-2.5 1-2.7 3.5-2.9 3.4-0.3 6.7 0.1 10.3 0.4z"/>
		<path class="st53" d="m228.7 210c-4.9 0.1-9.6-0.2-14.4-0.3 0-0.7-0.1-1.3 0-1.9 1.3-7.4 2.6-14.9 4-22.3 0-0.2 0.1-0.5 0.2-1.1 1.9 4.4 3.2 8.7 4.9 12.8 1.7 4.2 3.4 8.3 5.3 12.8z"/>
		<path class="st53" d="m226.3 192.8l-0.3-0.6c-1.9-5-3.9-10-5.8-15.1-0.3-0.7-0.3-1.3-0.2-2 1-6.3 2-12.5 3.2-18.8 0.6 2.9 0.6 5.9 0.9 8.9 0.3 3.1 0.5 6.2 0.8 9.3 0.3 3 0.5 6.1 0.8 9.1s0.6 6.1 0.9 9.1c-0.1 0-0.2 0-0.3 0.1z"/>
		<path class="st53" d="m259.7 178.3c2.3 8.8 4.1 17.7 6.6 26.5-0.2 0.1-0.4 0.2-0.7 0.3-1 0.2-2 0.4-3.1 0.7-0.9-9.3-1.8-18.4-2.8-27.5z"/>
		<path class="st60" d="m128.6 190.8c0.3 0.1 0.5 0.2 0.7 0.3 8.4 5.4 17.7 9.1 27.1 12.3 10.2 3.4 20.6 6.1 31.3 7.8 7.6 1.2 15.2 2.1 22.9 2.4 5.7 0.3 11.4 0.5 17 0.4 9.5 0 18.9-1.1 28.2-2.8 13.3-2.5 26.2-6.3 38.7-11.6 6.4-2.8 12.6-6 18.2-10.3 0.1-0.1 0.3-0.2 0.7-0.5 0 0.7-0.1 1.3-0.1 1.8-0.9 7.5-1.9 14.9-2.8 22.4-1.3 10.2-2.6 20.4-4 30.6-1.6 11-3.3 22-4.9 33-0.8 5.3-1.4 10.7-2.1 16-1.6 12.7-3.2 25.3-5 38-1.6 12-3.4 23.9-5.1 35.9 0 0.2-0.1 0.4-0.2 0.6-0.2 0-0.4 0-0.6-0.1-6.6-3.3-13.7-5.3-20.9-7.2-8.1-2.2-16.4-3.7-24.7-4.6-7.2-0.8-14.5-1.5-21.8-1.6-6.7-0.1-13.4-0.3-20.1-0.1-5.5 0.2-11 0.8-16.5 1.5-9.9 1.2-19.4 3.6-28.8 6.9-1.1 0.4-2.2 0.8-3.3 1.2l-0.3-0.6c-2.3-12.4-4.6-24.8-6.8-37.2-1.7-9.6-3.1-19.2-4.6-28.8-1-7.1-1.9-14.1-2.8-21.2-1.2-9.8-2.4-19.6-3.7-29.5-1.3-10-2.6-20-3.8-30-0.6-4.8-0.8-9.7-1.3-14.5-0.3-2.9-0.5-5.8-0.8-8.7 0.2-0.5 0.2-1.1 0.2-1.8zm125.2 108.3c0.2 0.5 0.2 0.9 0.4 1.3 0.4 1 0.7 2.1 1.2 3.1 2.5 4.5 7.4 6 11.9 3.5 2.2-1.2 4.1-2.7 6-4.3 3.7-3 6.6-6.7 9.7-10.2 0.9-1 1.7-2.1 2.5-3.2 0.4-0.5 0.5-1 0-1.6-0.4-0.5-1-0.5-1.7 0-0.6 0.4-1.1 1-1.6 1.5-2.7 3-5.4 6.1-8.2 9.1-1.1 1.1-2.2 2.2-3.5 3.1s-2.8 1.7-4.3 2.4c-1.1 0.5-2.3 0.6-3.5 0.1-3.5-1.6-5.2-6.1-3.5-9.8 0.6 0.1 1.2 0.2 1.8 0.2 3.7 0.2 7.1-1.8 8.3-5.2 1.6-4.2-1.7-8.7-5.9-8.1-1.1 0.1-2.1 0.6-3.1 1.2-1.7 1-2.9 2.4-3.9 4.1-1.3 2.2-2 4.5-2.4 7-0.1 1-0.4 1.9-1 2.7-1.1 1.9-2.2 3.8-3.3 5.6-0.7 1.1-1.4 2.1-2.2 3.1-0.3 0.4-0.8 0.6-1.2 0.9-0.2-0.3-0.2-0.5-0.3-0.6-0.1-0.3-0.1-0.6-0.2-0.9-0.6-2.6-0.2-5.2 0.4-7.8 0.8-3 1.7-5.9 2.5-8.8 0.3-1.2 0.6-2.5 0.7-3.7 0.1-3.1-2-4.7-5-3.7-1.3 0.4-2.5 1-3.8 1.5-0.9 0.4-1.8 0.7-2.8 1.1-0.1-0.5-0.1-0.9-0.1-1.3-0.2-1.3-0.6-2.6-1.6-3.5-1.2-1.2-2.8-1.4-4.2-0.3-1.5 1.2-2 2.9-1.7 4.7 0.3 1.7 1.5 2.8 3.2 3.2 0.4 0.1 0.9 0.2 1.4 0.3-1 2.3-2.4 4.1-3.7 4.7-0.2-1.2-0.3-2.4-0.6-3.6-0.9-3.3-2.6-6.2-5.8-7.9-2.6-1.4-5.5-1-7.6 1.1-3.1 3.1-4.6 9.3-0.5 13.2 0.1 0.1 0.1 0.2 0.2 0.4-0.2 0.3-0.5 0.7-0.8 1-1.1 0.9-2.3 1.7-3.4 2.5-2.1 1.5-4.4 2.4-6.9 3-0.8 0.2-1.7 0.2-2.5 0.3-0.5-0.9 0-1.3 0.4-1.8 1.5-1.8 3.1-3.6 4.5-5.6 2-2.9 3.6-6 4.3-9.5 0.3-1.4 0.5-2.9 0.1-4.3-0.8-3.3-3.9-4.7-6.9-3.1-1.2 0.7-2.2 1.6-3 2.7-0.6 0.9-1.1 1.9-1.6 2.9-2 4.3-2.8 8.9-2.9 13.6-0.1 1.9 0 3.8 0 5.8-1.2 0.6-2.3 1.2-3.5 1.6-3.8 1.3-7.4-1-8-5.1 0.2-0.1 0.5-0.3 0.7-0.4 1.9-1 3.5-2.3 4.8-4 1.5-2.1 2.4-4.4 2-7.1-0.7-4.1-5-5.7-8.2-3-1.3 1-2.2 2.4-2.8 3.8-1.2 2.4-1.8 5-1.8 7.7v2.3h-3.5v-1.7c-0.1-1.8-0.4-3.5-1.4-5-1.7-2.6-4.6-3.3-7.2-1.6-0.8 0.5-1.5 1.2-2.2 1.9-1.6 1.8-2.9 3.7-4 5.9-0.8 1.5-1.5 2.9-2.3 4.4-0.2 0.3-0.4 0.6-0.8 1-0.2-0.5-0.3-0.9-0.4-1.3-0.2-2.4-0.4-4.8-0.7-7.2-0.1-0.8 0.3-1.3 1-1.7 2.1-1.5 4.2-3 6.2-4.6 1.5-1.2 2.7-2.8 3.5-4.6 0.4-1 0.9-2.1 1-3.2 0.2-2.4-0.9-4.2-2.8-5.5-1.8-1.2-3.8-1-5.7 0-2.9 1.6-4.8 4.2-6 7.2-1.2 3.1-1.8 6.3-1.9 9.5-0.1 1.3-0.5 2-1.6 2.7-2.6 1.5-4.3 3.9-5.6 6.5-0.2 0.3-0.3 0.7-0.3 1.1 0 0.3 0.2 0.7 0.4 0.8s0.7 0 0.9-0.1c0.5-0.4 0.8-1 1.2-1.4 1.3-1.4 2.6-2.8 3.9-4.1 0.2-0.2 0.5-0.3 0.9-0.5 0.1 1.3 0.2 2.4 0.4 3.5 0.1 1.1 0.3 2.2 0.6 3.3 0.3 1 0.7 2 1.3 2.9 1.4 1.7 3.5 1.6 4.8-0.1 0.4-0.5 0.7-1 0.9-1.5 0.6-1.3 1.2-2.7 1.8-4 0.9-1.7 1.7-3.5 2.8-5.1 0.8-1.3 1.9-2.4 3.3-3.1s2.2-0.3 2.6 1.1c0.5 1.7 0.6 3.4 0.3 5.3-0.5 0.1-1.1 0.2-1.5 0.4-1.3 0.6-2.7 1-4 1.8-1.8 1.1-3 2.8-3.3 4.9-0.5 3.5 2.4 6.4 5.7 5.7 1.6-0.3 2.9-1.3 3.9-2.6 1.6-2 2.7-4.2 3.3-6.6 0.2-0.6 0.3-1.2 0.5-1.8 1.5-0.1 2.9-0.2 4.3-0.3 0.6 1.9 1.3 3.5 2.6 5 1.7 2 3.9 2.9 6.5 2.7 1.9-0.1 3.6-0.8 5.2-1.7 0.7-0.4 1.4-0.8 2.1-1.3 0.3 2.2 0.6 4.2 1 6.3 0.5 3.1 1.6 6 3.6 8.5 0.9 1.1 1.9 2.1 3.2 2.6 1.5 0.6 2.8 0.4 4.1-0.5 1.3-1 2-2.3 2.5-3.9 0.6-2 0.6-4.1 0.3-6.2-0.6-3.5-2.2-6.5-5.4-8.4-0.1-0.1-0.2-0.2-0.4-0.5 3.4-0.9 6.2-2.8 9.1-4.9v1.9c0.1 2.1 0.4 4.1 1.5 5.8 2.1 3.3 5.8 3.8 8.7 1.1 1.2-1.1 1.9-2.5 2.6-4 1-2.4 1.6-4.9 2.1-7.4 0.1-0.4 0.3-0.8 0.6-1.1 2.4-2 4.2-4.4 5.5-7.2 0.1-0.3 0.4-0.6 0.8-0.8 1.2-0.6 2.5-1.1 3.8-1.6 1-0.4 2-0.7 3.2-0.7-0.1 0.6-0.1 1.1-0.2 1.6-0.5 1.7-1 3.5-1.5 5.2-1.1 3.5-2.2 7.1-2.3 10.8 0 1.3 0.1 2.7 0.4 4 0.5 1.9 2 3.1 3.8 3.6s3.1-0.5 4.2-1.8c0.9-1.2 1.7-2.5 2.5-3.8 0.8-1 1.4-2.2 2.1-3.5zm23.3-31.8c-0.3 0.9-0.4 1.9-0.8 2.8-1.2 2.8-4.3 3.2-6.2 0.9-0.7-0.8-1.2-1.8-1.9-2.8-0.4-0.6-0.7-1.2-1.1-1.7-0.7-0.8-1.7-1-2.5-0.6-1 0.4-1.4 1.2-1.3 2.2 0 0.5 0.1 1 0.3 1.4 0.9 2.2 2.1 4.2 3.8 5.8 2.7 2.4 5.8 3.6 9.4 2.7 3.8-1 6.8-3.4 8.6-6.9 1.8-3.2 2-6.8 1.6-10.3-0.7-6.9-2.9-13.5-6.3-19.5-1.8-3.2-3.8-6.3-5.6-9.6-1.1-1.9-2.1-3.9-2.9-6-0.5-1.2-0.7-2.5-0.9-3.8-0.2-2 0.8-3.3 2.6-3.5 0.6-0.1 1.3 0.1 1.8 0.3 1.7 0.6 3.1 1.7 4.3 3.1 0.4 0.5 0.8 1 1.3 1.4 0.3 0.2 0.9 0.3 1.3 0.2 0.6-0.1 0.8-0.7 0.7-1.3-0.2-0.7-0.4-1.4-0.7-2-1.7-3.1-4.4-5.1-7.8-6.2-3.6-1.1-8 0.8-9.6 4.2-1.2 2.5-1.8 5.2-2 8-0.3 4.4 0.8 8.5 2.8 12.3 1.4 2.8 2.8 5.6 4.3 8.3 2.6 4.7 4.4 9.7 5.7 14.9 0.5 1.8 0.7 3.7 1.1 5.7zm-84.6-7.5c0.5-0.2 0.8-0.3 1-0.4 4.3-1.7 7.7-4.6 10-8.7 1.8-3.2 3-6.6 3.8-10.2 0.4-2.2 0.7-4.3 0.3-6.5-1.2-6.8-4.7-11.9-11.2-14.4-1.9-0.8-4-1.1-6-1.5-1.6-0.3-3.2-0.2-4.8 0-2.1 0.3-3.7 1.3-3.7 3.9 0 1.7-0.2 3.4-0.1 5.1 0.2 7.1 0.5 14.2 0.7 21.2 0.2 6.3 0.4 12.5 0.7 18.8 0.1 1.6 0.2 3.2 0.5 4.8 0.2 1.3 1.1 2.2 2.4 2.4 1.1 0.2 2.2 0.3 3.3 0.2 1.6-0.1 2.4-1.1 2.5-2.7 0.1-0.6 0-1.3 0-1.9v-2.6c0.4 0.5 0.6 0.7 0.8 0.9 0.8 0.9 1.6 1.9 2.4 2.7 1.4 1.3 3 2.3 5 2.6 1.8 0.3 3.4-0.2 4.7-1.4 0.8-0.7 0.9-1.6 0.3-2.4-0.5-0.7-1.3-0.9-2.2-0.5-0.1 0.1-0.3 0.1-0.4 0.2-0.9 0.6-1.9 0.5-2.7-0.1-1-0.7-1.9-1.5-2.6-2.5-1.6-2.1-3.1-4.5-4.7-7zm-33.6-5c-0.7-13.4-1.5-26.7-1.5-40h0.5c4.6 1.2 9.3 2.4 13.9 3.6 0.7 0.2 1.3 0.3 2 0.3 0.9 0 1.5-0.6 1.7-1.3 0.2-0.8-0.1-1.6-0.8-2s-1.5-0.7-2.3-0.9c-2.8-0.8-5.5-1.4-8.3-2.2-3.1-0.9-6.1-1.9-9.2-2.7-1.3-0.3-2.6-0.6-3.9-0.6-2-0.1-3.1 0.9-3.3 2.9-0.1 1.3-0.2 2.6-0.1 3.9 0.2 5.9 0.4 11.7 0.7 17.6 0.2 4.3 0.3 8.5 0.6 12.8 0.4 6 0.8 11.9 1.3 17.8 0.2 2.4 0.5 4.7 0.8 7.1 0.2 1.4 1 2.4 2.5 2.7 1 0.2 2.1 0.3 3.2 0.2 2.2-0.1 3-1.3 2.9-3-0.2-3.1-0.2-6.1-0.3-9.2v-2.1c0.9 0.1 1.6 0.2 2.4 0.2 1.8 0.1 3.7 0.2 5.5 0.1 1.3 0 2.2-0.9 2.3-2s-0.7-2.1-2-2.3c-0.7-0.2-1.4-0.2-2.2-0.3-2.1-0.1-4.2-0.3-6.4-0.6zm87.2-31.3h2.6c1 0 2-0.1 3-0.2 1.1-0.2 1.7-0.9 1.7-1.9 0-0.9-0.6-1.7-1.7-1.9-0.7-0.1-1.4-0.1-2-0.1-3 0.1-5.9 0.2-8.9 0.3-0.4 0-0.9 0-1.3 0.1-1.7 0.4-2.9 1.3-3.1 3.2-0.1 0.8-0.2 1.5-0.2 2.3 0 1.9-0.1 3.8 0 5.7 0.3 10.7 0.5 21.3 0.9 32 0.1 3.2 0.4 6.4 0.9 9.5 0.5 3.2 1.5 4.2 4.9 4.5 0.5 0.1 1.1 0.1 1.6 0l7.2-0.9c0.2 0 0.5-0.1 0.7-0.2 1-0.4 1.6-1.3 1.5-2.2-0.1-1-0.9-1.9-2.1-1.9-0.9 0-1.8 0.1-2.8 0.2-0.7 0.1-1.3 0.1-2.1 0.2-0.1-3.5-0.2-6.8-0.2-10.2h1.5c1.5-0.2 3-0.3 4.5-0.6 1.2-0.2 1.9-1.3 1.8-2.3s-1-1.9-2.2-2c-0.4 0-0.8 0.1-1.2 0.1-1.4 0.1-2.9 0.2-4.5 0.2-0.8-11.3-0.8-22.5-0.5-33.9zm-20.7 23.8h-0.3v-3.6c0-5.3-0.1-10.6-0.2-15.9 0-1.5-0.1-3-0.2-4.5-0.1-2-1.5-3.3-3.5-3.3-0.8 0-1.6 0.1-2.5 0.3-2 0.4-3 1.4-3.4 3.3-0.2 0.8-0.3 1.6-0.3 2.5-0.1 3.5-0.1 7.1-0.1 10.6l0.6 31.2c0 1.3 0.2 2.6 0.4 3.9 0.2 1.4 0.9 2.6 2.3 3.1s2.9 0.7 4.4 0.3c1.2-0.3 2-1.1 2.2-2.2s0.3-2.2 0.3-3.3c0.3-7.6 0.3-15 0.3-22.4zm11.7 82.2h0.2c0 0.2 0.1 0.5 0 0.7-0.3 3.2-0.6 6.5-1.1 9.7-0.2 1.5-0.8 2.9-1.3 4.3-0.6 1.5-3.1 2.7-4.6 1.5-0.1-0.1-0.3-0.2-0.5-0.3-1.1-0.5-1.8-0.4-2.4 0.2-0.6 0.7-0.7 1.7-0.2 2.6 0.7 1.2 1.6 2.1 2.9 2.4 1 0.2 2.1 0.2 3.2 0.3 2.2 0.2 3.9-0.8 5.3-2.4 1.5-1.7 2.5-3.7 3.1-5.9 1-3.6 1.6-7.2 1.7-10.9 0.2-4.6 0.2-9.2 0.2-13.8 0-1.1-0.2-2.2-0.4-3.3-0.2-1-0.8-1.6-1.7-2-2.6-1.1-4-0.2-4.4 2.6-0.5 4.1-1.1 8.2-1.9 12.2-0.4 2-1.1 4-1.8 6-0.6 1.4-1.8 1.5-2.6 0.1-0.5-0.8-0.7-1.7-1-2.6-1-3.7-1.3-7.5-1.8-11.3-0.3-2-0.5-4-0.8-6.1-0.2-1.2-0.8-1.8-1.7-1.9-2.3-0.3-3.8 0.8-3.9 3.2-0.1 1.4 0 2.8 0.1 4.2 0.1 4 0.6 7.9 1.7 11.8 0.7 2.4 1.8 4.6 3.6 6.4 2.6 2.6 6.2 2.2 7.9-1 0.9-1.7 1.4-3.5 2-5.3-0.1-0.4 0-1 0.2-1.4zm-47.8 5.8c0.5 2.2 0.6 4.3 0.3 6.3-0.1 0.6-0.2 1.3-0.5 1.8-0.6 1.3-1.6 1.6-2.9 0.9-1.1-0.6-2-1.5-2.5-2.6-0.9-1.8-1.8-3.6-2.4-5.4-1.6-4.5-2.3-9.1-2.5-13.8-0.1-1.6 0.2-3.3 0.7-4.9 0.7-2.6 2.9-3.3 5.2-1.8 0.4 0.3 0.9 0.6 1.3 1 1.1 1.1 2.2 2.3 3.3 3.5 0.4 0.4 0.7 0.9 1.1 1.2 0.8 0.6 1.7 0.2 1.8-0.8 0.1-0.5 0-1.1-0.2-1.6-0.9-2.8-2.5-5.1-4.7-7.1-3.1-2.7-6.8-2.7-9.9 0-0.7 0.6-1.3 1.3-1.9 2-1.5 2-2.4 4.2-2.9 6.6-1.1 5.1-0.7 10.1 0.4 15.1 0.8 3.6 2.2 7 4.4 10.1 1.3 1.8 3 3.3 5.1 4.2 1.4 0.6 2.9 0.8 4.4 0.4 2.8-0.9 5-2.6 5.8-5.6 1.1-4 0.7-8-0.5-11.9-0.3-1-1-1.4-2-1.2-2 0.5-4 1-6.1 1.5-0.9 0.2-1.3 1-1.1 1.9 0.2 0.8 0.9 1.3 1.7 1.2 0.5-0.1 1-0.2 1.6-0.4 1 0 2-0.3 3-0.6zm73.9 7.1c-0.1-3.6-0.7-7-2.2-10.3-1-2.5-2.2-4.9-3.3-7.3-0.9-2-1.7-4-2.5-6-0.2-0.6-0.3-1.2-0.3-1.8 0-1.2 0.6-1.7 1.8-1.3 1.6 0.5 2.7 1.6 3.6 3 0.3 0.4 0.5 0.9 0.8 1.2 0.6 0.8 1.6 0.6 1.9-0.3 0.2-0.5 0.2-1.2 0-1.7-0.3-0.8-0.6-1.7-1.1-2.3-2.1-2.8-5-4-8.4-3.9-1.5 0-2.7 0.8-3.5 2.1-0.5 0.8-0.8 1.8-0.9 2.7-0.4 3.2-0.1 6.4 1 9.5 0.9 2.4 2.1 4.8 3.2 7.2 1.4 2.9 2.5 6 2.9 9.3 0.1 1.2 0 2.4-0.1 3.6-0.1 1.1-0.8 1.9-1.9 2.2-1 0.2-1.7-0.5-2.1-1.2-0.6-0.9-1.1-1.9-1.7-2.9-0.3-0.5-0.5-1-0.9-1.3-0.7-0.7-1.9-0.8-2.8-0.2-0.9 0.5-1.1 1.1-0.9 2.1 1.1 4.9 5.4 8.2 10.3 8.2 1.5 0 2.7-0.5 3.6-1.6 2-2.9 3.6-5.6 3.5-9zm-49.9 1.2h0.3v1.5c0.1 0.8 0.1 1.7 0.4 2.4 0.4 1.3 1.6 2 3.1 1.8 1.3-0.1 2.3-1.1 2.4-2.5v-1.5c-0.1-4.1-0.2-8.2-0.4-12.4-0.1-1.6-0.1-3.2-0.3-4.8-0.1-1.3-0.4-2.6-1.3-3.7-0.6-0.7-1.3-1.1-2.2-0.8s-1.4 0.9-1.5 1.8c-0.1 0.4-0.1 0.8-0.1 1.2-0.2 2-0.3 4.1-0.5 6.1-0.3 2.9-0.8 5.8-1.8 8.5-0.4 1-0.9 2-1.5 3-0.6 0.9-1.1 0.9-1.9 0.1-1.2-1.2-1.9-2.6-2-4.3-0.4-3.3-0.6-6.6-0.9-9.8-0.1-1.6-0.1-3.3-0.2-4.9 0-0.9-0.3-1.6-1.1-2.1-1.5-0.9-4.3-0.3-4.5 2-0.1 0.7-0.2 1.4-0.1 2 0.1 1.9 0.3 3.8 0.5 5.7 0.3 3.2 0.7 6.4 1.7 9.4 0.5 1.6 1.2 3.1 2.3 4.4 2.6 3 6.4 2.7 8.3-0.7 0.6-0.7 0.9-1.6 1.3-2.4zm62-13.4v0.2h-1c-1.3 0-2.6 0-3.9 0.2-1.4 0.2-2.5 1.5-2.4 2.7 0.1 1.3 1.2 2.2 2.7 2.2h1c1.2 0 2.4-0.1 3.6 0 2.3 0.1 4.6 0.3 7 0.5 0.9 0 1.8 0 2.7-0.2 0.8-0.2 1.4-0.9 1.5-1.8 0.1-1-0.3-1.7-1.1-2.2-0.5-0.3-1.2-0.5-1.8-0.6-2.7-0.5-5.5-0.7-8.3-1zm-121 6.3h0.8c3.7-0.7 7.4-1.3 11.2-2 0.4-0.1 0.8-0.3 1.2-0.5 0.9-0.6 1.3-1.6 1-2.7-0.3-1-1-1.6-2.1-1.7-0.4 0-0.9 0-1.3 0.1-3.6 0.7-7.1 1.5-10.7 2.2-0.7 0.1-1.3 0.4-1.9 0.7-0.7 0.4-1.1 1.1-1 2 0.1 0.8 0.7 1.4 1.5 1.7 0.4 0.1 0.9 0.1 1.3 0.2zm123.1 12.9c2.1 0 3.3-1.8 2.4-3.4-0.3-0.6-0.8-1.1-1.4-1.4-2.6-1.6-5.3-3.2-7.9-4.8-0.3-0.2-0.6-0.3-0.9-0.4-1.1-0.3-2.1 0.1-2.7 1s-0.5 2 0.3 2.8c0.5 0.5 1 0.9 1.6 1.2 2.4 1.5 4.8 3 7.2 4.4 0.5 0.3 1.1 0.4 1.4 0.6zm-6.6-22.6c0.4-0.1 1.2-0.3 1.9-0.6 2.4-1.1 4.8-2.3 7.2-3.4 0.5-0.2 0.9-0.5 1.3-0.9 0.7-0.7 0.9-1.8 0.4-2.7s-1.6-1.4-2.6-1.1c-0.5 0.1-0.9 0.3-1.3 0.5-2.1 1-4.3 2.1-6.4 3.2-0.8 0.4-1.5 0.9-2.2 1.4-0.8 0.6-1 1.5-0.7 2.3s1 1.3 2.4 1.3zm-106.4-1.5v-0.1h0.1c1.7 0.1 2.8-0.7 3-1.9 0.2-1.3-0.7-2.1-2.4-2.5-2-0.4-4.1-0.9-6.1-1.3-1-0.2-2.1-0.4-3.2-0.4s-2 0.7-2.2 1.8c-0.2 0.9 0.4 1.9 1.4 2.3 0.5 0.2 1 0.3 1.5 0.4 2.7 0.6 5.3 1.2 7.9 1.7zm6.1 16.5c0-1.7-1.7-2.7-3.3-1.9-2.5 1.3-5 2.8-7.4 4.3-0.5 0.3-0.9 0.8-1.2 1.3-0.5 0.7-0.5 1.4-0.1 2.2 0.5 0.7 1.2 1 2 0.9 0.7-0.1 1.4-0.4 2-0.7 1.5-0.8 3-1.7 4.5-2.6 0.8-0.5 1.6-1 2.3-1.5 0.8-0.6 1.2-1.3 1.2-2z"/>
		<path class="st60" d="m219.4 288.7c-1.5-2.2-0.4-5.4 0.8-6.8 1-1.1 2.3-1.5 3.5-0.9 0.9 0.4 1.8 1 2.5 1.7 2.4 2.6 3.2 5.8 3.2 9.4-2.1 0.7-4.1 0.7-6.3 0 0.2-0.7 0.4-1.2 0.5-1.8 0.3-1.3-0.1-2.2-1-2.7s-1.7-0.3-2.7 0.5c-0.1 0.2-0.3 0.3-0.5 0.6z"/>
		<path class="st60" d="m203.5 303.7c1.7 0.1 3 0.7 4.1 1.6 3.7 3.2 3.9 8.5 2.8 11.8-0.1 0.2-0.1 0.4-0.2 0.5-0.4 0.6-0.8 1.4-1.6 1.2-0.5-0.1-1-0.7-1.3-1.2-1.8-3.5-3-7.1-3.4-11-0.2-1-0.3-1.9-0.4-2.9z"/>
		<path class="st60" d="m159.4 289c0.2-1.3 0.4-2.5 0.7-3.7 0.6-2.4 1.6-4.7 2.9-6.8 0.4-0.6 0.9-1.2 1.4-1.7 1-0.9 1.9-0.8 2.9 0s1.5 1.9 1.1 3.1c-0.4 1.1-0.8 2.3-1.5 3.3-1.8 2.5-4.2 4.3-6.8 5.7-0.2 0.1-0.4 0.1-0.7 0.1z"/>
		<path class="st60" d="m203.4 296.2c0.1-5.7 1.3-11 4.4-15.9 0.1-0.2 0.2-0.4 0.3-0.5 0.4-0.3 0.8-0.8 1.3-0.8 0.7 0 1.1 0.7 1.1 1.3 0.1 1.1 0.1 2.3-0.1 3.5-0.8 3.6-2.4 6.9-4.7 9.9-0.7 0.9-1.3 1.7-2 2.6-0.1 0-0.2-0.1-0.3-0.1z"/>
		<path class="st60" d="m221.8 295.6c2.5 0.4 4.8 0 7.3-0.8-0.5 2.7-1.1 5.2-2.8 7.2-0.7 0.9-1.5 1.7-2.7 1.4-1.2-0.2-1.6-1.3-1.9-2.3-0.6-1.5-0.5-3.2 0.1-5.5z"/>
		<path class="st60" d="m259.5 292c0.8-3 2.3-5.2 4.9-6.7 1-0.5 1.4-0.4 2.1 0.5 0.6 0.9 0.8 2 0.5 3-0.6 2.1-2.5 3.5-4.7 3.5-0.9 0-1.8-0.2-2.8-0.3z"/>
		<path class="st60" d="m186.5 295.9c0-3.7 0.8-6.8 3.1-9.4 0.7-0.8 1.5-0.8 1.9 0.2 0.3 0.7 0.4 1.5 0.4 2.2-0.3 3.3-2.2 5.4-5.4 7z"/>
		<path class="st60" d="m172.4 300.4c-0.7 2.5-2 4.6-3.9 6.3-0.7 0.7-1.4 0.4-1.9-0.5-0.4-0.7-0.3-1.5 0-2.3 0.4-1.1 1.2-1.9 2.2-2.5 1.1-0.6 2.2-1 3.3-1.5 0.1 0.3 0.2 0.4 0.3 0.5z"/>
		<path class="st60" d="m236 282.9c-2-0.3-2.3-1-1.4-2.9 1.2 0.5 1.6 1.1 1.4 2.9z"/>
		<path class="st60" d="m191.5 255.3c-0.3-11-0.7-21.9-1-32.9 6.3 0.6 11.2 5 12.7 11.2 0.9 3.5 0.2 6.8-0.9 10.1-1.5 4.3-3.7 8-7.7 10.4-1.3 0.8-1.9 1-3.1 1.2z"/>
</svg>
