<?xml version="1.0" encoding="utf-8"?>
<!-- Generator: Adobe Illustrator 21.1.0, SVG Export Plug-In . SVG Version: 6.00 Build 0)  -->
<svg version="1.1" id="Layer_1" xmlns="http://www.w3.org/2000/svg" xmlns:xlink="http://www.w3.org/1999/xlink" x="0px" y="0px"
	 viewBox="0 0 1013 1308.9" style="enable-background:new 0 0 1013 1308.9;" xml:space="preserve">
<path d="M415.8,332.5l3,1.5c1,0.5,2.1-0.2,2.1-1.3v-42.2c0-0.5-0.3-1-0.7-1.3l-0.9-0.5c-20.2-11.3-36.8-17.9-54-21.5l-2.5-0.5
	c-0.9-0.2-1.7,0.5-1.7,1.4v38.2c0,0.9-0.7,1.5-1.6,1.4c-14-1.5-27.9-1.9-43-1.1c-0.8,0-1.5-0.6-1.5-1.4v-41.1c0-0.8-0.7-1.5-1.5-1.4
	l-2.1,0.1c-16.5,0.9-33.5,2.7-53.4,5.7l-1.6,0.3c-0.7,0.1-1.2,0.7-1.2,1.4V315c0,0.7-0.5,1.3-1.1,1.4c-7.6,1.7-15.3,3.5-22.8,5.2
	c-6.7,1.5-13.6,3.1-20.5,4.6c-0.9,0.2-1.8-0.5-1.8-1.4v-46.2c0-0.9-0.8-1.6-1.7-1.4l-2.3,0.4c-19.7,3-36.4,4.8-52.7,5.7l-1.9,0.1
	c-0.8,0-1.4,0.7-1.4,1.4v50.1c0,0.8-0.6,1.4-1.4,1.4c-15.3,0.8-29.4,0.4-43.5-1.2c-0.7-0.1-1.3-0.7-1.3-1.4v-53
	c0-0.7-0.5-1.3-1.1-1.4l-1.5-0.3c-16.7-3.7-33.2-10.3-52-20.8l-3.1-1.7c-1-0.5-2.1,0.2-2.1,1.3v62.8c0,0.5,0.3,1,0.8,1.3l1,0.5
	c16.6,8.3,32.6,13.9,50.1,17.7c0.7,0.1,1.1,0.7,1.1,1.4v46.7c0,0.9-0.8,1.6-1.7,1.4c-16.2-2.8-30.8-7.2-46.4-14.2l-2.9-1.3
	c-1-0.4-2,0.3-2,1.3v62.5c0,0.6,0.4,1.1,0.9,1.3l1.2,0.5c18.1,7,34.8,10.9,54,12.7l2.2,0.2c0.8,0.1,1.6-0.6,1.6-1.4v-52.7
	c0-0.8,0.7-1.5,1.5-1.4c4.7,0.3,9.3,0.4,14,0.4c9.4,0,18.9-0.5,29-1.6c0.8-0.1,1.6,0.6,1.6,1.4v49.9c0,0.9,0.8,1.6,1.7,1.4l2.5-0.5
	c16.5-3.6,33.5-8.2,53.3-14.5l1.3-0.4c0.6-0.2,1-0.7,1-1.4V384c0-0.6,0.4-1.2,1.1-1.4c7.7-2.1,15.5-4.3,23-6.5
	c6.6-1.9,13.5-3.8,20.3-5.7c0.9-0.3,1.8,0.4,1.8,1.4v43.3c0,1,0.9,1.7,1.9,1.4l2.7-0.9c19.7-6.2,36.4-10.8,52.7-14.3l1.5-0.3
	c0.7-0.1,1.1-0.7,1.1-1.4v-41.4c0-0.7,0.6-1.4,1.3-1.4c15.3-1.7,29.4-2.1,43.5-1.2c0.8,0,1.4,0.7,1.4,1.4v38.4
	c0,0.7,0.6,1.4,1.3,1.4l1.8,0.2c18.5,1.7,34.6,5.4,52,12.2l2.8,1.1c0.9,0.4,2-0.3,2-1.3v-42c0-0.6-0.3-1.1-0.9-1.3l-1.1-0.5
	c-16.8-7.4-32.3-12.1-49.9-15c-0.7-0.1-1.2-0.7-1.2-1.4v-31.6c0-0.9,0.9-1.6,1.8-1.4C385.8,319.5,400.2,324.7,415.8,332.5z
	 M306.8,351.7c-13.5,2.3-27.4,5.3-43.2,9.3c-0.9,0.2-1.8-0.5-1.8-1.4v-37.3c0-0.7,0.5-1.3,1.2-1.4c15.9-3.2,29.9-5.5,43.4-7.2
	c0.9-0.1,1.6,0.6,1.6,1.4v35.1C308,351,307.5,351.6,306.8,351.7z M200.8,378.4c-15.9,4.1-29.9,7.2-43.4,9.6
	c-0.9,0.2-1.7-0.5-1.7-1.4v-43.3c0-0.7,0.5-1.3,1.3-1.4c13.5-1.6,27.4-3.9,43.1-7c0.9-0.2,1.7,0.5,1.7,1.4V377
	C201.9,377.7,201.5,378.3,200.8,378.4z"/>
</svg>
