<?xml version="1.0" encoding="utf-8"?>
<!-- Generator: Adobe Illustrator 18.0.0, SVG Export Plug-In . SVG Version: 6.00 Build 0)  -->
<!DOCTYPE svg PUBLIC "-//W3C//DTD SVG 1.1//EN" "http://www.w3.org/Graphics/SVG/1.1/DTD/svg11.dtd">
<svg version="1.1" xmlns="http://www.w3.org/2000/svg" xmlns:xlink="http://www.w3.org/1999/xlink" x="0px" y="0px" width="2800px"
	 height="2800px" viewBox="0 0 2800 2800" enable-background="new 0 0 2800 2800" xml:space="preserve">
<g id="BACKGROUND">
	<g>
		<rect fill="#CEEADC" width="2800" height="2800"/>
		<path fill="#FEFBDF" d="M1400,1231c-647.3,0-1172.1,524.8-1172.1,1172.1c0,139.3,24.3,273,68.9,396.9h2206.3
			c44.6-124,68.9-257.6,68.9-396.9C2572.1,1755.8,2047.3,1231,1400,1231z"/>
		<path fill="#FCD1C6" d="M2800,2800H0v-338.9c1088.8-49.8,2182.7-101.3,2800,0V2800z"/>
	</g>
	<ellipse opacity="0.5" fill="#F7AC96" cx="1050.7" cy="2586" rx="639.5" ry="65"/>
	<ellipse opacity="0.5" fill="#F7AC96" cx="2117.6" cy="2586" rx="135.4" ry="13.8"/>
</g>
<g id="Layer_3">
	<g>
		<path fill="#FEFBDF" d="M2800,915.9c-4.8-0.7-10.3-1.1-16.8-1.1c-9.6,0-16.9,0.9-23.1,2.3c-4.6,1-8.5,2.3-12.2,3.7
			c-2.7,1-5.3,2-7.9,2.9c-3.9,1.4-7.9,2.7-12.8,3.6c-4.9,0.9-10.8,1.5-18.4,1.5c-9,0-15.6-0.8-21.1-2.1c-4.1-0.9-7.6-2.1-11.1-3.3
			c-2.6-0.9-5.2-2-7.9-2.9c-4.1-1.5-8.7-2.9-14.2-4c-5.5-1-12-1.7-20.1-1.7c-9.6,0-16.9,0.9-23.1,2.3c-4.6,1-8.5,2.3-12.2,3.7
			c-2.7,1-5.3,2-7.9,2.9c-3.9,1.4-7.9,2.7-12.8,3.6c-4.9,0.9-10.8,1.5-18.4,1.5c-9,0-15.6-0.8-21.1-2.1c-4.1-0.9-7.6-2.1-11.1-3.3
			c-2.6-0.9-5.2-2-7.9-2.9c-4.1-1.5-8.7-2.9-14.2-4c-5.5-1-12-1.7-20.1-1.7c-9.6,0-16.9,0.9-23.1,2.3c-4.6,1-8.5,2.3-12.2,3.7
			c-2.7,1-5.3,2-7.9,2.9c-3.9,1.4-7.9,2.7-12.8,3.6c-4.9,0.9-10.8,1.5-18.4,1.5c-9,0-15.6-0.8-21.1-2.1c-4.1-0.9-7.6-2.1-11.1-3.3
			c-2.6-0.9-5.2-2-7.9-2.9c-4.1-1.5-8.7-2.9-14.2-4c-5.5-1-12-1.7-20.1-1.7c-9.6,0-16.9,0.9-23.1,2.3c-4.6,1-8.5,2.3-12.2,3.7
			c-2.7,1-5.3,2-7.9,2.9c-3.9,1.4-7.9,2.7-12.8,3.6c-4.9,0.9-10.8,1.5-18.4,1.5c-9,0-15.6-0.8-21.1-2.1c-4.1-0.9-7.6-2.1-11.1-3.3
			c-2.6-0.9-5.2-2-7.9-2.9c-4.1-1.5-8.7-2.9-14.2-4c-5.5-1-12-1.7-20.1-1.7c-2.5,0-4.5,2-4.5,4.5c0,2.5,2,4.5,4.5,4.5v0
			c9,0,15.6,0.8,21.1,2.1c4.1,0.9,7.6,2.1,11.1,3.3c2.6,0.9,5.2,2,7.9,2.9c4.1,1.5,8.7,2.9,14.2,4c5.5,1,12,1.7,20.1,1.7
			c9.6,0,16.9-0.9,23.1-2.3c4.6-1,8.5-2.3,12.2-3.7c2.7-1,5.3-2,7.9-2.9c3.9-1.4,7.9-2.7,12.8-3.6c4.9-0.9,10.8-1.5,18.4-1.5
			c9,0,15.6,0.8,21.1,2.1c4.1,0.9,7.6,2.1,11.1,3.3c2.6,0.9,5.2,2,7.9,2.9c4.1,1.5,8.7,2.9,14.2,4c5.5,1,12,1.7,20.1,1.7
			c9.6,0,16.9-0.9,23.1-2.3c4.6-1,8.5-2.3,12.2-3.7c2.7-1,5.3-2,7.9-2.9c3.9-1.4,7.9-2.7,12.8-3.6c4.9-0.9,10.8-1.5,18.4-1.5
			c9,0,15.6,0.8,21.1,2.1c4.1,0.9,7.6,2.1,11.1,3.3c2.6,0.9,5.2,2,7.9,2.9c4.1,1.5,8.7,2.9,14.2,4c5.5,1,12,1.7,20.1,1.7
			c9.6,0,16.9-0.9,23.1-2.3c4.6-1,8.5-2.3,12.2-3.7c2.7-1,5.3-2,7.9-2.9c3.9-1.4,7.9-2.7,12.8-3.6c4.9-0.9,10.8-1.5,18.4-1.5
			c9,0,15.6,0.8,21.1,2.1c4.1,0.9,7.6,2.1,11.1,3.3c2.6,0.9,5.2,2,7.9,2.9c4.1,1.5,8.7,2.9,14.2,4c5.5,1,12,1.7,20.1,1.7
			c9.6,0,16.9-0.9,23.1-2.3c4.6-1,8.5-2.3,12.2-3.7c2.7-1,5.3-2,7.9-2.9c3.9-1.4,7.9-2.7,12.8-3.6c4.9-0.9,10.8-1.5,18.4-1.5
			c6.8,0,12.2,0.5,16.8,1.2V915.9z"/>
		<path fill="#FEFBDF" d="M2087,845.8L2087,845.8c9,0,15.6,0.8,21.1,2.1c4.1,0.9,7.6,2.1,11.1,3.3c2.6,0.9,5.2,2,7.9,2.9
			c4.1,1.5,8.7,2.9,14.2,4c5.5,1,12,1.7,20.1,1.7c9.6,0,16.9-0.9,23.1-2.3c4.6-1,8.5-2.3,12.2-3.7c2.7-1,5.3-2,7.9-2.9
			c3.9-1.4,7.9-2.7,12.8-3.6c4.9-0.9,10.8-1.5,18.4-1.5c9,0,15.6,0.8,21.1,2.1c4.1,0.9,7.6,2.1,11.1,3.3c2.6,0.9,5.2,2,7.9,2.9
			c4.1,1.5,8.7,2.9,14.2,4c5.5,1,12,1.7,20.1,1.7c9.6,0,16.9-0.9,23.1-2.3c4.6-1,8.5-2.3,12.2-3.7c2.7-1,5.3-2,7.9-2.9
			c3.9-1.4,7.9-2.7,12.8-3.6c4.9-0.9,10.8-1.5,18.4-1.5c9,0,15.6,0.8,21.1,2.1c4.1,0.9,7.6,2.1,11.1,3.3c2.6,0.9,5.2,2,7.9,2.9
			c4.1,1.5,8.7,2.9,14.2,4c5.5,1,12,1.7,20.1,1.7c9.6,0,16.9-0.9,23.1-2.3c4.6-1,8.5-2.3,12.2-3.7c2.7-1,5.3-2,7.9-2.9
			c3.9-1.4,7.9-2.7,12.8-3.6c4.9-0.9,10.8-1.5,18.4-1.5c9,0,15.6,0.8,21.1,2.1c4.1,0.9,7.6,2.1,11.1,3.3c2.6,0.9,5.2,2,7.9,2.9
			c4.1,1.5,8.7,2.9,14.2,4c5.5,1,12,1.7,20.1,1.7c9.6,0,16.9-0.9,23.1-2.3c4.6-1,8.5-2.3,12.2-3.7c2.7-1,5.3-2,7.9-2.9
			c3.9-1.4,7.9-2.7,12.8-3.6c4.9-0.9,10.8-1.5,18.4-1.5c9,0,15.6,0.8,21.1,2.1c4.1,0.9,7.6,2.1,11.1,3.3c2.6,0.9,5.2,2,7.9,2.9
			c4.1,1.5,8.7,2.9,14.2,4c5.5,1,12,1.7,20.1,1.7c9.6,0,16.9-0.9,23.1-2.3c4.6-1,8.5-2.3,12.2-3.7c2.7-1,5.3-2,7.9-2.9
			c0.1,0,0.2-0.1,0.3-0.1v-9.5c-1.5,0.5-2.9,1-4.2,1.5c-2.7,1-5.3,2-7.9,2.9c-3.9,1.4-7.9,2.7-12.8,3.6c-4.9,0.9-10.8,1.5-18.4,1.5
			c-9,0-15.6-0.8-21.1-2.1c-4.1-0.9-7.6-2.1-11.1-3.3c-2.6-0.9-5.2-2-7.9-2.9c-4.1-1.5-8.7-2.9-14.2-4c-5.5-1-12-1.7-20.1-1.7
			c-9.6,0-16.9,0.9-23.1,2.3c-4.6,1-8.5,2.3-12.2,3.7c-2.7,1-5.3,2-7.9,2.9c-3.9,1.4-7.9,2.7-12.8,3.6c-4.9,0.9-10.8,1.5-18.4,1.5
			c-9,0-15.6-0.8-21.1-2.1c-4.1-0.9-7.6-2.1-11.1-3.3c-2.6-0.9-5.2-2-7.9-2.9c-4.1-1.5-8.7-2.9-14.2-4c-5.5-1-12-1.7-20.1-1.7
			c-9.6,0-16.9,0.9-23.1,2.3c-4.6,1-8.5,2.3-12.2,3.7c-2.7,1-5.3,2-7.9,2.9c-3.9,1.4-7.9,2.7-12.8,3.6c-4.9,0.9-10.8,1.5-18.4,1.5
			c-9,0-15.6-0.8-21.1-2.1c-4.1-0.9-7.6-2.1-11.1-3.3c-2.6-0.9-5.2-2-7.9-2.9c-4.1-1.5-8.7-2.9-14.2-4c-5.5-1-12-1.7-20.1-1.7
			c-9.6,0-16.9,0.9-23.1,2.3c-4.6,1-8.5,2.3-12.2,3.7c-2.7,1-5.3,2-7.9,2.9c-3.9,1.4-7.9,2.7-12.8,3.6c-4.9,0.9-10.8,1.5-18.4,1.5
			c-9,0-15.6-0.8-21.1-2.1c-4.1-0.9-7.6-2.1-11.1-3.3c-2.6-0.9-5.2-2-7.9-2.9c-4.1-1.5-8.7-2.9-14.2-4c-5.5-1-12-1.7-20.1-1.7
			c-9.6,0-16.9,0.9-23.1,2.3c-4.6,1-8.5,2.3-12.2,3.7c-2.7,1-5.3,2-7.9,2.9c-3.9,1.4-7.9,2.7-12.8,3.6c-4.9,0.9-10.8,1.5-18.4,1.5
			c-9,0-15.6-0.8-21.1-2.1c-4.1-0.9-7.6-2.1-11.1-3.3c-2.6-0.9-5.2-2-7.9-2.9c-4.1-1.5-8.7-2.9-14.2-4c-5.5-1-12-1.7-20.1-1.7
			c-2.5,0-4.5,2-4.5,4.5C2082.5,843.8,2084.5,845.8,2087,845.8z"/>
		<path fill="#FEFBDF" d="M2779.3,874.5c-5.5-1-12-1.7-20.1-1.7c-9.6,0-16.9,0.9-23.1,2.3c-4.6,1-8.5,2.3-12.2,3.7
			c-2.7,1-5.3,2-7.9,2.9c-3.9,1.4-7.9,2.7-12.8,3.6c-4.9,0.9-10.8,1.5-18.4,1.5c-9,0-15.6-0.8-21.1-2.1c-4.1-0.9-7.6-2.1-11.1-3.3
			c-2.6-0.9-5.2-2-7.9-2.9c-4.1-1.5-8.7-2.9-14.2-4c-5.5-1-12-1.7-20.1-1.7c-9.6,0-16.9,0.9-23.1,2.3c-4.6,1-8.5,2.3-12.2,3.7
			c-2.7,1-5.3,2-7.9,2.9c-3.9,1.4-7.9,2.7-12.8,3.6c-4.9,0.9-10.8,1.5-18.4,1.5c-9,0-15.6-0.8-21.1-2.1c-4.1-0.9-7.6-2.1-11.1-3.3
			c-2.6-0.9-5.2-2-7.9-2.9c-4.1-1.5-8.7-2.9-14.2-4c-5.5-1-12-1.7-20.1-1.7c-9.6,0-16.9,0.9-23.1,2.3c-4.6,1-8.5,2.3-12.2,3.7
			c-2.7,1-5.3,2-7.9,2.9c-3.9,1.4-7.9,2.7-12.8,3.6c-4.9,0.9-10.8,1.5-18.4,1.5c-9,0-15.6-0.8-21.1-2.1c-4.1-0.9-7.6-2.1-11.1-3.3
			c-2.6-0.9-5.2-2-7.9-2.9c-4.1-1.5-8.7-2.9-14.2-4c-5.5-1-12-1.7-20.1-1.7c-9.6,0-16.9,0.9-23.1,2.3c-4.6,1-8.5,2.3-12.2,3.7
			c-2.7,1-5.3,2-7.9,2.9c-3.9,1.4-7.9,2.7-12.8,3.6c-4.9,0.9-10.8,1.5-18.4,1.5c-9,0-15.6-0.8-21.1-2.1c-4.1-0.9-7.6-2.1-11.1-3.3
			c-2.6-0.9-5.2-2-7.9-2.9c-4.1-1.5-8.7-2.9-14.2-4c-5.5-1-12-1.7-20.1-1.7c-2.5,0-4.5,2-4.5,4.5c0,2.5,2,4.5,4.5,4.5v0
			c9,0,15.6,0.8,21.1,2.1c4.1,0.9,7.6,2.1,11.1,3.3c2.6,0.9,5.2,2,7.9,2.9c4.1,1.5,8.7,2.9,14.2,4c5.5,1,12,1.7,20.1,1.7
			c9.6,0,16.9-0.9,23.1-2.3c4.6-1,8.5-2.3,12.2-3.7c2.7-1,5.3-2,7.9-2.9c3.9-1.4,7.9-2.7,12.8-3.6c4.9-0.9,10.8-1.5,18.4-1.5
			c9,0,15.6,0.8,21.1,2.1c4.1,0.9,7.6,2.1,11.1,3.3c2.6,0.9,5.2,2,7.9,2.9c4.1,1.5,8.7,2.9,14.2,4c5.5,1,12,1.7,20.1,1.7
			c9.6,0,16.9-0.9,23.1-2.3c4.6-1,8.5-2.3,12.2-3.7c2.7-1,5.3-2,7.9-2.9c3.9-1.4,7.9-2.7,12.8-3.6c4.9-0.9,10.8-1.5,18.4-1.5
			c9,0,15.6,0.8,21.1,2.1c4.1,0.9,7.6,2.1,11.1,3.3c2.6,0.9,5.2,2,7.9,2.9c4.1,1.5,8.7,2.9,14.2,4c5.5,1,12,1.7,20.1,1.7
			c9.6,0,16.9-0.9,23.1-2.3c4.6-1,8.5-2.3,12.2-3.7c2.7-1,5.3-2,7.9-2.9c3.9-1.4,7.9-2.7,12.8-3.6c4.9-0.9,10.8-1.5,18.4-1.5
			c9,0,15.6,0.8,21.1,2.1c4.1,0.9,7.6,2.1,11.1,3.3c2.6,0.9,5.2,2,7.9,2.9c4.1,1.5,8.7,2.9,14.2,4c5.5,1,12,1.7,20.1,1.7
			c9.6,0,16.9-0.9,23.1-2.3c4.6-1,8.5-2.3,12.2-3.7c2.7-1,5.3-2,7.9-2.9c3.9-1.4,7.9-2.7,12.8-3.6c4.9-0.9,10.8-1.5,18.4-1.5
			c9,0,15.6,0.8,21.1,2.1c4.1,0.9,7.6,2.1,11.1,3.3c2.6,0.9,5.2,2,7.9,2.9c0.2,0.1,0.5,0.2,0.7,0.3v-9.6c-2.1-0.8-4.2-1.6-6.5-2.4
			C2789.4,876.9,2784.8,875.5,2779.3,874.5z"/>
	</g>
	<g>
		<path opacity="0.5" fill="#FEF9D6" d="M1947.8,864.6c3,3.2,7,5,10.7,5c15.8-0.4,31.9-6.7,40.3-17.7c9.4-12.5,4.4-16.4,4.4-16.4
			s15.6-19,18.7-33.9c3-14.9-8-26.8-25.9-20.1c-17.2,6.4-51.7,22.6-54.4,70.5c-0.2,3.6,1.4,7.6,4.3,10.6L1947.8,864.6z"/>
		<path opacity="0.5" fill="#FEF9D6" d="M1949.1,862.4c2.5,3.6,6.1,6.1,9.8,6.5c15.7,2,32.6-1.7,42.5-11.3
			c11.2-10.9,6.9-15.5,6.9-15.5s18.4-16.4,23.7-30.6c5.3-14.3-3.8-27.7-22.5-23.8c-18,3.7-54.6,14.4-64.6,61.3
			c-0.8,3.5,0.2,7.7,2.6,11.2L1949.1,862.4z"/>
		<path fill="#2F4843" d="M1947.3,919.7c3.1,12.5,12.8,43.9,26,57.5c13.2,13.6,16.5,3.1,3.5-14.5c-12.9-17.5-19.7-39-19.7-39
			S1953.8,916.4,1947.3,919.7z"/>
		<path fill="#2F4843" d="M1967,923.8c6,11.4,23.2,39.5,39.3,49.4s16.7-1-0.1-14.9c-16.8-13.9-28.6-33-28.6-33
			S1972.5,918.9,1967,923.8z"/>
		<path fill="#2F4843" d="M2001.7,924.2c7.3,10.6,27.7,36.5,44.8,44.5s16.5-3-1.9-14.8s-32.3-29.4-32.3-29.4
			S2006.6,918.8,2001.7,924.2z"/>
		<path fill="#45867F" d="M1954.5,834.1c-50-11-30,8.3-43,29.1s-16.5,19.3-16.5,19.3s6.5,35.5,29,45.5s57-3,57-3s10,14.9,31,8.2
			c0,0,42-1.2,60-22.7c0,0,1.9-45.7-27-68C2005.5,812,1954.5,834.1,1954.5,834.1z"/>
		<path fill="#3E6762" d="M2045,842.5c26,37.8-1.3,72.2-1.3,72.2s9.7-33.3,1.3-52c-8.3-18.7-34.3-21.7-34.3-21.7
			c15.9,11.8,19,30.4,16.7,48.3l0,0c0,0-7.2,33.6-39,26.2l0,0c8.5-15.8-4.9-26.2-4.9-26.2s11.5,18.7-12.2,24.7
			c-23.7,6-47.7-17.1-47.7-17.1s14-13.9,16.3-39.2c1.1-12.3-2.2-21.8-7.2-26.7c-21.8-0.4-10.7,15.5-21.3,32.3
			c-13,20.8-16.5,19.3-16.5,19.3s6.5,35.5,29,45.5c20.8,9.3,52-1.2,56.4-2.8c0,0,0,0,0,0c0.1,0,0.2-0.1,0.3-0.1c0,0,0,0,0.1,0
			c0.1,0,0.1,0,0.1,0c0,0,0.1,0,0.1,0s10,14.9,31,8.2c0,0,0,0,0.1,0c0,0,0,0,0,0c0.1,0,0.1,0,0.2,0c0,0,0-0.1,0.1-0.1
			c0.1,0,0.3-0.1,0.4-0.1c0,0,0,0,0,0c6,0,42.7-2.9,59.1-22.6C2072,910.4,2073.9,864.8,2045,842.5z"/>
		<path fill="#3E6762" d="M2018.3,930c10.6,9.3,39.1,31.1,59.4,34.9c20.3,3.8,16.6-7.6-6-15.1c-22.6-7.5-42.1-22.4-42.1-22.4
			S2022,922.9,2018.3,930z"/>
		<path fill="#3E6762" d="M1962.3,924.6c5,13.2,19.7,45.9,35.7,58.9c16.1,13,18.2,1.2,1.9-16.1c-16.3-17.3-26.5-39.7-26.5-39.7
			S1968.9,920.1,1962.3,924.6z"/>
		<ellipse fill="#F7AC96" cx="1966.5" cy="878" rx="26.5" ry="32.5"/>
		
			<ellipse transform="matrix(0.9673 0.2537 -0.2537 0.9673 282.5402 -458.6915)" fill="#F7AC96" cx="1919.5" cy="866" rx="15.5" ry="30"/>
		
			<ellipse transform="matrix(0.9673 0.2537 -0.2537 0.9673 282.5402 -458.6915)" fill="#2F4843" cx="1919.5" cy="866" rx="3.6" ry="7"/>
		
			<ellipse transform="matrix(0.9673 0.2537 -0.2537 0.9673 286.0018 -467.5312)" fill="#2F4843" cx="1955.5" cy="875" rx="3.6" ry="7"/>
		
			<ellipse transform="matrix(0.7536 -0.6574 0.6574 0.7536 -127.1375 1498.8439)" fill="#2F4843" cx="1935.5" cy="919" rx="3.6" ry="7"/>
		<path fill="#3E6762" d="M1945.6,806h-1.9c-1.6,0-2.7,1.7-1.9,3.2c3.6,6.6,11,22.1,8.9,31.9c-0.2,1,0.5,1.9,1.5,1.9l0,0
			c0.7,0,1.3-0.4,1.5-1c5.4-15.5-3.1-30.4-5.9-34.7C1947.3,806.5,1946.5,806,1945.6,806z"/>
		<path fill="#2F4843" d="M1947.8,807.2c-0.5-0.8-1.3-1.2-2.2-1.2h-1.9c-0.9,0-1.6,0-1.9,1h0.7c0.9,0,1.8,0.5,2.2,1.3
			c2.7,4.2,11,18.8,6.2,33.9c0.3,0.5,0.8,0.8,1.3,0.8c0.7,0,1.3-0.4,1.5-1C1959.2,826.5,1950.6,811.5,1947.8,807.2z"/>
		<path fill="#3E6762" d="M1919.7,812.7l-1.6,1c-1.4,0.9-1.4,2.8,0,3.6c6.4,3.4,20.5,11.9,23.7,20.9c0.3,0.9,1.4,1.2,2.2,0.7l0,0
			c0.6-0.4,0.9-1,0.7-1.6c-3.2-15.3-18-22.8-22.5-24.7C1921.4,812.1,1920.5,812.2,1919.7,812.7z"/>
		<path fill="#2F4843" d="M1944.8,837.2c-3.2-15.3-18-22.8-22.5-24.7c-0.8-0.3-1.7-0.3-2.5,0.2l-1.6,1c-0.9,0.5-1.2,1.5-1,2.3
			l0.9-0.6c0.8-0.5,1.7-0.6,2.5-0.2c4.4,1.9,18.7,9.1,22.3,23.8c0.4,0.1,0.8,0,1.2-0.2C1944.6,838.5,1944.9,837.8,1944.8,837.2z"/>
		<path fill="#45867F" d="M1935,897.7l-11.3-0.8c0,0-9,7.3-19.8,6.5c-10.9-0.8-15.2-5.7-15.2-5.7l-5.3,25.7c0,0,12.2,1.3,31.2-8
			C1927.5,908.9,1935,897.7,1935,897.7z"/>
		
			<ellipse transform="matrix(-0.9743 -0.2253 0.2253 -0.9743 3516.9802 2221.6113)" fill="#3E6762" cx="1885.3" cy="910.1" rx="5" ry="13.6"/>
		
			<ellipse transform="matrix(-0.9743 -0.2253 0.2253 -0.9743 3516.9802 2221.6113)" fill="#2F4843" cx="1885.3" cy="910.1" rx="3.1" ry="8.3"/>
		<path opacity="0.5" fill="#FEF9D6" d="M1998.1,892.7c0-5.3,2.6-10.4,7-13.4c18.7-12.9,44.2-20.8,65.9-17.9
			c24.5,3.2,22.9,10.9,22.9,10.9s38.7,3.8,58.5,14.6c19.8,10.8,19.9,30.6-8.1,39.7c-26.9,8.7-84.5,23.2-139.6-17.3
			c-4.2-3.1-6.6-7.9-6.6-13.1V892.7z"/>
		<path opacity="0.5" fill="#FEF9D6" d="M1998.3,892.7c0.4-5.3,3.4-10.1,8-12.8c19.7-11.5,45.7-17.5,67.1-13
			c24.2,5.1,22.1,12.6,22.1,12.6s38.3,6.7,57.2,18.9s17.5,32-11.1,39c-27.5,6.7-86,16.8-137.9-27.6c-3.9-3.4-6-8.4-5.6-13.5
			L1998.3,892.7z"/>
		<path fill="#3E6762" d="M1994.8,927.8c6.5,12.5,25,43.2,42.5,54.2s18.2-1,0-16.2s-31-36.2-31-36.2S2000.8,922.5,1994.8,927.8z"/>
		<path fill="#3E6762" d="M1986.8,844.3c1.9-4.3,6-6.7,6-6.7l-3.8,9C1989,846.7,1986.5,846.8,1986.8,844.3z"/>
		<path fill="#3E6762" d="M1994.1,853.7c4.4-1.8,9-0.7,9-0.7l-8.9,3.9C1994.1,856.9,1992.2,855.3,1994.1,853.7z"/>
		<path fill="#3E6762" d="M2000.1,867.7c4.4-1.8,9-0.7,9-0.7l-8.9,3.9C2000.1,870.9,1998.2,869.3,2000.1,867.7z"/>
		<path fill="#3E6762" d="M2013.1,860.4c3.9-2.6,8.7-2.4,8.7-2.4l-8,5.6C2013.7,863.6,2011.5,862.4,2013.1,860.4z"/>
		<path fill="#3E6762" d="M2007.1,852.4c3.9-2.6,8.7-2.4,8.7-2.4l-8,5.6C2007.7,855.6,2005.5,854.4,2007.1,852.4z"/>
		<path fill="#3E6762" d="M1978.8,836.5c1.8-4,5.6-6.2,5.6-6.2l-3.5,8.4C1980.9,838.7,1978.5,838.8,1978.8,836.5z"/>
		<path fill="#3E6762" d="M1973.2,835.5c0.6-3.4,3.2-5.8,3.2-5.8l-1.2,7.1C1975.3,836.7,1973.5,837.3,1973.2,835.5z"/>
		<path fill="#3E6762" d="M2022.4,837.6c3.4-0.9,6.6,0.5,6.6,0.5l-6.9,1.9C2022.1,840,2020.9,838.6,2022.4,837.6z"/>
		<path fill="#3E6762" d="M2032.4,844.6c3.4-0.9,6.6,0.5,6.6,0.5l-6.9,1.9C2032.1,847,2030.9,845.6,2032.4,844.6z"/>
		<path fill="#3E6762" d="M2042.2,849.4c3.3,1,5.4,3.8,5.4,3.8l-6.9-1.9C2040.7,851.3,2040.3,849.4,2042.2,849.4z"/>
		<path fill="#3E6762" d="M2033.2,834.3c3.3,1.1,5.3,4,5.3,4l-6.8-2.1C2031.7,836.2,2031.4,834.3,2033.2,834.3z"/>
		<path fill="#3E6762" d="M2015.3,833.4c3-1.7,6.5-1.3,6.5-1.3l-6.1,3.7C2015.6,835.7,2014.1,834.8,2015.3,833.4z"/>
		<path fill="#3E6762" d="M2002.3,839.5c3-3.7,7.6-4.9,7.6-4.9l-6,7.7C2003.9,842.3,2001.4,841.8,2002.3,839.5z"/>
		<path fill="#3E6762" d="M1992.9,833.8c1.5-3.9,5-6.1,5-6.1l-3,8C1995,835.7,1992.8,836,1992.9,833.8z"/>
	</g>
</g>
<g id="VENUS_FLYTRAP">
	<g>
		<g>
			<path fill="#FCD1C6" d="M1218.4,2127L1218.4,2127c0-3,0-1.7,0-2.3c0-51.6-169.8-93.7-379.3-93.7s-379.3,41.7-379.3,93.2
				c0,3.5,0.8,6.7,2.3,10.1l94.4,419.6h0.2c3.9,35,128.8,63.4,282.4,63.4s278.6-28.4,282.4-63.4h0.2l95.2-421.7
				c0.7-2,1.2-3.4,1.4-5.5L1218.4,2127z"/>
			<g>
				<g>
					<path fill="#FEF9D6" d="M1218.4,2127.5l-0.1-0.3C1218.4,2127.3,1218.4,2127.4,1218.4,2127.5L1218.4,2127.5z"/>
					<path fill="#FEF9D6" d="M1218.5,2125c0-51.6-169.8-93.8-379.3-93.8c-9,0-17.9,0.1-26.8,0.2c197.1,3.4,352.7,44.2,352.7,93.5
						c0,0.5,0-0.9-0.1,2l0.1,0h-0.1c0,0,0,0.1,0,0l0,0c-0.2,2.1-0.7,3.2-1.4,5.2l-95.2,421.8h-0.2c-3.6,33-114.6,60.2-255.7,63.2
						c8.8,0.2,17.7,0.2,26.7,0.2c153.6,0,278.6-28.4,282.4-63.4h0.2l95.2-421.7c0.7-2,1.2-3.2,1.4-5.3l0,0.1
						C1218.4,2124.3,1218.5,2125.5,1218.5,2125z"/>
				</g>
			</g>
			<path fill="#F7AC96" d="M672.5,2555h-0.2l-94.4-419.6c-1.5-3.4-2.3-6.7-2.3-10.1c0-46.7,139.1-85.1,320.8-92
				c-19-0.7-38.4-1.1-58.2-1.1c-209.5,0-379.3,41.6-379.3,93.2c0,3.5,0.8,6.7,2.3,10.1l94.4,419.6h0.2c3.9,35,128.8,63.5,282.4,63.5
				c20,0,39.5-0.6,58.4-1.5C770.7,2611,675.8,2586,672.5,2555z"/>
			<g>
				<g>
					<path fill="#2F4843" d="M839.1,2017.8c-192.8,0-398.1,36.9-398.1,105.4c0,1.8,15.3,69.4,33.7,151.2c2.1,9.5,8.6,17.4,17.4,21.5
						c72.8,34,212.8,51.9,346.8,51.9c135.2,0,275.6-18.2,347.8-52.7c8.5-4.1,14.5-11.9,16.6-21.1l33.4-148.8v-1.3
						C1236.8,2054.9,1031.9,2017.8,839.1,2017.8z"/>
				</g>
			</g>
			<ellipse fill="#45867F" cx="839.2" cy="2124.2" rx="379.3" ry="93.4"/>
		</g>
		<g>
			<path fill="#45867F" d="M1121.7,426.9c-185.1-45-375.1,80-405.1,270.1c-28.4,179.8,47,298.3,201.7,381.8
				c131.4,70.9,202.7,88.1,333.1,61c68.4-14.2,122.6-67.5,135.9-136.1c0.4-2.2,0.8-4.4,1.2-6.7c18.3-108.4-103.4-191.7-103.4-191.7
				s90-175.1,56.7-278.4C1308.5,423.6,1200.1,395.2,1121.7,426.9z"/>
			<path fill="#3E6762" d="M716.6,697c-28.4,179.8,47,298.3,201.7,381.8c16.9,9.1,32.8,17.3,47.9,24.7
				c-99.1-69.6-218.5-182.9-209.7-320.2c15-232.1,190.1-318.1,190.1-318.1c-120,131.7-60,338.4-60,338.4S878.3,702,950,573.6
				s171.7-146.7,171.7-146.7C936.7,381.9,746.6,506.9,716.6,697z"/>
			<path fill="#F7EB9E" d="M1012.3,418.9c-1.5,0.1-3.1,0.1-4.9,0.2c-1.8,0.1-3.8,0.3-5.9,0.5c-2.1,0.2-4.4,0.4-6.8,0.6
				c-2.4,0.2-5,0.6-7.7,1c-10.9,1.3-24,3.7-38.9,7.6c-14.9,3.9-31.4,9.4-48.8,17.1c-17.4,7.7-35.5,17.6-53.5,30
				c-18,12.4-35.9,27.2-52.3,44.7c-2,2.2-4.1,4.4-6.2,6.6c-2,2.3-4,4.6-5.9,6.9c-1,1.2-2,2.3-3,3.5c-1,1.2-1.9,2.4-2.9,3.6
				c-1.9,2.4-3.8,4.8-5.7,7.2c-7.4,9.9-14.6,20.1-20.8,31.1c-3.3,5.4-6.2,11-9.2,16.6c-0.8,1.4-1.5,2.8-2.1,4.3l-2.1,4.3l-2.1,4.3
				c-0.3,0.7-0.7,1.4-1,2.2l-0.9,2.2c-1.2,2.9-2.5,5.9-3.8,8.8l-0.9,2.2l-0.8,2.2l-1.7,4.5l-1.7,4.5l-0.8,2.2l-0.7,2.3l-3,9.1
				c-1,3-1.8,6.2-2.7,9.2l-1.3,4.6c-0.4,1.5-0.9,3.1-1.2,4.6c-0.7,3.1-1.4,6.2-2.1,9.4c-0.3,1.6-0.7,3.1-1,4.7l-0.8,4.7
				c-0.6,3.2-1.1,6.4-1.7,9.5c-0.4,3.1-0.9,6.1-1.3,9.2c-0.4,3-0.8,6.2-1.1,9.3c-0.3,3.1-0.8,6.3-1,9.4c-2.4,24.9-2.6,49.6-0.5,73.4
				c0.3,3,0.6,5.9,0.9,8.9c0.4,2.9,0.8,5.9,1.1,8.8c0.3,2.9,0.9,5.8,1.3,8.7c0.2,1.4,0.5,2.9,0.7,4.3c0.2,1.4,0.6,2.8,0.8,4.2
				c2.2,11.3,5,22.2,8.3,32.7c0.4,1.3,0.8,2.6,1.2,3.9c0.4,1.3,0.8,2.6,1.3,3.9c0.9,2.5,1.8,5.1,2.7,7.6c0.9,2.5,1.9,4.9,2.9,7.4
				c0.5,1.2,0.9,2.4,1.5,3.6c0.5,1.2,1,2.4,1.6,3.5c4.1,9.4,8.6,18.3,13.3,26.6c9.4,16.5,19.6,30.8,29.4,42.5
				c9.8,11.8,19.2,21.3,27.2,28.9c8,7.5,14.6,13,19.2,16.7c4.6,3.6,7,5.6,7,5.6s-2.2-2.2-6.3-6.4c-2.1-2-4.5-4.7-7.4-7.7
				c-1.5-1.5-3-3.2-4.6-5c-1.6-1.8-3.4-3.7-5.2-5.7c-1.8-2.1-3.6-4.2-5.6-6.5c-1.9-2.3-3.9-4.8-5.9-7.3c-1-1.3-2-2.6-3.1-3.9
				c-1-1.3-2.1-2.7-3.1-4.1c-1.1-1.4-2.1-2.8-3.2-4.3c-1.1-1.5-2.1-3-3.2-4.5c-8.7-12.3-17.5-26.7-25.5-43.2
				c-4-8.3-7.9-17-11.3-26.2c-0.4-1.2-0.9-2.3-1.3-3.5c-0.4-1.2-0.8-2.4-1.2-3.5c-0.8-2.4-1.6-4.7-2.4-7.2c-0.7-2.4-1.5-4.9-2.2-7.4
				c-0.4-1.2-0.7-2.5-1.1-3.7c-0.3-1.3-0.7-2.5-1-3.8c-0.3-1.3-0.7-2.5-1-3.8c-0.3-1.3-0.6-2.6-0.9-3.9c-0.6-2.6-1.2-5.2-1.8-7.8
				c-0.5-2.6-1-5.3-1.6-7.9c-0.5-2.7-0.9-5.4-1.3-8.1c-1.6-10.8-3-22-3.6-33.4c-0.2-2.8-0.3-5.7-0.4-8.6c-0.1-2.9-0.2-5.8-0.2-8.7
				c0-2.9-0.1-5.8-0.1-8.7c0.1-2.9,0.1-5.8,0.2-8.8c0-2.9,0.3-5.9,0.4-8.8c0.1-1.5,0.1-3,0.2-4.4c0.1-1.5,0.2-3,0.3-4.4
				c0.2-3,0.4-5.9,0.7-8.9c0.3-3,0.6-6,0.9-9c0.3-3,0.7-5.9,1.1-8.9c0.4-3,0.7-5.9,1.2-9c0.5-3.1,0.9-6.1,1.4-9.2
				c0.5-2.9,1.1-5.8,1.6-8.8l0.8-4.4c0.3-1.5,0.7-2.9,1-4.4c0.7-2.9,1.4-5.9,2-8.8c0.3-1.5,0.8-2.9,1.1-4.4l1.2-4.4
				c0.8-2.9,1.5-5.8,2.5-8.7c7.1-23.1,16.8-45.4,28.7-66.1c5.8-10.4,12.4-20.2,19.2-29.8c1.8-2.3,3.5-4.7,5.3-7
				c0.9-1.2,1.7-2.3,2.6-3.5c0.9-1.1,1.8-2.2,2.7-3.4c1.8-2.2,3.6-4.5,5.5-6.7c1.9-2.2,3.8-4.3,5.7-6.4c15.1-17,31.6-31.8,48.3-44.5
				c16.7-12.7,33.6-23.2,49.9-31.7c16.3-8.5,32-15,46.2-19.9c1.8-0.6,3.5-1.3,5.2-1.8c1.7-0.5,3.4-1.1,5.1-1.6c3.4-1,6.6-2.2,9.7-3
				c3.1-0.9,6.2-1.7,9-2.5c2.9-0.8,5.7-1.3,8.3-2c2.6-0.6,5.1-1.2,7.5-1.7c2.4-0.5,4.6-0.9,6.7-1.3c2.1-0.4,4-0.8,5.8-1.1
				c1.8-0.3,3.4-0.5,4.8-0.7c5.8-0.9,8.9-1.4,8.9-1.4S1018.1,418.7,1012.3,418.9z"/>
			<path fill="#2F4843" d="M943.3,835.9c-1.1,18.9-27.1,25.6-27.1,25.6s9.3,24.5,47.1,7.8c0,0,22.2-8.9,28.9,26.7
				s87.8,154.5,209,162.3c121.2,7.8,158.9-51.1,145.6-104.5s-103.4-93.4-111.1-131.2c-7.8-37.8,71.1-213.4,68.9-272.3
				s-33.3-103.4-142.3-86.7S923.3,662.5,943.3,835.9z"/>
			<path fill="#3E6762" d="M1251.4,1139.8c19.7-4.1,38.1-11.4,54.8-21.4c-0.2,0-78,5.3-192-39.6c-114.2-45-175.9-165.9-175.9-165.9
				s-30.8,23.3-63.4-5.8c-32.5-29.2-5.8-69.2-5.8-69.2s-38.5,26.2-39.2,82.5c-0.8,68.9,15.6,101.1,84.4,156.2c1.3,0.7,2.6,1.5,4,2.2
				C1049.8,1149.7,1121,1166.9,1251.4,1139.8z"/>
			<g>
				<path fill="#FEF9D6" d="M1013.9,746.5c3.4-6.4-34.9-38.4-53.3-62.4c-7.3,22.2-12.8,45.2-16,68.6
					C979.8,761.4,1009.9,754,1013.9,746.5z"/>
				<path fill="#FEF9D6" d="M969.5,659.8c22.3,3.7,58.5,18.3,71.1,17.2c16.4-1.5-17.2-73.6-26.9-100
					C996.5,602,981.4,630,969.5,659.8z"/>
				<path fill="#FEF9D6" d="M1102.3,584.2c12.6-2.3-1.4-64.7-6.6-92.1c-26.3,18.1-51.9,43.6-74.4,74.2
					C1042.5,569.1,1090.8,586.3,1102.3,584.2z"/>
				<path fill="#FEF9D6" d="M1217.1,460.5c20.4,25.1,52.6,72.3,59.1,75.4c6.9,3.2,10.5-23.4,11.3-42.9
					C1274.3,474.8,1252.1,462.7,1217.1,460.5z"/>
				<path fill="#FEF9D6" d="M1199.4,460.1c-11.2,0.3-23.5,1.4-37.1,3.5c-17.2,2.6-35,9.4-52.6,19.7c26.7,11.3,79,41.6,87.6,38.7
					C1206.2,519,1200.6,481.9,1199.4,460.1z"/>
			</g>
			<g>
				<path fill="#FEF9D6" d="M1261.5,1055.9c-6.2-26.1-7-74.6-14.7-71.6c-6.9,2.7-38.2,47.2-57.8,72.7c4,0.5,8.1,0.9,12.2,1.2
					C1224.2,1059.7,1244.2,1058.8,1261.5,1055.9z"/>
				<path fill="#FEF9D6" d="M1314.6,973.2c-6.9,8.3-18.2,50.5-29.1,77c26.9-8.6,44.5-23,54.3-39.9
					C1333.5,987.1,1322.4,963.8,1314.6,973.2z"/>
				<path fill="#FEF9D6" d="M1081.2,1011c8.2-30.2,30.7-87.8,22.2-87.8c-8.7,0-52.6,15.7-78.4,32.1
					C1039.5,974,1058.4,993.8,1081.2,1011z"/>
				<path fill="#FEF9D6" d="M1173,1054.3c1.7-31.9,5.9-90.4-4-93.3c-9.7-2.8-51.6,40.4-74.9,59.2
					C1117.2,1035.6,1143.7,1048.1,1173,1054.3z"/>
			</g>
			<path fill="#FEF9D6" d="M1340.1,963.8c10-17.8,6.1-63.4,4.4-67.8c-1.7-4.4-30.6,16.1-30.6,27.2
				C1314,934.3,1340.1,963.8,1340.1,963.8z"/>
			<path fill="#FEF9D6" d="M1297.4,898.7c0,0,0.6-58.4,0-67.8c-0.6-9.4-37.8,30.6-37.8,38.3C1259.6,877.1,1283.5,900.4,1297.4,898.7
				z"/>
			<path fill="#FEF9D6" d="M1272.9,664.8c15.6,16.7,34.4,66.1,33.3,71.1c-1.1,5-54.5-1.7-56.7-5.6
				C1247.3,726.5,1255.7,676.4,1272.9,664.8z"/>
			<path fill="#FEF9D6" d="M1283.5,622c16.1,3.9,37.2,14.4,42.8,16.1c5.6,1.7-15.6-72.8-25.6-82.3
				C1290.7,546.4,1276.5,620,1283.5,622z"/>
			<path fill="#F7AC96" d="M1021.3,815.4c33.1-45.1,119.6,8.3,119.6,8.3s-7.9-37.4-46.9-40.4c0,0,72.8-25.5,108.2,23.7
				c35.4,49.2,35.4,116.2,35.4,116.2s-23.3,2.4-120-24.4S1001.7,842.1,1021.3,815.4z"/>
			<path fill="#2F4843" d="M927.8,984.2c0,0-12.1,39.7,43,121.5c100.3,48,168.7,57.5,280.6,34.2
				C1251.4,1139.8,1023.4,1142.4,927.8,984.2z"/>
			<path fill="#F7EB9E" d="M881.1,855.9c-1.1,42.2,25.6,45.4,41.1,39.4C937.8,889.3,891.1,882.6,881.1,855.9z"/>
			<path fill="#F7EB9E" d="M1366,974.7c-0.1-1.4-0.2-2.4-0.2-3.2c-0.1-0.7-0.1-1.1-0.1-1.1s-0.1,1.5-0.2,4.2
				c-0.2,2.8-0.5,6.8-1.2,11.9c-0.7,5.1-1.9,11.2-3.8,18c-1.9,6.8-4.7,14.3-8.7,22c-4,7.6-9.4,15.3-16.3,22.3
				c-6.8,7-15.2,13.1-24.6,18.1c-4.7,2.5-9.7,4.6-14.9,6.5c-5.2,1.8-10.6,3.4-16.1,4.6c-2.7,0.6-5.5,1.2-8.3,1.6
				c-1.4,0.2-2.9,0.5-4.3,0.7l-4.2,0.6l-2.1,0.3l-2.1,0.2l-4.3,0.5c-2.9,0.2-5.8,0.5-8.6,0.6c-5.8,0.4-11.5,0.3-17.3,0.3
				c-5.8-0.2-11.5-0.5-17.2-1.1c-11.3-1.1-22.4-3-33-5.5c-10.6-2.5-20.7-5.5-30.1-8.9c-4.7-1.7-9.2-3.5-13.6-5.3
				c-4.4-1.8-8.5-3.6-12.5-5.5c-7.9-3.8-15.1-7.5-21.3-11c-1.6-0.9-3.1-1.7-4.5-2.6c-1.4-0.9-2.8-1.7-4.2-2.5
				c-2.7-1.6-5.1-3.1-7.3-4.4c-4.3-2.8-7.8-5-10-6.5c-2.3-1.5-3.5-2.4-3.5-2.4s1.1,1,3.2,2.8c1.1,0.9,2.3,2,3.9,3.3
				c1.6,1.3,3.3,2.8,5.4,4.3c4.1,3.2,9.1,7,15.1,11c6,4,12.9,8.4,20.8,12.7c3.9,2.2,8.1,4.3,12.4,6.4c2.2,1,4.4,2.1,6.7,3.1
				c2.3,1,4.6,2,7,3c9.5,3.9,19.8,7.6,30.6,10.5c2.7,0.7,5.5,1.5,8.3,2.1c1.4,0.3,2.8,0.6,4.2,0.9c1.4,0.3,2.8,0.6,4.3,0.8
				c2.8,0.6,5.7,1,8.6,1.5c1.5,0.2,2.9,0.4,4.4,0.6c1.5,0.2,2.9,0.4,4.4,0.5c1.5,0.2,2.9,0.3,4.4,0.5c1.5,0.1,3,0.2,4.5,0.4
				c3,0.3,6,0.3,9,0.5c6,0.1,12,0.2,18.1-0.2c3-0.1,6-0.4,9-0.7l4.5-0.5l2.2-0.3l2.3-0.3c1.5-0.2,3-0.4,4.5-0.6
				c1.4-0.3,2.9-0.5,4.3-0.8c3-0.5,5.9-1.2,8.8-1.8c11.6-2.8,22.8-7,32.9-12.6c10-5.6,18.8-12.7,25.8-20.6c3.5-3.9,6.6-8,9.2-12.2
				c2.6-4.2,4.9-8.4,6.7-12.5c1.9-4.1,3.4-8.2,4.6-12.2c1.2-4,2.1-7.7,2.8-11.3c1.4-7.2,1.9-13.5,2.1-18.7
				C1366.3,981.5,1366.1,977.4,1366,974.7z"/>
			<g>
				<path fill="#F7EB9E" d="M925.4,742.6c0,0,0-0.4,0.1-1.3c0.1-0.8,0.2-2.1,0.4-3.7c0.4-3.3,1-8.1,2-14.2c1-6.1,2.3-13.5,4.2-21.9
					c0.9-4.2,2-8.7,3.2-13.3c1.2-4.7,2.5-9.6,4-14.7c1.5-5.1,3.1-10.4,4.9-15.8c1.8-5.4,3.8-11,5.9-16.7c4.3-11.4,9.2-23.3,15-35.3
					c5.7-12,12.3-24.2,19.6-36.1c3.7-5.9,7.5-11.9,11.6-17.7c4.1-5.8,8.3-11.6,12.8-17.1c1.1-1.4,2.2-2.8,3.4-4.1l3.4-4.1
					c2.4-2.7,4.7-5.4,7.1-8c4.8-5.3,9.8-10.3,15-15.1c5.1-4.8,10.5-9.3,15.8-13.7c1.4-1.1,2.7-2.1,4.1-3.1l2-1.6l2.1-1.5
					c1.4-1,2.8-2,4.1-3c1.4-0.9,2.8-1.9,4.2-2.8c11.1-7.5,22.6-13.6,33.9-18.5c5.6-2.5,11.2-4.7,16.6-6.6c2.7-1,5.4-1.7,8.1-2.6
					c2.7-0.8,5.3-1.5,7.9-2.2c10.3-2.7,20-4.3,28.6-5.4c2.1-0.2,4.2-0.5,6.2-0.7c2-0.2,3.9-0.3,5.8-0.4c0.9-0.1,1.8-0.1,2.7-0.2
					c0.9,0,1.8-0.1,2.6-0.1c1.7-0.1,3.3-0.1,4.9-0.2c6.2-0.1,11,0,14.3,0.2c3.3,0.2,5.1,0.2,5.1,0.2s-1.8,0.1-5.1,0.3
					c-3.3,0.1-8.1,0.6-14.2,1.2c-1.5,0.2-3.1,0.4-4.8,0.6c-0.8,0.1-1.7,0.2-2.6,0.3c-0.9,0.1-1.8,0.3-2.7,0.4
					c-1.8,0.3-3.7,0.6-5.7,0.9c-2,0.3-4,0.7-6.1,1.1c-8.3,1.6-17.7,3.9-27.6,7c-2.5,0.8-5,1.6-7.5,2.6c-2.5,1-5.1,1.9-7.7,3
					c-5.2,2.1-10.5,4.4-15.9,7c-10.7,5.2-21.5,11.6-32.1,19c-1.3,0.9-2.6,1.9-4,2.8c-1.3,1-2.6,2-3.9,3l-2,1.5l-1.9,1.5
					c-1.3,1-2.6,2.1-3.9,3.1c-1.3,1.1-2.5,2.2-3.8,3.2l-1.9,1.6l-1.9,1.7c-1.3,1.1-2.5,2.3-3.8,3.4c-1.2,1.2-2.5,2.3-3.7,3.5
					c-4.9,4.7-9.7,9.6-14.3,14.7c-2.4,2.5-4.6,5.2-6.9,7.8l-3.3,4c-1.1,1.3-2.2,2.7-3.3,4c-8.7,10.8-16.6,22.2-24,33.8
					c-3.6,5.8-7.1,11.6-10.4,17.5c-3.3,5.9-6.5,11.7-9.4,17.5c-3,5.8-5.8,11.6-8.4,17.3c-2.7,5.7-5.1,11.3-7.5,16.9
					c-4.6,11.1-8.7,21.7-12.2,31.6c-3.5,9.9-6.4,19.1-8.8,27.3c-2.4,8.2-4.4,15.4-5.8,21.4c-1.5,6-2.6,10.7-3.3,13.9
					C925.7,740.9,925.4,742.6,925.4,742.6z"/>
			</g>
		</g>
		<g>
			<g>
				<path fill="#45867F" d="M688.6,1645.4c43.7-136.9,111.4-129.3,166.6-118.9c55.2,10.4,100.8-24.9,100.8-24.9
					S937.6,1731.3,688.6,1645.4z"/>
				<path fill="#3E6762" d="M871.3,1569.8c0,0-95.3-19.8-164.5,29.1c-6.4,13.3-12.6,28.7-18.3,46.6
					C747.5,1567.4,871.3,1569.8,871.3,1569.8z"/>
			</g>
			<g>
				<path fill="#45867F" d="M1033.7,2136c0,0-337.6-262.6-287-589.4s223.7-352.2,184.4-561.3c-25.7,211.2-198.3,183.2-345.3,479.4
					s95.6,648.5,95.6,648.5L1033.7,2136z"/>
				<path fill="#3E6762" d="M673.6,1548.3c95.8-316.5,270.7-317.6,261-530c0.5,1.4,1,2.8,1.5,4.2c-0.9-11.7-2.5-24-5-37.1
					c-25.7,211.2-198.3,183.2-345.3,479.4s95.6,648.5,95.6,648.5l152.2,9.8C755.4,2024.2,600.8,1789,673.6,1548.3z"/>
				<path fill="#2F4843" d="M739.3,2113.6l-4.1-0.3c0,0-242.6-352.3-95.6-648.5c99.2-199.9,210-252.2,279.5-330
					c16.8-42.1,23.6-87.8,12.1-149.5c-25.7,211.2-198.3,183.2-345.3,479.4s95.6,648.5,95.6,648.5l57.4,3.7
					C739,2115.9,739.1,2114.7,739.3,2113.6z"/>
				<path fill="#F7EB9E" d="M885.9,1109c-0.7,0.9-1.5,1.9-2.5,3.2c-1,1.3-2.1,2.8-3.5,4.4c-5.3,6.5-13.7,15.8-24.9,26.8
					c-1.4,1.4-2.8,2.8-4.4,4.2c-1.5,1.4-3.1,2.9-4.7,4.3c-3.2,3-6.6,6-10.1,9.1c-7.2,6.2-14.9,13-23.4,20
					c-16.9,14.1-36.3,29.7-56.8,47.7c-10.3,9-20.7,18.6-31.3,28.8c-5.3,5.1-10.6,10.5-15.9,15.9c-2.6,2.8-5.3,5.5-7.9,8.3
					c-1.3,1.4-2.7,2.8-4,4.2c-1.3,1.4-2.6,2.9-3.9,4.3c-21.1,23.2-41.6,49.3-60.9,77.7c-9.5,14.3-18.9,28.9-27.7,44.2
					c-9,15.2-17.3,30.9-25.5,46.9c-8,16-15.5,33.1-21.7,50.3c-6.2,17.3-11.4,35.1-15.5,53c-8.1,36-11.8,72.9-11.9,109
					c0,2.3-0.1,4.5,0,6.8c0,2.3,0.1,4.5,0.1,6.8c0,2.2,0.1,4.5,0.1,6.7c0.1,2.2,0.2,4.5,0.3,6.7c0.1,2.2,0.2,4.5,0.3,6.7
					c0.2,2.2,0.3,4.4,0.5,6.7c0.2,2.2,0.3,4.4,0.5,6.6c0.2,2.2,0.4,4.4,0.6,6.6c1.6,17.6,3.9,34.9,6.9,51.8
					c5.9,33.8,14.2,65.9,23.6,95.8c9.5,29.9,20,57.5,30.9,82.5c10.8,25,21.9,47.4,32.2,67c10.3,19.6,20.1,36.2,28.4,49.7
					c8.3,13.5,15.3,23.8,20,30.8c2.4,3.5,4.3,6.1,5.6,7.9c1.3,1.8,2,2.7,2,2.7s-2.4-3.8-6.6-11.2c-2.1-3.7-4.7-8.2-7.7-13.6
					c-3-5.4-6.3-11.6-10-18.6c-7.4-14-15.9-31.1-25.2-51c-4.6-10-9.4-20.6-14.1-32c-4.8-11.3-9.7-23.3-14.5-35.9
					c-4.8-12.6-9.6-25.8-14.2-39.6c-4.6-13.8-9.1-28.1-13.2-42.9c-8.3-29.6-15.6-61.3-20.7-94.4c-2.5-16.6-4.5-33.4-5.8-50.6
					c-0.2-2.1-0.4-4.3-0.5-6.4c-0.1-2.2-0.2-4.3-0.4-6.5c-0.1-2.2-0.2-4.3-0.4-6.5c-0.1-2.2-0.1-4.3-0.2-6.5
					c-0.1-2.2-0.2-4.3-0.2-6.5c0-2.2-0.1-4.4-0.1-6.5c0-2.2,0-4.4-0.1-6.5c0-2.2,0-4.4,0.1-6.6c0.5-35,4.1-70.4,12-105
					c3.9-17.3,8.8-34.3,14.7-50.9c5.9-16.7,12.6-32.6,20.4-48.5c7.9-15.7,15.9-31.3,24.4-46.3c2.1-3.7,4.2-7.5,6.4-11.2
					c2.2-3.7,4.4-7.3,6.6-11c1.1-1.8,2.2-3.6,3.3-5.5c1.1-1.8,2.3-3.6,3.4-5.4c2.2-3.6,4.5-7.1,6.7-10.7
					c18.3-28.1,37.6-54.2,57.6-77.5c1.2-1.5,2.5-2.9,3.7-4.4c1.2-1.5,2.5-2.9,3.8-4.3c2.5-2.8,5-5.7,7.5-8.5
					c5.1-5.5,10-10.9,15.1-16.2c5-5.3,10-10.3,15-15.3c5-4.9,9.9-9.7,14.8-14.4c4.8-4.7,9.7-9.2,14.4-13.6
					c4.8-4.4,9.4-8.7,13.9-12.9c9.1-8.4,17.7-16.3,25.8-23.8c8.1-7.5,15.6-14.6,22.4-21.4c3.3-3.4,6.6-6.6,9.6-9.9
					c1.5-1.6,3-3.2,4.4-4.7c1.4-1.5,2.8-3.1,4.1-4.5c1.3-1.5,2.6-2.9,3.9-4.3c1.2-1.4,2.4-2.8,3.5-4.2c1.1-1.4,2.2-2.7,3.3-3.9
					c1.1-1.3,2-2.6,3-3.8c0.9-1.2,1.9-2.4,2.7-3.5c0.9-1.1,1.7-2.2,2.5-3.3c1.5-2.1,2.9-4,4.2-5.8c1.3-1.7,2.3-3.3,3.2-4.6
					c0.9-1.4,1.6-2.5,2.2-3.4c1.2-1.8,1.8-2.8,1.8-2.8S887.2,1107.2,885.9,1109z"/>
			</g>
			<g>
				<path fill="#2F4843" d="M575,1713c-15.4-211-115-223.5-197.6-227.6c-82.6-4.1-135.7-70.4-135.7-70.4S189,1750.3,575,1713z"/>
				<path fill="#F7EB9E" d="M536.3,1715c-1.7-0.1-3.8-0.2-6.3-0.4c-1.2-0.1-2.6-0.2-4-0.3c-1.4-0.1-2.9-0.2-4.5-0.3
					c-1.6-0.1-3.3-0.2-5-0.4c-1.8-0.1-3.6-0.3-5.5-0.5c-1.9-0.2-3.9-0.4-6-0.5c-2.1-0.2-4.2-0.5-6.4-0.7c-2.2-0.2-4.5-0.5-6.8-0.7
					c-2.3-0.3-4.7-0.6-7.2-0.9c-4.9-0.6-10-1.4-15.4-2.2c-5.3-1-10.9-1.8-16.6-3c-1.4-0.3-2.9-0.6-4.3-0.9c-1.4-0.3-2.9-0.6-4.3-1
					c-2.9-0.7-5.9-1.3-8.9-2.1c-11.9-2.9-24.3-6.7-36.7-11.3c-1.5-0.6-3.1-1.2-4.7-1.8c-1.5-0.6-3.1-1.3-4.6-1.9
					c-3.1-1.2-6.2-2.7-9.3-4.1c-6.1-2.9-12.3-6-18.3-9.4c-6.1-3.3-11.8-7.2-17.6-11c-5.7-3.9-11.2-8.2-16.6-12.7
					c-5.3-4.5-10.4-9.3-15.2-14.2c-4.8-5-9.4-10.2-13.7-15.6c-1.1-1.4-2.1-2.7-3.2-4.1c-1-1.4-2-2.8-3-4.1c-1-1.4-2-2.8-2.9-4.2
					c-1-1.4-1.9-2.8-2.8-4.2c-3.7-5.6-7.1-11.4-10.2-17.2c-6.3-11.6-11.4-23.4-15.6-34.9c-4.2-11.5-7.5-22.6-10.1-33.1
					c-1.3-5.2-2.4-10.3-3.4-15.1c-0.5-2.4-0.9-4.8-1.4-7.1c-0.4-2.3-0.8-4.5-1.2-6.7c-1.5-8.7-2.5-16.4-3.2-22.7
					c-0.7-6.3-1.2-11.3-1.5-14.8c-0.3-3.4-0.5-5.3-0.5-5.3s-0.1,0.5-0.2,1.3c-0.1,0.9-0.3,2.2-0.5,3.9c-0.3,3.4-0.9,8.5-1.2,14.9
					c-0.3,6.4-0.5,14.3-0.2,23.3c0.3,9,1,19.2,2.5,30.2c0.7,5.5,1.8,11.3,2.9,17.2c1.2,5.9,2.7,12,4.4,18.2
					c3.5,12.4,8.1,25.3,14.2,38.1c1.5,3.2,3.1,6.4,4.8,9.6c0.9,1.6,1.8,3.2,2.6,4.7c0.9,1.6,1.8,3.1,2.8,4.7
					c3.8,6.3,7.9,12.5,12.4,18.4c4.6,5.9,9.4,11.8,14.6,17.3c5.3,5.5,10.8,10.7,16.6,15.7c5.9,4.9,11.9,9.5,18.2,13.8
					c1.6,1.1,3.2,2.1,4.7,3.1c1.6,1,3.2,2,4.8,3c1.6,1,3.2,1.9,4.9,2.9c1.6,0.9,3.3,1.8,4.9,2.7c3.3,1.8,6.6,3.4,9.9,5
					c1.7,0.8,3.4,1.5,5,2.3c1.7,0.7,3.3,1.5,5,2.2c3.4,1.3,6.7,2.8,10.1,4c1.7,0.6,3.4,1.2,5,1.8c1.7,0.6,3.4,1.1,5.1,1.6
					c13.4,4.3,26.7,7.3,39.3,9.4c12.6,2.1,24.7,3.3,35.8,3.9c2.8,0.1,5.5,0.2,8.1,0.3c1.3,0,2.6,0.1,3.9,0.1c1.3,0,2.6,0,3.8,0
					c2.5,0,5,0,7.4,0c2.4-0.1,4.7-0.1,7-0.2c4.5-0.1,8.7-0.3,12.6-0.6c1.9-0.1,3.8-0.2,5.6-0.4c1.8-0.2,3.5-0.3,5.1-0.5
					c6.4-0.5,11.4-1.2,14.8-1.7c3.4-0.5,5.2-0.7,5.2-0.7S539.7,1715.3,536.3,1715z"/>
			</g>
		</g>
		<g>
			<path fill="#3E6762" d="M459.8,2124.2c0,51.6,169.8,93.4,379.3,93.4s379.3-41.8,379.3-93.4
				C1033.7,2046.3,624.5,2047.2,459.8,2124.2z"/>
			<path fill="#2F4843" d="M1150.5,2164.5c-177.1-47.1-458.5-47-625-0.8c68.3,24.7,183.3,40.9,313.7,40.9
				C968.1,2204.5,1082,2188.7,1150.5,2164.5z"/>
		</g>
	</g>
</g>
</svg>
