<svg xmlns="http://www.w3.org/2000/svg" viewBox="637 1708 100 100"><defs><style>.b{fill:#c0a360}</style></defs><g transform="translate(637 1708)" fill="#fff" stroke="#f5f5f5" stroke-width="4"><circle cx="50" cy="50" r="50" stroke="none"/><circle cx="50" cy="50" r="48" fill="none"/></g><path class="b" d="M698.624 1754.98a1.18 1.18 0 1 0-2.194.867 12.953 12.953 0 1 1-7.28-7.282 1.18 1.18 0 0 0 .872-2.192 15.295 15.295 0 1 0 8.6 8.607z"/><path class="b" d="M705.9 1754.44a1.18 1.18 0 0 0-2.268.649 20 20 0 1 1-13.72-13.727 1.18 1.18 0 1 0 .651-2.268 22.358 22.358 0 1 0 15.337 15.346z"/><path class="b" d="M692.593 1759.89a1.18 1.18 0 1 0-2.35.21c.015.168.023.34.023.511a5.887 5.887 0 1 1-5.886-5.888c.181 0 .359.008.528.023a1.18 1.18 0 0 0 .217-2.349 8.216 8.216 0 0 0-.744-.033 8.246 8.246 0 1 0 8.246 8.247 8.615 8.615 0 0 0-.034-.721z"/><path class="b" d="M711.819 1740.931a2.353 2.353 0 0 0-2.18-1.457h-4.113v-4.113a2.359 2.359 0 0 0-4.028-1.669l-6.873 6.873a3.514 3.514 0 0 0-1.036 2.5v6.675l-9.587 9.587a1.18 1.18 0 1 0 1.668 1.668l9.587-9.587h6.675a3.515 3.515 0 0 0 2.5-1.036l6.873-6.873a2.351 2.351 0 0 0 .514-2.568zm-15.87 2.136a1.171 1.171 0 0 1 .345-.833l6.873-6.872v4.8l-7.218 7.218v-4.313zm6.818 5.639a1.187 1.187 0 0 1-.833.345h-4.316l7.218-7.218h4.8z"/></svg>