<svg xmlns="http://www.w3.org/2000/svg" viewBox="893 7942 51.639 51.639"><path d="M918.82 7942a25.82 25.82 0 1 0 25.82 25.82 25.8 25.8 0 0 0-25.82-25.82zm12.98 21.373c.359 8.391-5.881 17.787-17 17.787a16.83 16.83 0 0 1-9.18-2.725 12.063 12.063 0 0 0 8.893-2.51 6.036 6.036 0 0 1-5.594-4.16 5.814 5.814 0 0 0 2.725-.072 5.985 5.985 0 0 1-4.805-5.953 5.706 5.706 0 0 0 2.725.717 5.972 5.972 0 0 1-1.864-7.957 16.756 16.756 0 0 0 12.336 6.24 6 6 0 0 1 10.184-5.523 13.447 13.447 0 0 0 3.8-1.434 5.545 5.545 0 0 1-2.654 3.3 13.543 13.543 0 0 0 3.443-.932 13 13 0 0 1-3.009 3.222z" fill="#fff"/></svg>