<svg xmlns="http://www.w3.org/2000/svg" viewBox="1018 1708 100 100"><defs><style>.b{fill:#c0a360}</style></defs><g transform="translate(1018 1708)" fill="#fff" stroke="#f5f5f5" stroke-width="4"><circle cx="50" cy="50" r="50" stroke="none"/><circle cx="50" cy="50" r="48" fill="none"/></g><path class="b" d="M1089.062 1749.917a30.525 30.525 0 0 0-43.121 0l-7.941 7.939 8.138 8.138a30.525 30.525 0 0 0 43.122 0l7.94-7.938zm-1.217 14.664a28.525 28.525 0 0 1-40.293 0l-6.724-6.725 6.527-6.527a28.525 28.525 0 0 1 40.293 0l6.724 6.727z"/><path class="b" d="M1066.572 1749.926a7.008 7.008 0 0 0-7 7 1 1 0 0 0 2 0 5.006 5.006 0 0 1 5-5 1 1 0 0 0 0-2z"/><path d="M1067.572 1744.926a13 13 0 1 0 13 13 13.015 13.015 0 0 0-13-13zm0 24a11 11 0 1 1 11-11 11.013 11.013 0 0 1-11 11z" fill="#be9b47"/></svg>