<svg xmlns="http://www.w3.org/2000/svg" viewBox="976 7942 51.639 51.639"><path d="M1014.084 7956.559v3.156a.949.949 0 0 1-.932.932h-3.084a.949.949 0 0 1-.932-.932v-3.156a.949.949 0 0 1 .932-.932h3.084a.9.9 0 0 1 .932.932zm-11.906 15.636a4.232 4.232 0 1 0-4.232-4.232 4.286 4.286 0 0 0 4.232 4.232zm25.461-4.375a25.82 25.82 0 1 1-25.819-25.82 25.8 25.8 0 0 1 25.819 25.82zm-10.9-4.16h-8.463a7.459 7.459 0 1 1-12.193 0h-8.463v13.053a5.755 5.755 0 0 0 5.738 5.738h17.572a5.755 5.755 0 0 0 5.738-5.738v-13.053zm-14.561 10.04a5.755 5.755 0 0 0 5.738-5.738 5.9 5.9 0 0 0-1.936-4.3 7.072 7.072 0 0 0-1.434-.932 5.2 5.2 0 0 0-2.367-.5 6.34 6.34 0 0 0-2.367.5 6.152 6.152 0 0 0-1.434.932 5.649 5.649 0 0 0-1.936 4.3 5.755 5.755 0 0 0 5.736 5.738zm14.56-14.7a5.755 5.755 0 0 0-5.738-5.74h-15.707v7.24h-1.148v-7.24h-.789v7.24h-1.148v-7.1a4.043 4.043 0 0 0-.861.287v6.813h-1.219v-6.164a5.837 5.837 0 0 0-2.437 4.664v3.8h9.18a7.446 7.446 0 0 1 10.615 0h9.252v-3.8z" fill="#fff"/></svg>