<svg id="Layer_1" xmlns="http://www.w3.org/2000/svg" viewBox="0 0 182.8 50"><style>.st0{fill:#be9b47}</style><g id="_2039622442624"><path d="M74.8 41.1V9.5h-6v13H57v-13h-6v31.6h6V27.8h11.8v13.3zm17.3 0c5.7 0 8.6-2.8 8.6-7.3v-3.4c0-3.1-1.7-5.2-4.6-5.9 2.4-1 3.5-2.5 3.5-5.1v-3.3c0-4.3-2.4-6.8-8.4-6.8H78.8v31.6h13.3zm2.6-8c0 2.3-1.1 3.1-3.9 3.1h-6.1v-8.6h6.6c2.4 0 3.3 1.1 3.3 3.2v2.3zm-1-13.3c0 1.8-.9 2.9-3.2 2.9h-5.7v-8.3h5.7c2.2 0 3.1.8 3.1 2.6v2.8zm29.1 12.7c0-6.3-.4-7.7-8.9-9.7-5.5-1.3-5.6-1.4-5.6-5 0-2.8.7-3.6 4.8-3.6 2.8 0 5.8.4 8.5.9l.7-5c-3.1-.7-6.5-1-9.2-1-8 0-10.6 2.8-10.6 8.6 0 6.7 1.1 8.2 8.7 9.9 5.7 1.2 5.8 1.5 5.8 5 0 3-.7 3.9-5 3.9-3.1 0-6-.6-8.9-1.5l-1.1 4.7c2.1 1 6.3 1.9 9.9 1.9 9.1 0 10.9-3.1 10.9-9.1zm6.8.7c0-2 .8-2.6 2.9-2.6.7 0 1.5.1 2.4.2l.2-1.1c-.8-.2-1.8-.3-2.6-.3-3.2 0-4.3 1.5-4.3 3.9v4c0 2.4 1.1 3.9 4.3 3.9.8 0 1.8-.1 2.6-.3l-.2-1.1c-1 .2-1.7.2-2.4.2-2.1 0-2.9-.6-2.9-2.6v-4.2zm14-.6c0-2.1-1.2-3.3-4.1-3.3-1.2 0-2.6.2-3.5.4l.2 1.1c1-.2 2.2-.4 3.3-.4 1.9 0 2.7.5 2.7 2.1v2.2h-3.3c-2.2 0-3.3.7-3.3 3.1 0 2 .9 3.2 2.9 3.2 1.5 0 2.7-.4 3.8-1.1l.1.9h1.2v-8.2zm-1.4 6.2c-1 .7-2.3 1.2-3.5 1.2-1.6 0-1.9-.6-1.9-1.9 0-1.5.5-2 2-2h3.3v2.7zm-4.9-10.6c1-.5 1.7-1 2.5-1.5.8.5 1.5.9 2.5 1.5l.5-.9c-1.1-.7-2-1.3-3-2-1.1.7-2 1.4-3 2l.5.9zm23 12.7v-9c0-1.6-.6-2.6-2.4-2.6-1.4 0-3.4.7-4.7 1.3-.3-.8-1-1.3-2.2-1.3-1.4 0-3.4.7-4.6 1.3l-.1-1h-1.2v11.3h1.3v-9c1.4-.7 3.4-1.3 4.3-1.3.8 0 1.2.3 1.2 1.1v9.2h1.3v-9c1.4-.7 3.3-1.3 4.3-1.3.8 0 1.2.3 1.2 1.1v9.2h1.6zm9.9-8.2c0-2-1-3.3-3.2-3.3-1.5 0-2.8.4-3.7.9v-5.4l-1.3.2v15.8c1 .3 2.8.4 3.8.4 3.4 0 4.5-1.5 4.5-4v-4.6zm-6.9-1.1c1.1-.6 2.2-1 3.5-1 1.5 0 2.1.6 2.1 2v4.6c0 1.7-.6 2.7-3 2.7-.8 0-1.7-.1-2.6-.2v-8.1zm9.6 9.3V29.6h-1.3v11.3h1.3zm0-13.5V25h-1.3v2.5h1.3zm9.9 9.6v-3.6c0-2.3-1.2-4.1-4.4-4.1s-4.4 1.8-4.4 4.1V37c0 2.3 1.2 4.1 4.4 4.1s4.4-1.8 4.4-4.1zm-1.3.1c0 1.9-.9 2.9-3 2.9s-3-.9-3-2.9v-3.6c0-1.9.9-2.9 3-2.9s3 .9 3 2.9v3.6z"/><path class="st0" d="M0 35.4V4.5h31v10.2H10.4v20.7H0"/><path class="st0" d="M41.4 14.7v30.9h-31V35.4H31V14.7h10.4"/></g></svg>