<?xml version="1.0" standalone="no"?>
<!DOCTYPE svg PUBLIC "-//W3C//DTD SVG 20010904//EN"
 "http://www.w3.org/TR/2001/REC-SVG-20010904/DTD/svg10.dtd">
<svg version="1.0" xmlns="http://www.w3.org/2000/svg"
 width="800.000000pt" height="600.000000pt" viewBox="0 0 800.000000 600.000000"
 preserveAspectRatio="xMidYMid meet">

<g transform="translate(0.000000,600.000000) scale(0.100000,-0.100000)"
fill="#000000" stroke="none">
<path d="M2616 5991 c-4 -5 -20 -12 -36 -16 -41 -9 -47 -24 -19 -46 l24 -18
-38 10 c-27 7 -48 7 -75 -2 -42 -14 -179 -86 -187 -100 -3 -4 -26 -17 -50 -28
-25 -11 -45 -25 -45 -30 0 -6 -6 -11 -14 -11 -14 0 -135 -80 -221 -145 -138
-105 -220 -178 -375 -339 -30 -31 -68 -69 -83 -84 -16 -15 -47 -52 -70 -82
-22 -30 -53 -71 -69 -90 -16 -19 -32 -39 -36 -45 -4 -5 -28 -37 -53 -70 -24
-33 -56 -78 -69 -100 -13 -21 -32 -47 -42 -57 -10 -10 -18 -22 -18 -27 0 -5
-6 -16 -13 -23 -16 -17 -65 -108 -133 -248 -31 -63 -60 -123 -66 -134 -5 -10
-25 -60 -44 -110 -19 -50 -39 -100 -44 -111 -16 -37 -69 -219 -89 -305 -40
-172 -58 -278 -81 -475 -16 -133 -10 -547 7 -552 9 -3 10 -10 4 -21 -5 -10 -3
-53 5 -107 7 -49 14 -108 14 -131 0 -22 3 -44 7 -48 5 -4 8 -15 9 -24 2 -68
65 -327 114 -467 28 -80 38 -106 70 -180 5 -11 12 -31 16 -45 12 -44 138 -291
204 -400 87 -144 134 -213 200 -295 31 -38 81 -101 112 -140 52 -64 260 -274
352 -354 21 -18 95 -76 165 -127 69 -51 140 -104 156 -118 50 -39 264 -166
360 -212 186 -89 150 -84 595 -83 217 0 382 4 365 9 -16 4 -73 15 -125 25
-313 57 -745 230 -1016 408 l-102 67 -75 0 c-75 0 -76 0 -103 35 -28 37 -27
65 3 65 11 1 4 7 -15 15 -18 8 -31 19 -27 24 3 6 -51 65 -121 133 -69 68 -169
174 -222 236 -52 61 -99 112 -103 112 -3 0 -9 8 -13 18 -3 9 -21 37 -41 62
-19 25 -38 52 -43 60 -4 8 -30 49 -57 90 -51 76 -59 90 -129 219 -21 39 -42
71 -47 71 -5 0 -9 9 -9 21 0 11 -10 35 -22 52 -12 17 -23 38 -24 46 -1 9 -20
64 -42 122 -62 165 -142 436 -142 485 0 6 12 14 28 18 15 3 37 8 50 12 17 5
22 2 22 -12 0 -37 61 -258 106 -382 65 -182 195 -444 303 -612 87 -136 348
-450 373 -450 4 0 8 13 8 29 0 21 6 32 20 36 11 3 20 15 20 26 0 14 -7 19 -30
19 -21 0 -30 5 -30 16 0 11 6 15 18 11 59 -19 57 -19 74 20 20 43 18 48 -55
131 -86 99 -132 155 -136 166 -2 6 -23 38 -45 71 -23 33 -67 102 -97 153 -30
51 -62 95 -71 98 -11 3 -18 15 -18 29 0 18 -4 23 -15 19 -18 -7 -20 7 -3 24 8
8 8 15 0 24 -6 7 -20 38 -32 68 -11 30 -28 70 -36 89 -28 59 -94 272 -124 396
-34 139 -56 282 -69 448 -6 65 -13 122 -17 128 -3 6 -19 8 -35 5 -30 -6 -59 1
-59 13 0 12 69 41 83 35 11 -4 16 11 21 62 4 38 3 71 -2 76 -6 6 -25 6 -48 0
-22 -6 -65 -13 -97 -17 -41 -5 -60 -12 -67 -25 -8 -15 -8 -87 -1 -141 1 -4 11
-9 23 -12 32 -9 14 -20 -40 -27 -29 -3 -46 -10 -45 -18 3 -13 -64 -17 -104 -6
-33 9 -28 28 5 21 43 -9 50 2 53 79 2 83 -3 96 -37 88 -13 -3 -24 -2 -24 4 0
5 13 12 29 15 35 7 32 -5 56 236 12 116 13 167 6 174 -15 15 -14 27 2 27 15 0
37 62 37 101 0 24 63 248 101 362 11 32 38 99 60 150 23 51 47 109 55 130 32
85 111 234 175 329 22 32 39 60 39 63 0 6 41 66 51 75 5 5 135 169 223 282 27
35 85 95 129 133 44 39 101 89 128 113 26 24 67 58 91 77 l43 35 28 -31 c40
-46 33 -81 -23 -105 -28 -13 -190 -151 -190 -162 0 -4 -21 -30 -46 -57 -25
-28 -73 -81 -107 -120 -33 -38 -67 -77 -76 -85 -49 -47 -191 -244 -191 -266 0
-4 -14 -30 -32 -58 -144 -235 -304 -609 -337 -791 -5 -27 -14 -68 -20 -91 -6
-23 -13 -56 -16 -75 -2 -19 -11 -66 -19 -105 -8 -39 -18 -123 -22 -188 l-7
-118 54 7 c30 4 79 12 109 19 63 14 54 -10 85 226 9 69 18 134 20 145 7 44 66
271 75 290 16 33 40 109 40 125 0 8 6 26 13 40 7 14 21 48 31 75 10 28 24 57
31 65 7 8 32 53 55 100 23 46 62 117 86 156 24 40 44 77 44 83 0 6 16 32 35
58 19 27 50 68 67 92 64 86 156 187 294 322 164 162 214 205 318 279 43 30 96
69 119 86 23 17 53 35 67 39 14 4 82 36 153 71 194 96 325 146 552 209 68 19
310 62 415 74 47 5 175 9 286 8 110 0 206 3 213 7 7 4 26 1 44 -7 18 -8 77
-20 132 -27 176 -21 294 -49 440 -105 39 -14 99 -35 135 -46 184 -58 471 -227
732 -432 85 -67 318 -301 389 -392 177 -227 277 -395 409 -690 34 -78 121
-367 140 -467 14 -71 35 -101 66 -95 31 5 41 -9 16 -22 -13 -7 -22 -7 -30 1
-21 21 -24 -17 -12 -153 14 -164 14 -466 0 -562 -47 -323 -97 -519 -185 -732
-40 -97 -131 -284 -146 -299 -5 -6 -9 -16 -9 -24 0 -7 -22 -46 -50 -86 -27
-40 -50 -80 -50 -89 0 -9 -5 -17 -10 -17 -6 0 -18 -15 -27 -34 -9 -19 -43 -63
-75 -98 -32 -35 -61 -73 -64 -85 -3 -12 -11 -23 -18 -25 -22 -6 -261 -261
-248 -265 6 -3 12 -11 12 -19 0 -10 -13 -14 -43 -14 -32 0 -49 -6 -65 -23 -11
-12 -53 -44 -93 -72 -39 -27 -81 -60 -92 -73 -11 -12 -25 -22 -29 -22 -5 0
-39 -19 -76 -43 -37 -23 -76 -47 -87 -53 -12 -7 -21 -24 -23 -43 -2 -17 -6
-31 -10 -31 -4 -1 -32 -2 -63 -4 -34 -2 -69 -10 -87 -22 l-30 -19 93 0 c58 0
98 -4 106 -12 15 -15 -97 -27 -199 -20 -67 4 -88 1 -162 -25 -221 -76 -399
-121 -605 -154 -149 -24 -495 -28 -664 -8 -205 25 -394 67 -551 124 -219 79
-210 78 -440 73 -112 -2 -206 -6 -208 -8 -11 -10 299 -175 329 -175 10 0 20
-4 23 -9 4 -5 32 -17 64 -27 31 -10 84 -30 117 -44 108 -48 323 -105 508 -135
50 -8 92 -17 95 -20 3 -3 5 -23 4 -45 l-3 -40 164 0 c162 0 165 0 171 23 9 35
7 60 -9 91 -13 25 -13 32 1 61 14 31 47 50 66 39 4 -3 8 -52 8 -110 l0 -104
61 0 c54 0 60 2 54 18 -28 65 -21 149 15 187 26 28 46 31 84 14 32 -15 53 -59
68 -148 l12 -71 61 0 c57 1 59 2 34 15 -74 40 -77 223 -3 241 15 4 39 3 53 -2
37 -13 78 -101 87 -186 l7 -68 77 0 77 0 -26 95 c-16 57 -34 100 -45 108 -17
13 -18 17 -5 58 11 35 19 45 39 47 24 3 27 -2 39 -50 7 -29 24 -99 39 -156
l26 -102 244 0 244 0 166 82 c161 80 492 287 492 308 0 5 6 10 13 10 23 0 229
174 350 294 69 69 203 217 233 257 10 15 47 62 80 105 216 279 431 717 527
1074 91 335 122 589 114 925 -3 127 -10 266 -17 310 -35 246 -45 304 -81 445
-44 171 -48 183 -112 355 -229 611 -665 1161 -1217 1534 -148 100 -233 149
-403 233 l-138 68 -358 0 -359 0 -6 -22 c-9 -35 -8 -38 14 -38 13 0 20 7 20
20 0 23 18 27 26 6 8 -22 -15 -98 -29 -93 -7 2 -12 10 -12 18 0 7 -8 15 -17
17 -14 3 -18 -3 -18 -26 0 -16 -3 -50 -6 -76 -6 -42 -5 -46 15 -46 11 0 21 4
21 9 0 5 4 21 10 36 8 21 13 24 29 16 18 -10 19 -21 6 -87 -5 -22 -1 -22 -143
2 -48 8 -62 22 -40 38 8 6 20 36 26 66 7 30 18 78 26 105 l13 50 -44 3 c-36 3
-47 -1 -63 -20 -15 -19 -16 -26 -5 -38 7 -9 14 -51 17 -103 4 -86 4 -88 -16
-83 -12 3 -31 6 -43 6 -21 0 -22 5 -25 87 -2 58 -7 88 -15 91 -8 2 -13 -6 -13
-24 0 -14 -5 -44 -12 -66 -9 -29 -9 -41 0 -50 20 -20 14 -29 -15 -27 -16 1
-37 1 -47 1 -18 -2 -19 -3 -1 -22 29 -31 14 -31 -24 1 l-34 28 26 21 c25 20
26 25 26 111 l0 89 -27 0 c-24 0 -27 -4 -28 -32 -1 -51 -20 -125 -38 -152 -9
-15 -29 -28 -50 -31 -49 -10 -81 15 -101 78 -10 31 -30 64 -48 81 -31 27 -28
29 21 9 8 -3 12 4 12 21 0 26 -1 26 -75 26 l-75 0 0 -65 c0 -72 21 -135 44
-135 22 0 46 40 46 78 0 22 4 31 11 26 14 -9 5 -68 -16 -100 -20 -31 -83 -34
-109 -5 -23 25 -46 104 -46 158 l0 43 -89 0 -89 0 5 -95 c5 -79 3 -98 -11
-120 -20 -30 -60 -49 -125 -59 -42 -6 -43 -6 -37 17 3 13 -3 75 -14 138 -11
63 -20 115 -20 117 0 1 -20 2 -45 2 l-46 0 6 -34 c4 -19 2 -42 -3 -53 -8 -15
-5 -23 14 -42 13 -13 24 -28 24 -34 0 -6 10 -21 22 -34 12 -13 16 -23 10 -23
-17 0 -15 -25 3 -40 20 -17 19 -28 -5 -34 -11 -3 -28 -8 -38 -11 -15 -4 -21 3
-31 35 -11 36 -45 69 -58 56 -11 -10 8 -76 25 -85 22 -13 10 -23 -42 -36 l-43
-11 1 37 c1 43 -31 89 -46 67 -6 -8 -6 1 -2 22 4 19 8 46 8 60 1 23 -2 25 -46
24 -26 0 -50 -3 -54 -7 -12 -12 6 -56 25 -62 13 -4 23 -22 31 -55 8 -32 21
-57 38 -70 27 -22 26 -28 -6 -35 -11 -2 -30 -8 -41 -14 -28 -16 -31 -14 -31
17 -1 40 -23 64 -57 60 -25 -3 -28 -7 -26 -38 1 -20 9 -40 19 -47 19 -14 12
-27 -21 -37 -18 -5 -20 -1 -21 40 -1 25 -6 49 -13 53 -20 13 -56 5 -59 -13 -5
-25 18 -76 34 -76 28 0 13 -26 -25 -41 -42 -18 -51 -16 -51 11 0 26 -29 79
-50 90 -13 7 -21 6 -29 -4 -12 -15 20 -93 48 -113 9 -6 14 -13 11 -15 -24 -15
-70 -38 -79 -38 -6 0 -11 12 -12 28 0 15 -13 50 -27 77 l-27 50 -90 7 c-90 7
-161 23 -180 41 -6 6 1 7 20 3 17 -3 59 -10 95 -16 36 -5 75 -12 88 -16 13 -4
22 -2 22 4 0 6 -10 13 -22 15 -20 4 -19 4 5 6 21 1 27 6 27 25 0 35 -21 48
-68 40 -28 -4 -56 -1 -89 12 -62 23 -76 35 -26 24 21 -5 52 -7 68 -5 17 2 35
4 42 4 6 1 9 10 6 20 -4 15 4 24 33 37 22 10 42 20 47 22 4 2 7 -5 7 -16 0
-20 25 -36 41 -26 12 7 11 34 -1 34 -23 0 -7 29 24 44 46 22 58 20 54 -6 -3
-22 0 -23 47 -20 27 2 52 6 55 8 2 3 4 23 4 44 -1 31 3 40 23 49 13 6 29 11
36 11 11 0 67 -58 87 -90 6 -10 12 -11 22 -3 7 6 24 13 38 16 23 4 23 4 -4 6
-32 1 -28 13 6 18 30 5 32 8 22 45 l-10 33 -181 3 c-106 1 -184 -1 -187 -7z
m2617 -261 c243 -120 391 -215 594 -377 90 -72 307 -280 374 -358 89 -105 229
-290 229 -304 0 -5 4 -11 9 -13 12 -4 122 -190 178 -303 98 -194 183 -418 233
-615 17 -63 30 -118 30 -121 0 -4 -12 -9 -27 -12 -16 -3 -38 -8 -50 -12 -18
-6 -23 -3 -27 16 -129 615 -485 1205 -966 1605 -159 132 -343 264 -369 264 -5
0 -11 4 -13 8 -7 16 -183 109 -350 185 l-77 35 17 42 c15 37 20 41 45 36 16
-3 92 -37 170 -76z m-2226 64 c-3 -3 -12 -4 -19 -1 -8 3 -5 6 6 6 11 1 17 -2
13 -5z m-737 -104 c0 -5 -2 -10 -4 -10 -3 0 -8 5 -11 10 -3 6 -1 10 4 10 6 0
11 -4 11 -10z m-130 -344 c0 -3 -4 -8 -10 -11 -5 -3 -10 -1 -10 4 0 6 5 11 10
11 6 0 10 -2 10 -4z m4730 -1286 c0 -5 -4 -10 -10 -10 -5 0 -10 5 -10 10 0 6
5 10 10 10 6 0 10 -4 10 -10z m33 -616 c26 -44 29 -45 65 -40 60 10 71 -6 33
-45 -20 -22 -30 -41 -27 -54 2 -11 7 -35 11 -54 8 -34 8 -34 -21 -27 -74 18
-83 18 -113 -3 -45 -32 -54 -28 -48 24 5 48 -2 61 -49 92 -13 8 -24 19 -24 23
0 5 22 16 49 25 43 14 51 21 62 53 21 67 25 67 62 6z m-153 -34 c0 -5 -4 -10
-10 -10 -5 0 -10 5 -10 10 0 6 5 10 10 10 6 0 10 -4 10 -10z m-87 -57 c-7 -2
-21 -2 -30 0 -10 3 -4 5 12 5 17 0 24 -2 18 -5z m-5896 -25 c-3 -8 -6 -5 -6 6
-1 11 2 17 5 13 3 -3 4 -12 1 -19z m6175 -398 c-4 -291 -50 -564 -148 -875
-19 -60 -39 -118 -44 -127 -6 -10 -19 -46 -31 -80 -12 -35 -30 -79 -40 -98
-10 -19 -35 -71 -57 -115 -47 -95 -65 -128 -123 -220 -24 -39 -48 -78 -54 -87
-59 -96 -239 -317 -367 -449 -258 -266 -479 -425 -845 -608 -115 -57 -264
-114 -274 -104 -4 4 -15 25 -24 46 -14 35 -14 38 2 44 77 26 269 112 347 155
188 103 206 114 233 139 16 14 74 56 131 93 56 38 102 72 102 77 0 4 -8 10
-17 12 -10 3 -3 5 15 6 27 1 53 20 149 109 117 108 251 251 327 351 48 62 186
261 186 267 0 2 15 28 34 57 32 50 106 198 171 342 33 73 86 216 113 307 30
97 98 435 90 443 -4 4 -22 11 -40 16 l-33 8 33 -3 c35 -3 44 5 48 39 13 126
24 334 19 365 -4 22 -4 44 0 50 3 5 27 9 53 8 l46 -3 -2 -165z m-5955 -210 c3
-3 30 -7 61 -10 l56 -5 -33 -38 c-30 -33 -33 -42 -26 -75 13 -68 11 -77 -12
-80 -15 -2 -25 -13 -29 -29 l-7 -26 -19 22 c-10 13 -18 32 -18 42 0 25 -15 24
-53 -5 -38 -29 -66 -22 -48 12 21 40 13 69 -29 103 -22 18 -37 35 -34 38 3 3
24 11 46 16 43 11 48 16 73 79 l16 40 26 -40 c14 -21 28 -41 30 -44z m-147 30
c0 -5 -9 -10 -19 -10 -11 0 -23 5 -26 10 -4 6 5 10 19 10 14 0 26 -4 26 -10z
m220 -978 c0 -4 -9 -13 -20 -20 -22 -13 -27 -3 -8 16 14 14 28 16 28 4z m5317
-174 c-3 -8 -6 -5 -6 6 -1 11 2 17 5 13 3 -3 4 -12 1 -19z m-4550 -410 c-3 -8
-6 -5 -6 6 -1 11 2 17 5 13 3 -3 4 -12 1 -19z m4063 -547 c0 -6 -4 -13 -10
-16 -5 -3 -10 1 -10 9 0 9 5 16 10 16 6 0 10 -4 10 -9z m-5 -60 c-9 -16 -25
-3 -18 15 4 10 9 12 15 6 6 -6 7 -15 3 -21z m-500 -1 c3 -5 -3 -10 -15 -10
-12 0 -18 5 -15 10 3 6 10 10 15 10 5 0 12 -4 15 -10z"/>
<path d="M3063 5965 c11 -36 42 -73 53 -62 4 3 3 27 0 52 -7 41 -10 45 -36 45
-28 0 -28 -1 -17 -35z"/>
<path d="M3344 5953 c25 -172 33 -200 60 -190 20 8 21 67 4 167 -12 68 -13 70
-41 70 -29 0 -29 0 -23 -47z"/>
<path d="M3946 5978 c-3 -13 -6 -53 -6 -89 0 -74 16 -103 45 -79 11 9 15 35
15 101 0 87 -1 89 -24 89 -16 0 -26 -7 -30 -22z"/>
<path d="M4215 5990 c3 -5 13 -10 21 -10 8 0 14 5 14 10 0 6 -9 10 -21 10 -11
0 -17 -4 -14 -10z"/>
<path d="M2716 5834 c-4 -10 -1 -14 6 -12 15 5 23 28 10 28 -5 0 -13 -7 -16
-16z"/>
<path d="M3102 5838 c5 -15 35 -34 43 -27 3 4 3 14 -1 23 -7 18 -48 23 -42 4z"/>
<path d="M2760 5823 c0 -6 -13 -16 -30 -23 -33 -14 -39 -40 -14 -64 18 -19 14
-19 53 -5 25 9 31 17 31 38 0 16 -9 36 -20 46 -11 10 -20 13 -20 8z"/>
<path d="M2820 5808 c0 -29 14 -51 34 -54 20 -3 21 34 2 59 -18 24 -36 21 -36
-5z"/>
<path d="M2570 5780 c0 -5 5 -10 10 -10 6 0 10 5 10 10 0 6 -4 10 -10 10 -5 0
-10 -4 -10 -10z"/>
<path d="M2580 5743 c0 -31 16 -46 39 -38 33 10 24 49 -11 53 -22 3 -28 -1
-28 -15z"/>
<path d="M2740 5698 c0 -5 14 -8 30 -8 17 0 30 4 30 9 0 4 -13 8 -30 7 -16 -1
-30 -4 -30 -8z"/>
<path d="M3683 5604 c-7 -3 -13 -16 -13 -29 0 -30 11 -34 90 -28 101 7 112 10
108 36 -3 21 -9 22 -88 24 -47 1 -91 -1 -97 -3z"/>
<path d="M4070 5596 c-13 -13 -13 -33 0 -41 14 -9 161 -24 177 -18 16 6 17 37
1 51 -18 14 -165 21 -178 8z"/>
<path d="M3359 5556 c-67 -15 -79 -22 -79 -46 0 -30 15 -32 98 -15 88 20 113
35 92 59 -14 18 -34 19 -111 2z"/>
<path d="M4454 5535 c-11 -27 17 -44 96 -60 58 -11 78 -11 87 -2 20 19 2 34
-62 51 -102 29 -114 30 -121 11z"/>
<path d="M2991 5445 c-72 -26 -97 -46 -88 -69 6 -16 48 -22 61 -9 4 4 33 17
64 29 48 17 58 25 60 47 4 34 -11 34 -97 2z"/>
<path d="M4840 5408 c0 -19 14 -29 71 -55 85 -40 109 -42 109 -10 0 15 -10 27
-32 39 -112 55 -148 62 -148 26z"/>
<path d="M2637 5264 c-43 -25 -77 -50 -77 -54 0 -29 49 -14 99 29 13 12 35 21
48 21 16 0 23 6 23 19 0 34 -15 32 -93 -15z"/>
<path d="M3930 5256 c-150 -26 -285 -77 -525 -198 -100 -51 -202 -54 -237 -7
-29 38 -9 72 61 106 49 23 69 26 161 26 58 1 121 -3 140 -8 33 -8 34 -7 21 9
-35 42 -188 85 -205 57 -4 -6 -24 -11 -44 -11 -113 -1 -208 -143 -139 -208 59
-55 201 -69 318 -31 72 24 111 40 257 111 118 57 218 87 314 95 38 3 73 12 78
19 8 9 20 10 43 3 48 -14 65 -11 33 6 -15 8 -40 15 -55 15 -15 0 -31 4 -36 9
-18 16 -109 20 -185 7z"/>
<path d="M5190 5235 c0 -16 108 -92 146 -101 17 -4 26 -1 30 10 8 22 -9 40
-61 65 -24 11 -46 25 -50 31 -10 16 -65 12 -65 -5z"/>
<path d="M4055 5166 c-22 -7 -49 -18 -60 -24 -11 -7 -74 -32 -140 -57 -66 -25
-154 -59 -195 -75 -214 -82 -292 -104 -385 -104 -96 -1 -116 7 -187 72 -36 33
-36 13 -2 -28 69 -81 271 -121 441 -86 96 19 183 46 238 74 54 27 211 93 315
133 47 18 90 36 95 40 14 10 93 12 125 3 23 -6 24 -5 9 10 -11 12 -199 61
-212 55 -1 0 -20 -6 -42 -13z"/>
<path d="M2353 5087 c-4 -7 -24 -23 -43 -34 -47 -29 -84 -69 -75 -82 10 -18
28 -13 65 18 19 15 49 35 67 44 40 21 48 34 33 52 -15 19 -36 19 -47 2z"/>
<path d="M5517 5033 c-18 -18 -1 -45 58 -94 70 -59 82 -63 99 -36 9 15 1 26
-54 77 -61 55 -87 69 -103 53z"/>
<path d="M2026 4807 c-15 -17 -41 -47 -57 -64 -31 -36 -29 -63 5 -63 27 1 129
113 124 138 -6 29 -41 24 -72 -11z"/>
<path d="M5314 4778 c-3 -4 -2 -18 2 -31 4 -12 7 -34 6 -49 0 -18 6 -29 18
-33 10 -3 21 -13 25 -23 5 -14 7 -14 15 -2 7 12 13 12 27 4 27 -17 28 -43 3
-69 -25 -27 -25 -27 5 -185 9 -47 18 -100 20 -119 14 -136 30 -201 52 -201 6
0 24 -5 38 -12 20 -9 25 -18 26 -52 1 -23 4 -52 8 -66 13 -44 -34 -103 -55
-69 -4 8 -9 7 -15 -2 -13 -20 -11 -27 10 -46 18 -15 18 -18 4 -28 -21 -16 -9
-72 18 -80 23 -7 25 -21 4 -32 -10 -6 -16 -38 -21 -118 -3 -61 -10 -127 -15
-147 -11 -44 -52 -76 -100 -80 l-33 -3 -27 215 c-14 118 -39 319 -53 445 -15
127 -32 245 -37 263 -6 18 -9 52 -8 75 3 52 -8 87 -27 87 -8 0 -14 5 -14 11 0
6 -8 8 -19 4 -26 -8 -57 23 -63 64 -6 39 14 42 38 6 17 -26 38 -32 49 -14 4 6
9 46 11 89 4 76 3 80 -23 100 -22 17 -36 20 -69 15 -50 -7 -81 14 -64 45 6 10
7 21 3 23 -13 8 -246 -22 -257 -33 -5 -5 -5 -33 0 -72 l9 -63 43 1 42 1 0 -43
c0 -23 6 -49 13 -56 9 -9 13 -45 12 -115 0 -95 2 -104 24 -125 l23 -23 -7 39
c-6 36 -5 38 10 22 16 -16 16 -22 -1 -93 -17 -74 -17 -81 5 -307 22 -231 45
-433 61 -536 4 -30 6 -58 3 -62 -2 -5 -18 -8 -34 -8 -38 0 -43 -16 -33 -88 l9
-57 60 2 c33 2 85 7 115 12 30 6 102 15 160 21 190 21 297 64 374 152 94 106
127 222 128 453 0 149 -29 427 -49 459 -4 6 -6 26 -4 46 2 40 -36 165 -75 243
-37 74 -95 148 -140 179 -60 42 -217 87 -230 66z m91 -108 c-3 -5 -10 -10 -16
-10 -5 0 -9 5 -9 10 0 6 7 10 16 10 8 0 12 -4 9 -10z m-324 -32 c16 10 24 10
35 1 22 -18 18 -42 -4 -30 -10 6 -28 7 -40 4 -12 -3 -28 1 -37 10 -21 22 -19
30 5 15 16 -10 24 -10 41 0z m-26 -62 c25 -16 34 -46 14 -46 -6 0 -22 14 -36
30 -29 35 -58 41 -48 9 7 -20 6 -20 -18 -4 -14 9 -24 22 -21 29 6 17 73 6 109
-18z m-50 -46 c3 -5 1 -10 -4 -10 -6 0 -11 5 -11 10 0 6 2 10 4 10 3 0 8 -4
11 -10z m-1 -126 c8 -22 -1 -34 -28 -34 -25 0 -46 17 -46 37 0 20 66 17 74 -3z
m67 -17 c-11 -48 -29 -77 -48 -77 -13 0 -11 6 11 28 23 25 25 31 12 41 -19 16
-10 41 14 41 15 0 17 -5 11 -33z m99 -481 c0 -8 -4 -17 -9 -21 -12 -7 -24 12
-16 25 9 15 25 12 25 -4z"/>
<path d="M5100 4771 c-12 -8 -12 -13 4 -30 27 -30 76 -38 93 -15 8 10 21 19
31 19 9 0 17 7 17 15 0 12 -15 16 -65 18 -36 1 -72 -2 -80 -7z"/>
<path d="M5807 4763 c-18 -18 -1 -54 53 -112 50 -54 62 -62 75 -51 24 20 18
34 -41 104 -53 62 -72 75 -87 59z"/>
<path d="M4280 4673 c-63 -7 -144 -17 -180 -21 l-65 -7 1 -395 c0 -217 1 -458
1 -535 1 -77 1 -159 1 -182 -1 -61 10 -96 27 -89 10 3 15 -1 15 -13 0 -10 -7
-21 -15 -25 -8 -3 -15 -10 -15 -16 0 -16 40 -12 46 5 9 21 24 19 24 -4 0 -12
-9 -21 -25 -25 l-25 -6 20 -33 c23 -37 25 -47 9 -47 -13 0 -49 -38 -49 -51 0
-20 19 -17 22 3 3 20 10 23 48 26 l45 2 -27 -22 c-22 -19 -26 -30 -24 -62 2
-21 9 -42 16 -46 14 -8 -9 -20 -41 -20 -10 0 -19 -4 -19 -10 0 -5 16 -10 36
-10 27 0 37 -5 41 -20 5 -17 14 -20 64 -20 71 0 75 6 63 88 l-9 57 -45 5 -45
5 -1 157 c-1 139 1 160 17 174 11 9 26 13 37 9 24 -7 39 12 23 28 -31 31 13
38 51 7 14 -10 43 -21 64 -23 21 -3 40 -10 42 -16 2 -6 12 -11 23 -11 10 0 19
-5 19 -11 0 -5 -5 -7 -10 -4 -28 17 -18 -49 34 -219 17 -56 14 -66 -17 -66
-43 0 -49 -12 -42 -84 7 -66 11 -71 50 -66 294 36 280 33 281 60 2 51 4 60 13
60 5 0 7 -18 4 -40 l-6 -40 51 0 c28 0 62 4 76 10 24 9 25 13 19 57 -10 80
-18 93 -51 87 -37 -7 -44 3 -67 99 -10 43 -22 80 -27 83 -4 3 -8 16 -8 28 0
13 -7 43 -16 67 -18 51 -72 245 -84 305 -5 23 -21 84 -35 135 -25 91 -95 343
-117 424 -18 68 -32 110 -39 120 -3 6 -12 35 -19 65 -14 60 -27 91 -38 89 -4
-1 -59 -8 -122 -16z m-66 -385 c10 -46 22 -94 26 -108 18 -51 34 -116 35 -145
1 -16 20 -98 42 -182 22 -84 38 -154 35 -157 -3 -4 -24 -6 -46 -6 -23 0 -52
-6 -66 -13 -14 -6 -36 -11 -50 -9 -24 3 -25 5 -23 70 1 37 5 104 9 149 4 44 3
89 -1 100 -13 29 1 383 14 383 4 0 15 -37 25 -82z m-117 -294 c-3 -3 -12 -4
-19 -1 -8 3 -5 6 6 6 11 1 17 -2 13 -5z m23 -403 c0 -13 -37 -24 -50 -16 -6 4
-8 11 -5 16 8 12 55 12 55 0z m469 -30 c-16 -5 -33 15 -24 30 6 9 12 7 22 -7
9 -13 10 -20 2 -23z m-379 25 c0 -3 -4 -8 -10 -11 -5 -3 -10 -1 -10 4 0 6 5
11 10 11 6 0 10 -2 10 -4z m455 -116 c18 -8 17 -9 -7 -9 -15 -1 -30 4 -33 9
-7 12 12 12 40 0z m105 -170 c0 -5 -18 -10 -40 -10 -22 0 -40 5 -40 10 0 6 18
10 40 10 22 0 40 -4 40 -10z m-620 -140 c0 -5 -4 -10 -9 -10 -6 0 -13 5 -16
10 -3 6 1 10 9 10 9 0 16 -4 16 -10z"/>
<path d="M3585 4598 c-131 -16 -234 -39 -225 -49 12 -14 -25 -39 -57 -39 -31
0 -34 -2 -31 -27 3 -23 -1 -29 -22 -31 -49 -6 -54 -11 -36 -30 33 -37 16 -72
-34 -72 -36 0 -69 -22 -72 -49 -2 -17 -10 -27 -23 -30 -31 -5 -36 -21 -29 -81
8 -70 11 -74 41 -55 23 15 26 15 44 -1 25 -22 12 -36 -36 -37 l-37 -1 6 -51
c3 -27 11 -97 16 -155 5 -58 14 -139 19 -180 6 -41 13 -96 16 -123 5 -38 12
-50 33 -62 20 -10 22 -14 9 -15 -20 0 -32 -23 -21 -41 4 -7 6 -38 5 -70 -3
-72 11 -104 39 -89 16 8 20 8 20 -4 0 -25 -12 -46 -26 -46 -8 0 -14 -9 -14
-21 0 -16 4 -19 20 -14 23 7 28 -13 5 -21 -11 -5 -15 -22 -15 -65 0 -58 -1
-59 -32 -67 l-33 -9 3 -64 c2 -35 6 -67 10 -71 4 -3 32 -2 62 3 58 9 78 12
255 29 61 6 162 18 225 26 63 9 142 19 175 23 52 5 60 9 58 26 -1 11 -7 63
-13 115 -6 52 -15 145 -21 205 -5 61 -12 116 -14 123 -3 9 -20 11 -62 6 -99
-9 -101 -11 -113 -54 -13 -47 -17 -220 -6 -238 13 -21 29 -13 24 13 -4 21 -1
25 17 25 19 0 22 -5 21 -32 -1 -22 -7 -34 -19 -36 -10 -2 -17 -13 -17 -28 0
-15 -6 -24 -15 -24 -8 0 -24 -5 -34 -12 -15 -9 -28 -8 -63 5 -24 9 -54 17 -66
17 -12 0 -22 5 -22 10 0 34 -43 361 -51 390 -5 19 -12 69 -15 111 l-5 76 42 7
c23 4 43 5 45 3 2 -2 8 -33 13 -70 11 -78 17 -91 40 -81 9 4 36 8 60 10 24 2
48 9 52 16 12 19 11 116 -2 163 -6 22 -23 51 -37 64 l-26 24 22 15 c19 12 22
23 21 71 -1 83 -11 107 -39 103 -29 -3 -39 -17 -32 -46 5 -19 4 -20 -14 -6
-10 8 -25 21 -33 28 -7 7 -23 12 -35 10 -20 -3 -21 -8 -17 -80 l3 -78 -36 0
c-42 0 -41 -3 -56 144 -6 54 -13 102 -15 107 -3 4 -12 68 -21 141 -8 73 -16
142 -18 153 -1 11 -10 21 -19 23 -9 2 -17 7 -17 12 0 5 -3 15 -6 24 -5 13 2
16 36 16 42 0 43 0 26 -19 -25 -27 -12 -42 31 -37 51 7 64 23 36 46 -26 20
-29 36 -10 43 16 5 36 -22 37 -50 0 -21 25 -37 51 -31 9 2 17 -35 30 -136 10
-76 22 -143 28 -149 13 -13 161 9 179 26 10 11 9 49 -3 203 -9 104 -18 199
-21 212 -5 25 -18 26 -139 10z m-287 -242 c3 -12 -1 -17 -10 -14 -7 3 -15 13
-16 22 -3 12 1 17 10 14 7 -3 15 -13 16 -22z m-108 -56 c0 -25 -27 -37 -43
-21 -9 10 -8 16 7 27 27 19 36 18 36 -6z m90 -40 c0 -5 -4 -10 -9 -10 -6 0
-13 5 -16 10 -3 6 1 10 9 10 9 0 16 -4 16 -10z m72 -985 c13 -28 12 -30 -21
-40 -19 -6 -23 -4 -18 9 3 8 2 18 -4 22 -6 4 -6 11 2 20 17 20 28 17 41 -11z
m498 -171 c0 -14 -3 -14 -15 -4 -8 7 -15 14 -15 16 0 2 7 4 15 4 8 0 15 -7 15
-16z m-600 -34 c11 -6 17 -17 14 -25 -8 -19 -19 -19 -43 2 -32 27 -10 44 29
23z m90 -25 c0 -8 -9 -15 -20 -15 -22 0 -27 15 -7 23 21 9 27 7 27 -8z"/>
<path d="M1762 4467 c-45 -68 -53 -101 -25 -95 21 4 102 116 103 141 0 38 -37
16 -78 -46z"/>
<path d="M2952 4504 c-10 -18 6 -104 20 -104 10 0 10 11 -1 29 -7 10 0 24 25
48 19 18 34 35 34 38 0 13 -70 4 -78 -11z"/>
<path d="M3071 4454 c-35 -15 -60 -40 -61 -61 0 -7 5 -13 10 -13 11 0 94 80
88 85 -1 2 -18 -3 -37 -11z"/>
<path d="M6050 4450 c-19 -12 -8 -42 44 -122 38 -60 58 -71 75 -40 8 15 0 35
-39 95 -51 80 -55 83 -80 67z"/>
<path d="M2360 4447 c-5 -5 -23 -7 -245 -26 -66 -6 -141 -13 -167 -17 l-48 -6
0 -51 c0 -86 6 -97 51 -97 22 0 39 -3 39 -7 0 -5 5 -37 10 -73 5 -36 12 -94
16 -130 7 -73 10 -78 26 -62 14 14 54 16 62 3 4 -5 -12 -12 -34 -16 -36 -6
-40 -10 -40 -36 0 -35 27 -154 42 -185 7 -15 7 -37 0 -70 -7 -30 -7 -66 -2
-94 5 -25 14 -99 20 -165 6 -66 15 -145 20 -175 5 -30 11 -80 14 -110 3 -30 8
-83 12 -117 l7 -63 -36 0 c-19 0 -37 -5 -39 -11 -2 -6 1 -40 6 -75 l9 -64 56
6 c31 3 85 10 119 15 35 5 94 12 130 15 86 7 114 21 126 62 11 40 32 41 41 2
5 -24 12 -30 32 -30 48 0 149 58 202 116 57 62 62 78 29 89 -22 7 -21 8 7 12
17 3 33 8 37 12 27 26 72 321 51 334 -5 3 -7 28 -4 54 8 62 2 173 -9 173 -5 0
-11 -15 -13 -32 -3 -26 -4 -23 -5 13 -2 42 -5 48 -28 53 -18 5 -32 1 -46 -11
-20 -17 -21 -17 -35 5 -9 12 -19 22 -24 22 -12 0 -11 -77 1 -101 14 -25 2 -24
-27 2 -19 19 -23 20 -28 6 -7 -17 16 -57 53 -94 13 -13 20 -28 17 -33 -13 -22
-45 -8 -76 33 -39 50 -79 86 -96 87 -19 0 -16 -38 5 -50 15 -9 16 -11 1 -20
-18 -11 -13 -65 10 -109 10 -18 10 -25 1 -31 -9 -6 -10 -30 -5 -91 13 -144 13
-163 -1 -212 -7 -26 -22 -59 -33 -73 -11 -14 -17 -33 -14 -44 4 -15 0 -20 -16
-20 -12 0 -24 7 -27 15 -4 8 -17 15 -30 15 -18 0 -24 6 -28 33 -3 17 -8 50
-11 72 -4 22 -6 53 -6 69 1 15 -2 33 -7 40 -5 6 -15 32 -22 59 -12 45 -30 64
-30 32 0 -8 1 -16 2 -17 1 -2 -4 -13 -11 -25 -16 -31 -38 -29 -55 6 -9 16 -21
31 -28 35 -45 22 -75 46 -88 72 -8 16 -17 31 -20 34 -23 23 -28 49 -12 71 24
35 30 38 105 38 100 0 130 13 120 50 -6 22 -76 41 -154 41 -56 0 -60 1 -58 23
4 47 -2 87 -15 99 -10 10 -11 18 -3 36 9 20 8 26 -6 34 -30 16 -8 28 52 28 68
0 78 -6 48 -31 -21 -18 -21 -20 5 -23 21 -2 20 -24 -2 -36 l-22 -12 21 -19
c11 -10 18 -25 15 -33 -5 -14 45 -46 73 -46 20 0 15 21 -7 27 -23 6 -27 33 -5
33 20 0 19 20 -2 62 -30 59 -32 66 -26 72 4 3 17 6 30 6 21 0 23 4 22 43 -2
64 -13 102 -29 103 -8 1 -35 3 -60 4 l-45 2 33 9 c26 8 32 14 27 28 -4 13 0
20 15 24 17 4 20 13 20 56 0 28 -3 51 -7 51 -7 0 -9 113 -4 149 3 21 56 18 93
-5 48 -31 82 -83 103 -161 10 -35 22 -63 27 -63 5 0 8 -33 7 -72 -2 -75 18
-267 31 -303 6 -17 9 -15 24 17 10 20 43 64 74 98 43 48 72 70 129 96 40 18
73 37 73 42 0 4 -6 17 -14 27 -11 15 -17 17 -28 7 -21 -17 -28 -5 -28 50 0 36
4 48 15 48 24 0 18 37 -21 113 -38 76 -72 118 -117 145 -15 9 -26 21 -24 27 5
13 -32 41 -89 66 -43 20 -192 38 -204 26z m224 -104 c-5 -5 -12 -12 -16 -18
-4 -6 -8 -2 -8 8 0 9 7 17 17 17 9 0 12 -3 7 -7z m56 -7 c0 -3 -4 -8 -10 -11
-5 -3 -10 -1 -10 4 0 6 5 11 10 11 6 0 10 -2 10 -4z m-73 -128 c-2 -18 -4 -6
-4 27 0 33 2 48 4 33 2 -15 2 -42 0 -60z m0 -100 c-2 -13 -4 -3 -4 22 0 25 2
35 4 23 2 -13 2 -33 0 -45z m-491 -64 c-3 -9 -6 -20 -6 -25 0 -5 -4 -9 -10 -9
-5 0 -10 11 -10 25 0 16 6 25 16 25 11 0 14 -5 10 -16z m625 -45 c14 -23 -1
-29 -77 -29 -48 0 -73 4 -69 10 3 6 17 10 31 10 13 0 23 3 23 8 -3 18 3 20 42
17 23 -1 45 -9 50 -16z m-528 -26 c-7 -2 -19 -2 -25 0 -7 3 -2 5 12 5 14 0 19
-2 13 -5z m-68 -343 c3 -5 1 -10 -4 -10 -6 0 -11 5 -11 10 0 6 2 10 4 10 3 0
8 -4 11 -10z m544 -152 c1 -12 -27 -9 -34 2 -4 6 -1 18 6 26 12 14 14 14 20
-3 4 -10 8 -21 8 -25z m234 15 c-7 -2 -19 -2 -25 0 -7 3 -2 5 12 5 14 0 19 -2
13 -5z m-723 -154 c0 -5 -7 -9 -15 -9 -15 0 -20 12 -9 23 8 8 24 -1 24 -14z
m20 -47 c-25 -4 -35 2 -26 17 5 7 13 7 27 -2 20 -12 20 -12 -1 -15z m70 -41
c0 -15 -16 -22 -35 -15 -13 5 -14 8 -3 15 18 12 38 11 38 0z m511 -21 c19 -11
27 -50 10 -50 -5 0 -16 11 -25 25 -24 37 -21 44 15 25z m-505 -25 c-3 -9 3
-19 14 -25 25 -13 25 -29 3 -46 -26 -19 -49 -19 -33 1 9 11 9 22 1 46 -14 40
-14 39 5 39 10 0 14 -6 10 -15z"/>
<path d="M3040 4340 c0 -11 5 -20 10 -20 6 0 10 9 10 20 0 11 -4 20 -10 20 -5
0 -10 -9 -10 -20z"/>
<path d="M1567 4145 c-28 -57 -33 -80 -19 -88 4 -2 1 -2 -5 -1 -18 5 -16 -23
1 -29 16 -6 35 19 56 73 7 19 20 43 28 52 12 14 12 20 2 33 -21 26 -35 17 -63
-40z"/>
<path d="M6234 4095 c-9 -23 28 -103 54 -114 50 -23 54 -8 17 74 -19 40 -31
55 -46 55 -11 0 -22 -7 -25 -15z"/>
<path d="M5473 4005 c4 -22 7 -50 7 -62 0 -13 5 -23 10 -23 18 0 12 96 -7 111
-15 13 -16 11 -10 -26z"/>
<path d="M2307 4013 c-12 -11 -8 -23 8 -23 8 0 15 7 15 15 0 16 -12 20 -23 8z"/>
<path d="M6326 3951 c-4 -7 -5 -15 -2 -18 9 -9 19 4 14 18 -4 11 -6 11 -12 0z"/>
<path d="M1427 3773 c-30 -110 -31 -123 -14 -123 18 0 39 24 36 42 -2 7 2 23
9 36 7 12 15 35 17 50 2 15 5 34 7 42 2 8 -5 16 -17 18 -17 2 -23 -8 -38 -65z"/>
<path d="M6373 3723 c-3 -9 -1 -37 6 -62 6 -25 16 -63 22 -84 8 -31 14 -38 32
-35 19 3 22 9 21 43 -1 22 -9 66 -18 98 -14 44 -22 57 -37 57 -11 0 -22 -7
-26 -17z"/>
<path d="M2238 3663 c7 -3 16 -2 19 1 4 3 -2 6 -13 5 -11 0 -14 -3 -6 -6z"/>
<path d="M2278 3474 c-31 -16 -34 -24 -16 -42 9 -9 8 -12 -4 -12 -9 0 -20 5
-23 10 -9 15 -25 12 -25 -5 0 -8 6 -15 13 -15 6 0 34 -12 62 -25 54 -27 66
-26 38 2 -10 10 -23 30 -30 45 -11 24 -10 28 7 33 11 4 20 11 20 16 0 12 -10
11 -42 -7z"/>
<path d="M2200 3470 c0 -5 6 -10 14 -10 8 0 18 5 21 10 3 6 -3 10 -14 10 -12
0 -21 -4 -21 -10z"/>
<path d="M1352 3452 c-13 -9 -32 -102 -32 -160 0 -21 6 -35 16 -39 30 -11 43
19 46 111 3 88 -3 105 -30 88z"/>
<path d="M3640 3450 c0 -5 5 -10 10 -10 6 0 10 5 10 10 0 6 -4 10 -10 10 -5 0
-10 -4 -10 -10z"/>
<path d="M6454 3255 c8 -114 12 -127 40 -123 19 3 21 9 20 73 0 39 -4 87 -8
108 -6 31 -11 37 -33 37 l-26 0 7 -95z"/>
<path d="M4050 3309 c0 -11 5 -17 10 -14 6 3 10 13 10 21 0 8 -4 14 -10 14 -5
0 -10 -9 -10 -21z"/>
<path d="M4064 3175 c-10 -8 -14 -15 -7 -15 6 0 18 -3 27 -6 10 -4 16 -1 16 9
0 23 -15 28 -36 12z"/>
<path d="M3975 3123 c4 -27 11 -55 15 -63 8 -15 10 -10 25 63 6 29 -5 47 -27
47 -18 0 -20 -4 -13 -47z"/>
<path d="M1308 3054 c-4 -3 -2 -18 2 -34 5 -16 6 -56 3 -89 -5 -51 -3 -62 11
-67 36 -14 42 16 36 184 0 12 -41 17 -52 6z"/>
<path d="M5599 3056 c-2 -3 -54 -10 -114 -16 -61 -5 -152 -15 -202 -22 l-93
-11 0 -54 c0 -66 13 -93 44 -93 22 0 25 -6 32 -62 4 -35 9 -70 11 -78 2 -8 7
-61 13 -117 5 -55 14 -138 20 -184 5 -46 7 -86 2 -90 -4 -4 -41 -11 -83 -15
l-77 -7 -6 39 c-3 22 -13 104 -21 184 -8 80 -20 181 -26 224 -11 84 -7 96 35
96 17 0 18 6 13 67 -4 37 -10 70 -15 75 -5 5 -77 0 -163 -11 -85 -11 -185 -22
-223 -26 l-69 -7 7 -51 c3 -29 6 -62 6 -74 0 -19 6 -22 43 -25 27 -2 41 -7 40
-15 -2 -7 2 -35 8 -63 9 -44 14 -51 32 -48 30 4 33 -25 6 -51 -21 -19 -21 -22
-10 -133 7 -62 18 -119 25 -128 20 -23 24 -44 10 -55 -10 -8 -8 -42 6 -165 11
-85 24 -207 30 -270 6 -63 19 -167 28 -230 9 -63 17 -119 17 -125 0 -5 -18
-12 -40 -15 -36 -4 -40 -8 -37 -30 1 -14 5 -32 9 -40 3 -8 5 -30 4 -47 -3 -38
-4 -37 104 -23 39 5 131 17 205 25 74 9 137 20 140 25 3 5 5 22 4 37 -1 16 -2
43 -3 61 -1 29 -4 32 -34 32 l-33 0 -23 193 c-13 105 -27 228 -32 272 -4 44
-11 96 -14 116 l-6 37 81 7 c45 4 83 5 85 3 3 -3 12 -67 20 -142 9 -76 19
-156 24 -177 5 -22 7 -48 4 -59 -3 -12 0 -20 7 -20 8 0 11 -9 7 -29 -7 -34 4
-50 57 -81 32 -19 36 -24 22 -32 -14 -8 -15 -13 -5 -24 6 -8 9 -17 6 -20 -8
-8 -47 15 -47 27 0 6 -4 7 -10 4 -5 -3 -10 -15 -10 -26 0 -11 -13 -31 -28 -44
-28 -23 -28 -26 -18 -76 l10 -51 106 6 c88 6 222 23 318 42 25 5 27 20 10 94
-12 51 -12 51 -43 46 l-32 -6 -28 237 c-16 131 -33 241 -38 244 -5 4 -6 12 -3
18 7 10 -23 290 -44 411 -5 30 -12 91 -14 135 -3 44 -10 115 -16 159 -6 43 -9
84 -6 92 3 8 19 14 36 14 29 0 30 1 29 48 -1 62 -11 96 -30 100 -8 1 -17 1
-20 -2z m-639 -446 c0 -5 -2 -10 -4 -10 -3 0 -8 5 -11 10 -3 6 -1 10 4 10 6 0
11 -4 11 -10z m481 -6 c12 -14 11 -16 -5 -13 -11 2 -21 10 -24 17 -5 17 13 15
29 -4z m66 10 c-3 -3 -12 -4 -19 -1 -8 3 -5 6 6 6 11 1 17 -2 13 -5z m-617
-44 c0 -5 -5 -10 -11 -10 -5 0 -7 5 -4 10 3 6 8 10 11 10 2 0 4 -4 4 -10z m35
-281 c9 -13 6 -15 -32 -24 -38 -8 -44 5 -10 21 30 15 35 16 42 3z m130 -279
c3 -5 -3 -10 -14 -10 -12 0 -21 5 -21 10 0 6 6 10 14 10 8 0 18 -4 21 -10z
m415 -110 c0 -13 -5 -18 -15 -14 -16 7 -19 17 -8 27 12 13 23 7 23 -13z m95
-128 c6 -4 8 -20 4 -37 -5 -22 -7 -24 -8 -9 0 12 -8 25 -17 28 -8 3 -12 10 -9
16 7 12 16 12 30 2z m-18 -167 c2 -6 -3 -20 -11 -30 -18 -25 -38 -9 -29 23 6
23 33 27 40 7z m56 -47 c33 -17 97 -70 97 -80 0 -15 -39 9 -100 61 -36 31 -35
40 3 19z m-173 -28 c0 -5 -7 -10 -15 -10 -8 0 -15 5 -15 10 0 6 7 10 15 10 8
0 15 -4 15 -10z"/>
<path d="M4438 2923 c-38 -6 -50 -25 -57 -96 -1 -4 -16 3 -34 17 -54 41 -117
62 -174 57 -8 -1 -13 -17 -13 -46 0 -33 -4 -45 -15 -45 -8 0 -15 -4 -15 -10 0
-5 7 -7 15 -4 10 4 15 0 15 -15 0 -18 6 -21 48 -21 39 0 53 -5 72 -25 13 -14
29 -25 35 -25 12 0 25 -66 43 -205 l7 -60 44 0 c23 0 47 3 53 6 5 3 -7 24 -26
45 -39 42 -45 61 -20 71 24 9 64 -14 64 -36 0 -14 5 -19 15 -15 13 5 14 21 9
100 -6 80 -5 94 9 100 22 8 27 28 16 66 -5 18 -10 53 -10 78 -1 25 -6 51 -12
58 -9 12 -18 13 -69 5z m8 -241 c6 -4 14 -19 18 -34 6 -27 5 -28 -29 -28 -19
0 -38 0 -42 0 -14 1 -2 45 15 58 18 14 23 14 38 4z"/>
<path d="M6465 2908 c-2 -13 -6 -54 -7 -92 -3 -56 0 -70 14 -79 29 -19 42 7
49 91 6 92 4 102 -27 102 -16 0 -25 -7 -29 -22z"/>
<path d="M4060 2860 c0 -5 7 -10 16 -10 8 0 12 5 9 10 -3 6 -10 10 -16 10 -5
0 -9 -4 -9 -10z"/>
<path d="M4092 2828 c5 -15 28 -18 29 -3 0 6 -7 12 -17 13 -10 3 -15 -1 -12
-10z"/>
<path d="M3535 2814 c-55 -7 -147 -18 -205 -24 -58 -6 -111 -13 -118 -15 -11
-4 -12 -18 -7 -58 11 -88 12 -90 55 -84 l38 5 18 -137 19 -136 35 3 c42 3 55
15 46 39 -6 14 -9 15 -16 3 -5 -8 -6 -18 -4 -22 3 -4 0 -8 -5 -8 -18 0 -12 43
8 68 25 29 29 28 36 -13 3 -19 7 -51 10 -69 l6 -35 -58 -3 c-51 -3 -58 -5 -56
-23 4 -37 25 -220 29 -250 2 -16 6 -52 9 -80 21 -192 29 -242 41 -259 9 -14
10 -24 3 -38 -18 -33 -2 -73 32 -84 36 -11 40 -27 7 -34 -19 -5 -23 -12 -23
-45 0 -39 1 -40 35 -41 28 0 35 -4 35 -20 0 -14 -7 -19 -30 -19 -36 -1 -43
-21 -21 -64 20 -38 21 -62 2 -55 -21 8 -32 -17 -13 -31 30 -22 21 -41 -17 -37
-40 5 -50 -7 -36 -43 8 -21 15 -26 33 -21 12 3 67 8 122 12 55 3 104 9 109 12
5 3 39 7 75 9 106 5 126 13 128 54 1 19 -2 50 -6 69 -7 33 -9 35 -44 32 -33
-3 -37 -1 -43 25 -3 15 -8 35 -10 43 -2 8 -6 56 -9 105 -3 50 -13 112 -21 140
-8 27 -12 63 -9 80 3 16 1 62 -4 100 -6 39 -17 135 -26 215 -16 148 -32 262
-41 291 -4 15 -8 15 -42 -1 -55 -26 -102 -33 -102 -15 0 8 8 16 18 16 101 7
114 17 109 96 l-3 58 -44 7 c-23 4 -45 10 -49 13 -10 10 23 25 57 25 34 0 43
14 15 24 -15 6 -15 8 0 19 8 6 17 23 19 37 2 14 9 26 16 26 6 1 21 2 32 3 17
1 20 8 19 44 -2 71 -12 102 -34 104 -11 0 -65 -5 -120 -13z m125 -88 c0 -3 -4
-8 -10 -11 -5 -3 -10 -1 -10 4 0 6 5 11 10 11 6 0 10 -2 10 -4z m-160 -211 c0
-14 -4 -25 -10 -25 -11 0 -14 33 -3 43 11 11 13 8 13 -18z m-70 -465 c8 -19
21 -40 29 -46 16 -12 7 -34 -15 -34 -8 0 -14 -4 -14 -10 0 -5 -7 -10 -15 -10
-8 0 -15 5 -15 10 0 6 7 10 15 10 18 0 32 29 19 39 -13 8 -34 58 -34 78 0 23
14 6 30 -37z m230 -302 c21 -26 16 -48 -11 -48 -13 0 -19 7 -19 21 0 12 -5 19
-12 17 -7 -3 -13 -11 -13 -19 0 -29 -20 -23 -22 8 -3 32 -1 33 50 42 5 0 17
-9 27 -21z m-40 -209 c0 -6 -4 -7 -10 -4 -5 3 -10 11 -10 16 0 6 5 7 10 4 6
-3 10 -11 10 -16z m135 -269 c-3 -5 -26 -10 -51 -10 -24 0 -44 5 -44 10 0 6
23 10 51 10 31 0 48 -4 44 -10z"/>
<path d="M4040 2819 c0 -5 5 -7 10 -4 6 3 10 8 10 11 0 2 -4 4 -10 4 -5 0 -10
-5 -10 -11z"/>
<path d="M3985 2790 c-3 -5 -1 -11 5 -15 5 -3 10 -15 10 -25 0 -10 6 -20 12
-22 8 -3 3 -11 -12 -21 -29 -18 -70 -13 -70 10 0 27 -24 7 -34 -27 -8 -25 -7
-35 3 -38 8 -3 5 -9 -9 -19 -20 -14 -21 -21 -16 -129 5 -123 25 -197 75 -282
34 -59 51 -65 51 -18 0 42 16 55 38 32 16 -16 16 -18 1 -29 -9 -7 -21 -22 -27
-33 -10 -18 -7 -28 20 -65 17 -24 39 -50 48 -59 10 -8 77 -80 151 -160 73 -80
137 -148 141 -151 5 -3 25 -37 44 -74 51 -102 47 -203 -10 -240 -37 -24 -98
-12 -140 28 -34 33 -74 123 -83 190 -4 22 -11 37 -19 37 -8 0 -14 5 -14 11 0
5 4 8 9 5 9 -6 2 85 -8 96 -3 4 -46 4 -96 0 l-90 -7 3 -65 c1 -36 7 -95 12
-132 6 -37 15 -111 20 -165 12 -118 25 -160 51 -168 26 -9 41 3 34 26 -4 11
-2 19 4 19 6 0 11 -7 11 -15 0 -33 69 -2 82 37 4 10 10 10 34 -2 16 -8 36 -20
45 -28 21 -17 105 -13 102 6 -4 17 14 15 21 -3 14 -38 121 0 195 70 29 27 62
73 82 113 30 61 34 77 37 172 4 123 -6 179 -33 194 -28 15 -36 29 -25 40 17
17 11 52 -15 90 -14 21 -35 56 -47 79 -11 23 -60 81 -107 128 -47 48 -99 103
-115 123 -15 20 -34 36 -42 36 -8 0 -14 5 -14 12 0 14 -130 152 -147 156 -7 2
-13 13 -13 25 0 12 -5 29 -11 37 -8 11 -9 4 -6 -27 6 -53 -4 -61 -38 -29 -20
19 -26 32 -23 58 2 27 7 33 25 31 24 -3 34 15 26 45 -3 13 -11 18 -24 15 -10
-3 -26 -2 -35 1 -13 5 -14 9 -4 21 10 12 10 18 1 29 -7 8 -11 27 -9 42 2 22
-2 28 -24 35 -16 4 -30 3 -33 -1z m46 -207 c1 -10 0 -22 -1 -28 -2 -5 -4 -19
-5 -30 -1 -11 -9 -21 -17 -23 -9 -2 -19 -13 -23 -25 -5 -16 -8 -18 -11 -7 -14
40 -29 60 -46 60 -31 0 -20 16 30 43 57 31 72 33 73 10z m-129 -95 c-7 -7 -12
-8 -12 -2 0 14 12 26 19 19 2 -3 -1 -11 -7 -17z m233 -59 c11 -17 -1 -21 -15
-4 -8 9 -8 15 -2 15 6 0 14 -5 17 -11z m105 -149 c0 -5 -7 -10 -16 -10 -8 0
-12 5 -9 10 3 6 10 10 16 10 5 0 9 -4 9 -10z m-14 -120 c1 -22 -2 -43 -7 -46
-5 -3 -9 18 -9 47 0 60 13 59 16 -1z m238 -88 c11 -18 -9 -29 -34 -20 -20 7
-22 11 -10 18 18 12 37 13 44 2z m21 -132 c3 -5 -3 -10 -15 -10 -12 0 -18 5
-15 10 3 6 10 10 15 10 5 0 12 -4 15 -10z m-48 -16 c-3 -3 -12 -4 -19 -1 -8 3
-5 6 6 6 11 1 17 -2 13 -5z m143 -169 c0 -8 -7 -15 -15 -15 -16 0 -20 12 -8
23 11 12 23 8 23 -8z m-430 -125 c0 -30 -13 -40 -25 -20 -8 13 4 50 16 50 5 0
9 -13 9 -30z m-85 -169 c3 -5 -4 -13 -16 -16 -23 -8 -34 -1 -24 14 8 13 32 14
40 2z m62 -7 c-3 -3 -12 -4 -19 -1 -8 3 -5 6 6 6 11 1 17 -2 13 -5z"/>
<path d="M4090 2754 c0 -8 5 -12 10 -9 6 3 10 10 10 16 0 5 -4 9 -10 9 -5 0
-10 -7 -10 -16z"/>
<path d="M2935 2744 c-60 -8 -135 -16 -165 -19 -68 -7 -170 -24 -190 -32 -8
-3 -59 -7 -113 -9 -133 -5 -139 -8 -135 -92 l3 -67 37 3 c43 3 63 -21 52 -63
-3 -14 -1 -31 6 -40 6 -8 9 -18 6 -23 -3 -5 -1 -52 5 -103 5 -52 11 -105 12
-119 2 -21 7 -25 32 -22 29 2 29 2 11 -13 -11 -8 -24 -15 -29 -15 -5 0 -6 -23
-2 -52 21 -170 38 -274 45 -282 5 -5 5 -17 -1 -27 -6 -13 -4 -43 7 -96 9 -43
18 -104 20 -137 2 -32 7 -64 12 -70 4 -6 7 -22 6 -36 -1 -14 2 -63 7 -110 9
-92 6 -100 -43 -100 -24 0 -28 -4 -28 -31 0 -17 4 -28 10 -24 6 3 10 13 10 21
0 12 4 13 22 3 14 -8 18 -14 10 -17 -19 -6 -14 -29 9 -35 16 -4 19 -11 14 -26
-8 -26 7 -27 148 -9 l98 12 -3 51 c-3 45 -1 50 20 53 16 3 22 10 22 28 0 13 5
24 10 24 17 0 11 39 -8 49 -14 8 -23 5 -38 -12 l-19 -22 -7 45 c-12 80 -9 388
4 392 6 2 12 27 12 57 1 62 19 81 78 81 27 0 38 -4 38 -15 0 -8 6 -15 14 -15
20 0 29 17 15 26 -7 4 1 12 21 21 18 7 36 10 39 7 3 -4 0 -9 -6 -11 -7 -3 -13
-18 -13 -34 0 -24 6 -32 30 -41 l31 -10 -26 -25 c-35 -36 -33 -52 8 -44 30 6
32 9 34 53 1 40 -2 47 -20 52 -18 5 -19 8 -8 15 18 12 22 134 4 152 -7 7 -10
29 -6 58 6 57 -9 117 -28 112 -8 -2 -21 -3 -29 -3 -8 1 -35 -1 -58 -4 l-44 -6
4 -71 3 -72 -46 -3 -46 -3 -7 47 c-3 26 -6 59 -6 74 0 15 -7 41 -15 57 -14 29
-18 30 -63 26 -26 -3 -60 -9 -76 -14 -42 -13 -56 -10 -21 5 17 7 57 16 89 19
32 3 63 10 68 15 8 8 -9 158 -21 177 -3 6 -6 45 -6 89 l0 78 55 4 c30 2 67 6
82 9 15 2 29 1 32 -3 2 -4 7 -43 10 -87 4 -44 9 -87 11 -95 2 -8 6 -32 10 -54
3 -21 8 -42 10 -47 3 -4 34 -6 68 -3 34 3 78 6 97 7 34 2 35 3 32 37 -13 173
-39 396 -46 409 -9 13 -19 13 -161 -5z m59 -49 c-3 -6 6 -19 20 -28 13 -9 26
-27 28 -39 2 -13 8 -21 13 -18 6 3 9 9 7 14 -2 5 4 4 13 -4 20 -17 2 -40 -25
-33 -21 6 -29 -20 -10 -32 6 -3 10 -12 10 -20 0 -11 -13 -13 -53 -11 -30 2
-59 6 -64 9 -17 11 -3 47 18 47 20 0 24 4 33 43 6 25 3 30 -24 40 -26 10 -39
34 -25 49 11 10 63 -4 59 -17z m-454 -55 c0 -5 -7 -7 -15 -4 -8 4 -15 8 -15
10 0 2 7 4 15 4 8 0 15 -4 15 -10z m-71 -29 c7 -5 12 -14 9 -21 -2 -7 -10 -4
-22 9 -19 21 -12 28 13 12z m81 -111 c0 -5 -7 -10 -15 -10 -8 0 -15 5 -15 10
0 6 7 10 15 10 8 0 15 -4 15 -10z m500 -66 c0 -8 -5 -12 -10 -9 -6 4 -8 11 -5
16 9 14 15 11 15 -7z m-400 -24 c0 -5 -5 -10 -11 -10 -5 0 -7 5 -4 10 3 6 8
10 11 10 2 0 4 -4 4 -10z m-10 -140 c12 -8 11 -10 -7 -10 -13 0 -23 5 -23 10
0 13 11 13 30 0z m-95 -60 c3 -5 1 -10 -4 -10 -6 0 -11 5 -11 10 0 6 2 10 4
10 3 0 8 -4 11 -10z m470 -300 c3 -5 1 -10 -4 -10 -6 0 -11 5 -11 10 0 6 2 10
4 10 3 0 8 -4 11 -10z m-292 -50 c24 0 21 -17 -5 -26 -23 -7 -48 16 -48 44 0
13 3 12 18 -1 10 -10 26 -17 35 -17z m-119 -6 c9 -24 8 -27 -14 -21 -11 3 -20
1 -20 -5 0 -5 -5 -6 -11 -3 -7 5 -4 14 7 26 21 23 30 24 38 3z m146 -47 c0 -7
-13 -18 -30 -24 -16 -6 -30 -18 -30 -27 0 -17 -15 -22 -24 -7 -8 12 51 71 70
71 8 0 14 -6 14 -13z m-119 -67 c10 0 19 -4 19 -10 0 -5 9 -10 19 -10 11 0 23
-4 26 -10 3 -5 1 -10 -5 -10 -6 0 -30 -9 -52 -20 -50 -24 -48 -24 -48 -5 0 8
9 15 20 15 22 0 27 15 9 26 -6 3 -23 -9 -39 -27 -33 -40 -48 -34 -26 9 21 40
49 68 54 53 2 -6 12 -11 23 -11z m-45 -125 c-22 -17 -36 -19 -36 -7 0 14 12
22 34 22 21 -1 21 -1 2 -15z m144 -25 c0 -5 -20 -10 -44 -10 -32 0 -50 -6 -71
-26 -15 -14 -30 -22 -33 -19 -10 9 12 39 39 52 29 15 109 17 109 3z m-5 -100
c3 -5 -1 -10 -9 -10 -8 0 -18 5 -21 10 -3 6 1 10 9 10 8 0 18 -4 21 -10z m-12
-57 c-7 -2 -21 -2 -30 0 -10 3 -4 5 12 5 17 0 24 -2 18 -5z m-98 -93 c3 -5 1
-10 -4 -10 -6 0 -11 5 -11 10 0 6 2 10 4 10 3 0 8 -4 11 -10z m20 -30 c3 -5 1
-10 -4 -10 -6 0 -11 5 -11 10 0 6 2 10 4 10 3 0 8 -4 11 -10z m63 -79 c-9 -15
-8 -24 5 -45 10 -14 13 -26 7 -26 -5 0 -10 4 -10 9 0 5 -11 19 -25 32 -33 32
-32 49 5 49 27 0 29 -2 18 -19z m-38 -46 c0 -8 -6 -15 -14 -15 -17 0 -28 14
-19 24 12 12 33 6 33 -9z"/>
<path d="M4110 2715 c0 -8 5 -15 10 -15 6 0 10 7 10 15 0 8 -4 15 -10 15 -5 0
-10 -7 -10 -15z"/>
<path d="M1333 2654 c-8 -20 15 -154 29 -171 15 -19 36 -16 43 6 6 18 -9 134
-21 165 -8 21 -43 21 -51 0z"/>
<path d="M6430 2535 c-13 -15 -39 -122 -40 -161 0 -25 27 -39 45 -24 7 5 20
46 29 90 14 64 15 84 6 95 -16 19 -24 19 -40 0z"/>
<path d="M4508 2493 c-21 -5 -31 -30 -14 -36 25 -10 66 5 66 24 0 19 -15 22
-52 12z"/>
<path d="M1425 2276 c-16 -11 -16 -15 0 -62 26 -76 46 -114 61 -114 16 0 19
52 5 96 -5 16 -12 41 -15 55 -7 32 -28 42 -51 25z"/>
<path d="M6333 2162 c-6 -4 -19 -27 -28 -52 -9 -25 -24 -59 -33 -77 -13 -26
-13 -34 -3 -47 30 -36 46 -19 86 89 15 42 19 68 13 79 -10 18 -17 19 -35 8z"/>
<path d="M1571 1906 c-13 -16 6 -74 46 -139 25 -40 55 -47 61 -15 4 18 -69
160 -85 165 -6 2 -15 -3 -22 -11z"/>
<path d="M6144 1763 c-15 -27 -33 -58 -40 -70 -16 -25 -19 -73 -5 -73 21 0 41
13 41 26 0 8 3 14 8 14 11 0 62 96 62 118 0 16 -17 32 -35 32 -2 0 -16 -21
-31 -47z"/>
<path d="M2940 1789 c0 -5 5 -7 10 -4 6 3 10 8 10 11 0 2 -4 4 -10 4 -5 0 -10
-5 -10 -11z"/>
<path d="M1755 1560 c-7 -12 10 -46 44 -85 14 -17 33 -41 42 -55 15 -23 17
-23 33 -8 22 23 20 34 -14 71 -16 17 -35 44 -41 59 -12 28 -51 39 -64 18z"/>
<path d="M5945 1457 c-5 -8 -30 -40 -54 -72 -37 -50 -41 -59 -29 -71 20 -21
37 -11 86 51 29 36 42 62 40 77 -4 26 -28 35 -43 15z"/>
<path d="M2840 1381 c0 -11 5 -23 10 -26 6 -4 10 5 10 19 0 14 -4 26 -10 26
-5 0 -10 -9 -10 -19z"/>
<path d="M3380 1305 c0 -8 5 -15 10 -15 6 0 10 7 10 15 0 8 -4 15 -10 15 -5 0
-10 -7 -10 -15z"/>
<path d="M2011 1256 c-17 -20 -4 -41 58 -99 53 -50 58 -52 80 -38 12 8 12 12
2 25 -7 9 -17 13 -22 10 -5 -3 -9 2 -9 10 0 22 -71 106 -89 106 -5 0 -14 -6
-20 -14z"/>
<path d="M2916 1189 c-38 -45 -35 -69 9 -67 48 2 60 18 45 63 -6 19 -15 35
-20 35 -4 0 -20 -14 -34 -31z"/>
<path d="M5661 1141 c-17 -16 -31 -34 -31 -40 0 -6 -11 -16 -25 -21 -18 -7
-25 -17 -25 -35 0 -31 29 -35 37 -5 3 11 11 19 18 18 19 -4 95 69 95 92 0 29
-32 25 -69 -9z"/>
<path d="M1929 1078 c-7 -24 -19 -54 -26 -68 -7 -14 -13 -35 -13 -47 0 -12 -7
-26 -15 -31 -13 -7 -8 -16 27 -54 57 -60 74 -68 128 -58 62 12 80 20 80 36 0
19 -53 18 -90 -1 -38 -19 -69 -11 -98 26 l-23 28 23 6 c56 13 88 12 88 -2 0
-11 -7 -14 -25 -11 -35 7 -42 -9 -7 -17 17 -3 40 0 56 9 20 10 37 12 59 5 18
-5 47 -6 65 -3 l34 7 -49 43 c-26 24 -54 43 -61 44 -7 0 -15 8 -19 18 -7 19
-99 112 -112 112 -4 0 -14 -19 -22 -42z m96 -98 c-3 -5 -19 -10 -36 -10 -16 0
-29 5 -29 10 0 6 16 10 36 10 21 0 33 -4 29 -10z"/>
<path d="M4432 1090 c-52 -11 -102 -40 -102 -58 0 -12 10 -13 48 -8 26 3 84 9
129 13 78 5 85 4 122 -20 l40 -27 -17 -29 c-9 -17 -27 -35 -40 -40 -29 -14
-153 -14 -212 0 -24 5 -55 7 -68 4 -23 -6 -23 -7 -8 -24 9 -10 16 -25 16 -34
0 -10 11 -19 28 -23 15 -3 33 -7 39 -9 7 -2 19 5 27 16 13 19 19 20 70 10 69
-13 106 -1 139 42 40 53 41 79 6 123 -17 22 -42 45 -55 52 -33 17 -109 23
-162 12z"/>
<path d="M2306 993 c-15 -15 -5 -43 19 -49 14 -3 25 -11 25 -18 0 -11 45 -43
82 -58 26 -11 43 16 23 36 -40 39 -139 99 -149 89z"/>
<path d="M3900 979 c-70 -6 -102 -14 -122 -29 -15 -11 -36 -20 -47 -20 -18 0
-37 -27 -26 -38 2 -3 42 1 87 8 46 7 112 12 148 12 67 0 88 11 67 37 -9 11 -9
15 1 18 6 3 12 9 12 14 0 5 -6 8 -12 8 -7 -1 -56 -6 -108 -10z"/>
<path d="M4061 971 c-19 -3 -36 -11 -38 -18 -7 -21 85 -69 158 -83 62 -12 71
-12 88 4 20 18 25 65 7 67 -32 4 -56 9 -106 23 -30 9 -59 15 -65 15 -5 -1 -25
-4 -44 -8z"/>
<path d="M4740 912 c-18 -39 -93 -91 -160 -110 -93 -27 -139 -33 -159 -22 -11
5 -35 10 -54 10 -33 0 -34 -1 -33 -37 1 -36 3 -38 35 -41 35 -4 211 33 245 50
75 39 152 128 143 168 -1 9 -9 2 -17 -18z"/>
<path d="M5361 899 c-23 -16 -45 -29 -49 -29 -13 0 -62 -47 -62 -59 0 -6 8
-15 19 -20 14 -8 29 -4 67 21 67 43 103 78 97 93 -9 25 -32 24 -72 -6z"/>
<path d="M3735 850 c-38 -17 -38 -19 -12 -19 16 -1 27 -7 27 -15 0 -23 17 -28
111 -37 49 -5 99 -15 111 -23 13 -8 53 -17 89 -21 l66 -7 21 36 21 36 -22 -3
c-15 -1 -21 3 -19 14 2 13 -11 17 -59 23 -103 10 -111 9 -107 -16 2 -15 -3
-24 -14 -26 -17 -3 -19 13 -5 35 5 8 0 14 -15 17 -13 3 -36 8 -53 11 -69 15
-101 14 -140 -5z m175 -30 c0 -5 -4 -10 -9 -10 -6 0 -13 5 -16 10 -3 6 1 10 9
10 9 0 16 -4 16 -10z"/>
<path d="M2265 830 c3 -5 8 -10 11 -10 2 0 4 5 4 10 0 6 -5 10 -11 10 -5 0 -7
-4 -4 -10z"/>
<path d="M3612 788 c-31 -31 0 -38 38 -8 l25 20 -25 0 c-15 0 -31 -5 -38 -12z"/>
<path d="M2230 770 c-14 -4 -60 -8 -102 -9 -79 -1 -96 -11 -57 -32 14 -7 44
-9 88 -4 77 9 174 16 214 16 l29 0 -25 19 c-27 21 -98 26 -147 10z"/>
<path d="M2631 766 c-9 -11 -6 -18 15 -35 14 -11 30 -18 35 -15 5 3 24 -6 42
-20 33 -25 34 -26 51 -7 20 23 11 31 -37 33 -26 1 -37 8 -50 30 -18 31 -38 36
-56 14z"/>
<path d="M5030 704 c-14 -8 -46 -23 -72 -34 -40 -16 -48 -24 -48 -46 0 -23 3
-25 26 -20 74 19 160 76 150 101 -7 18 -23 18 -56 -1z"/>
<path d="M2140 675 c0 -13 45 -25 75 -19 53 10 42 24 -20 24 -30 0 -55 -2 -55
-5z"/>
<path d="M2514 634 c-7 -3 -40 -8 -75 -12 -40 -4 -64 -12 -67 -21 -4 -12 9
-13 71 -8 l76 5 3 -26 c3 -27 3 -27 112 -34 60 -4 115 -4 123 0 9 6 -13 21
-71 51 -79 40 -146 57 -172 45z m66 -24 c0 -5 -8 -10 -17 -10 -15 0 -16 2 -3
10 19 12 20 12 20 0z"/>
<path d="M2980 586 c0 -20 9 -26 49 -40 28 -9 71 -16 96 -16 70 0 56 26 -29
56 -91 31 -116 31 -116 0z"/>
<path d="M2298 593 c7 -3 16 -2 19 1 4 3 -2 6 -13 5 -11 0 -14 -3 -6 -6z"/>
<path d="M4643 557 c-17 -7 -35 -15 -39 -19 -4 -5 -17 -8 -28 -8 -12 0 -27 -9
-33 -20 -11 -16 -10 -21 7 -30 18 -10 66 3 80 21 3 3 21 9 40 13 47 9 64 21
57 40 -7 18 -38 20 -84 3z m-46 -43 c-3 -3 -12 -4 -19 -1 -8 3 -5 6 6 6 11 1
17 -2 13 -5z"/>
<path d="M3360 475 c0 -20 24 -30 108 -44 81 -14 107 -6 86 27 -14 21 -49 29
-131 31 -49 1 -63 -2 -63 -14z"/>
<path d="M4220 471 c-61 -7 -80 -15 -80 -36 0 -28 33 -34 114 -22 76 12 99 26
89 54 -5 14 -29 14 -123 4z"/>
<path d="M3753 434 c-11 -28 24 -43 98 -42 73 0 106 15 96 42 -5 13 -22 16
-97 16 -75 0 -92 -3 -97 -16z"/>
<path d="M4347 233 c-16 -16 4 -163 25 -191 18 -21 39 6 33 42 -3 17 -9 54
-13 81 -10 67 -25 89 -45 68z"/>
<path d="M4110 143 c0 -72 15 -143 30 -143 22 0 29 40 20 112 -5 40 -10 79
-10 86 0 6 -9 12 -20 12 -18 0 -20 -7 -20 -67z"/>
<path d="M4385 10 c-3 -5 3 -10 14 -10 12 0 21 5 21 10 0 6 -6 10 -14 10 -8 0
-18 -4 -21 -10z"/>
</g>
</svg>
