<?xml version="1.0" encoding="utf-8"?>
<!-- Generator: Adobe Illustrator 19.1.0, SVG Export Plug-In . SVG Version: 6.00 Build 0)  -->
<svg version="1.1" id="Layer_1" xmlns="http://www.w3.org/2000/svg" xmlns:xlink="http://www.w3.org/1999/xlink" x="0px" y="0px"
	 viewBox="0 0 1008 1008" style="enable-background:new 0 0 1008 1008;" xml:space="preserve">
<style type="text/css">
	.st0{fill:#231F20;}
</style>
<path class="st0" d="M901.2,569.4c-10.5-12.2-28.2-32.6-33-56.9c-5.8-28.9,7.3-56.8,40-85.5c3.8-3.3,5.9-8.1,5.9-13.1
	c0-1.1-0.1-2.1-0.3-3.2c-1.2-6.9-6.2-13-12.7-15.6c-69.6-27.7-104.2-52.5-100.4-111.6l0,0c0.2-2.9,1.6-5.5,3.8-7.3l86.1-68.8
	c3.7-3,5.7-7.3,5.7-11.8c0-1.9-0.4-3.8-1.1-5.7c-2.5-6.2-8.7-10-15.4-9.4c-55,4.9-95.7,1.5-124.4-10.5c-24.9-10.4-40.6-27-49.4-52.2
	c-2-5.8-7.3-9.8-13.4-10.1c-6.2-0.3-11.8,3-14.5,8.6l-6.8,14.3c-1.3,2.7-3.6,4.7-6.5,5.6l0,0c-42.3,12.9-75.6,14.8-98.8,5.7
	c-18.4-7.2-27.8-20.3-35.4-30.7c-3.7-5.1-6.8-9.5-10.7-13c-4.7-4.3-11.2-6-17.5-4.7c-6.2,1.3-11.5,5.6-14.1,11.4
	c-12.3,27.5-33,46.6-58.3,53.9c-26.6,7.6-55.7,1.5-84.3-17.7l0,0c-2.7-1.8-4.8-4.3-6.2-7.2l-9.2-19.4c-2.6-5.4-7.6-9-13.6-9.5
	c-5.9-0.6-11.6,1.9-15.2,6.7c-27,36.2-52.6,57.8-80.3,67.9c-27.7,10.1-56.3,7.8-83,3.9c-7.7-1.1-14.9,2.9-18,10
	c-3.1,7.1-1.1,15.1,5,19.9l49.7,39.3c4.2,3.3,6.8,8.2,7.3,13.5l0,0.1c0.7,8.4,2.7,30.6-6.3,55.6c-11.2,30.9-35.5,55.7-72.1,73.7
	c-5.9,2.9-9.9,8.9-10.4,15.6c0,0.6-0.1,1.2-0.1,1.8c0,6.1,2.9,11.9,7.8,15.4c40.8,29.2,61.5,54.8,65,80.6c2.8,20.4-5.2,41.6-24.5,65
	c-0.1,1.1-1,1.9-2,2.1l-24.5,5.6c-4.9,1.1-8.9,4.6-10.8,9.2c-0.7,1.8-1.1,3.7-1.1,5.5c0,3,0.8,6,2.6,8.6
	c37.2,55.8,36.9,117.7-1.1,200.8c-0.9,2.1-1.4,4.3-1.4,6.5c0,3.1,1,6.2,2.9,8.8c3.2,4.4,8.6,6.8,14,6.3c32.2-3.4,63.5,0.3,93.1,11.3
	c32.3,11.9,61.1,31.9,85.6,59.4c2.9,3.3,7,5.1,11.3,5.1c0.7,0,1.4,0,2.1-0.1c5.1-0.7,9.4-3.9,11.6-8.4c0,0,3.8-6.2,7.4-12.1
	c4.2-6.9,10.9-11.8,18.7-13.8l0,0c24.2-9,80.8-30,139.1,38.6c3.5,4.2,8.8,6.5,14.3,6.5c0.6,0,1.2,0,1.7-0.1
	c6.5-0.6,12.2-4.2,15.4-9.7c18.6-32.1,36.7-51.5,56.8-61.2c1.3-0.6,2.6-1.2,3.9-1.8c33.7-13.9,72.5,1,89.3,33.5l6.8,13.3
	c2.8,5.8,8.5,9.6,15,9.7c0.1,0,0.3,0,0.4,0c6.3,0,12-3.4,15-9c13-24.1,33.8-40.8,63.5-51.1c26.5-9.2,61.1-13.5,105.5-13.1
	c0.1,0,0.1,0,0.2,0c7.3,0,13.6-4.5,16.1-11.4c0.7-2,1-4.1,1-6.1c-0.1-5-2.4-9.7-6.5-13l-56.9-45c-2.5-2-4.2-4.9-4.6-8.1l0,0
	c-4.7-35.1,2.4-64.9,21.2-88.6c15.8-19.8,36.3-31.3,48.6-38.2c3.6-2,6.5-3.7,8.9-5.2c5.7-3.8,8.8-10,8.9-16.4
	c0-3.5-0.9-7.1-2.8-10.4C908.8,578.1,905.6,574.5,901.2,569.4z M861.2,575.6L814,564.8c-4-0.9-7.6-3.3-10-6.6l0,0
	c-1.7-2.3-4-4.9-6.6-7.9c-8.2-9.3-20.5-23.3-24.1-39.9c-4.2-19.3,4.2-38.2,25.7-57.9c0,0,0.1-0.1,0.1-0.1c8-7.4,17.6-12.9,28.2-15.3
	l30-6.8c3.1-0.7,5.4,2.8,3.5,5.3c-19.6,26.5-26.6,54.2-20.9,82.5c4.2,20.9,14.6,38.5,24.8,52.1C866.5,572.8,864.3,576.3,861.2,575.6
	z M637.7,759.7c-1.9-4-2.4-8.6-1.4-12.9l0-0.1c5.7-24.8,16.5-41.5,32-49.8c10.7-5.7,29.4-10.2,57.6,0.6l0.1,0
	c11.8,4.5,22.9,10.8,32.8,18.6l12,9.5c2.5,2,1.1,6.1-2.1,6c-21.9-0.2-41.2,1.7-58.6,8.5c-22.9,9-39.4,25.3-50.6,50.3
	c-1.3,2.9-5.5,3-6.9,0.1L637.7,759.7z M331.3,820c-16.6-25.7-47.8-59.4-103.5-77.2c-3.3-1.1-4.1-5.4-1.4-7.5l31.3-25
	c5.9-4.7,13.3-7,20.9-6.5l0.1,0c58.1,4.1,76.8,49.7,82.2,69.1l0,0c0.2,0.7,0.1,1.4-0.2,2.1l-21.8,44.7
	C337.4,822.6,333.2,822.9,331.3,820z M235.3,636.9c-7-18.5-21.4-34.1-44.6-47.8c-2.3-1.3-1.7-4.8,0.8-5.3L221,577
	c5.6-1.3,11.5-0.6,16.7,1.9l0.1,0c22.9,11.1,36.8,25.3,41.4,42.3c3.2,11.7,3.4,30.9-13.4,56l0,0.1c-4.4,6.6-13,16-19.2,20.9
	l-9.4,7.5c-2.3,1.8-5.5-0.5-4.6-3.2C240.5,679.1,243.1,657.6,235.3,636.9z M273.2,492.6c-2.2-11.6-7.3-22.5-15-32.4
	c-1.7-2.2,0.3-5.4,3-4.7l32.5,7.4c5.3,1.2,10.4,3.5,14.5,7c0.5,0.4,1,0.8,1.6,1.2c9.3,6,20.6,16,22.3,30.1c0.4,3.1,0.2,6.3-0.4,9.6
	c-2.7,13.7-13.5,24.4-27.2,27.5l-35.3,8c-2.4,0.6-4.4-1.9-3.4-4.2C273.8,525.3,276.3,508.7,273.2,492.6z M358.3,218.2
	c2.9,6.1,3.5,13,1.6,19.5l0,0.1c-15.6,46.7-47.2,55.9-69.6,62.7c-10.8,3.3-22.5,1-31.3-5.9l-28-22.1c-2.2-1.8-1.6-5.3,1-6.3
	c29.3-10.2,71-33.4,101.7-86.5c1.5-2.5,5.1-2.4,6.4,0.3L358.3,218.2z M662.6,193.4c1.4-3,5.8-2.6,6.7,0.6
	c6.2,22,14.5,38.9,25.7,52.9c14.3,17.9,33.6,30.5,58.4,38.2c2.8,0.9,3.5,4.5,1.2,6.3l-31.1,24.8c-3.3,2.6-7.4,4.1-11.6,4l-0.1,0
	c-25.4-0.1-44.1-6.9-55.6-20.3c-7.9-9.2-16.4-26.4-12.1-56.3l0-0.1c1.3-9.2,5.7-23.6,9.7-32L662.6,193.4z M717.2,413.4
	c6.2,8.4,14.1,15.3,23.6,20.7c2.7,1.5,2.1,5.5-0.9,6.2l-33.9,7.7c-4.1,0.9-8.3,1.1-12.5,0.6l0,0c-10.9-1.4-25.5-5.5-33.1-17.5
	c-2-3.2-3.4-6.7-4.2-10.7c-2.8-13.8,2.8-28,13.8-36.7l27-21.6c2.2-1.8,5.5-0.2,5.4,2.6C702.4,383.7,707.3,400,717.2,413.4z
	 M675.5,511.1c0.7,6.4,2.3,12.6,4.8,18.5c0.9,2.2-1,4.6-3.3,4l-50.5-11.5c-2.5-0.6-4.9-1.6-6.9-3.1l0,0
	c-8.1-5.8-14.1-12.2-18.3-19.5c-2.7-4.7,0-10.7,5.3-11.9l71.7-16.4c2.4-0.5,4.3,1.9,3.3,4.1C676.4,487,674.3,499.2,675.5,511.1z
	 M366.7,578.8c-3.5-9.9-10.5-18.3-21.1-25.1c-2.2-1.4-1.6-4.8,0.9-5.3l17.2-3.9c10.6-2.4,21.6-1.1,31.6,3.1c0,0,0.1,0,0.1,0
	c5.5,2.2,10.4,4.7,14.8,7.3c4.3,2.6,4.6,8.7,0.7,11.8l-37.1,29.7c-1.9,1.5-4.8,0.1-4.8-2.3C369.1,588.8,368.4,583.6,366.7,578.8z
	 M348.3,499.3c-0.9-7.2-3.4-14-7.4-20.4c-1.4-2.2,0.5-5.1,3.1-4.5l53.6,12.2c5.8,1.3,8.9,7.6,6.4,13c-1.6,3.3-3.5,6.7-5.8,10.1
	c-3.7,5.4-9.3,9.3-15.7,10.7l-34.7,7.9c-2.3,0.5-4.3-1.8-3.3-4C348,516,349.3,507.5,348.3,499.3z M595.6,376.1
	c7.1,7.2,16.6,11.6,28.4,13.3c2.5,0.4,3.4,3.6,1.4,5.2L590,422.9c-2.4,1.9-5.3,3-8.4,3.2l0,0c-6.2,0.4-12,0.3-17.3-0.3
	c-5.9-0.6-9.5-6.9-6.9-12.3l24.2-50.6c1.1-2.2,4.3-2.2,5.3,0.1C589,368,592,372.4,595.6,376.1z M646.5,439.9
	c3.4,5.4,7.8,10,13.2,13.7c2.1,1.5,1.5,4.7-1,5.3l-52.6,12c-6.1,1.4-11.7-3.7-10.7-9.9c0.7-4.4,1.7-8.9,3.1-13.7l0-0.1
	c1.6-5.4,4.8-10.3,9.2-13.8l26.6-21.2c1.9-1.5,4.7-0.2,4.8,2.2C639.4,423.9,641.9,432.5,646.5,439.9z M551.2,578.6l-11.6-24.3
	c-3.3-6.8-2.6-15,2.2-20.9c3.2-3.9,7.8-6.3,13.8-7.4l0.1,0c5.4-1,10.9-0.8,16.3,0.4l28.3,6.5c2.1,0.5,2.1,3.3,0.1,3.9
	c-21.9,6.3-36.9,20.1-45.5,41.7C554.2,580.1,551.9,580.2,551.2,578.6z M469.6,595.4l14.7-30.2c1.1-2.2,3.5-5.4,5.4-7.1l0,0
	c8.6-7.6,17.3-8.1,29.1-1.5c0.2,0.1,0.3,0.2,0.5,0.2l18.6,38.9c0.8,1.7-0.9,3.5-2.6,2.7c-23.1-10.2-43.9-10.3-63-0.3
	C470.6,599,468.7,597.1,469.6,595.4z M409.3,534l40-9.1c1.4-0.3,2.9-0.2,4.2,0.3l0,0c12.5,5.1,17.6,12.2,17.1,23.7
	c0,0.1,0,0.3,0,0.4L453.7,584c-0.8,1.7-3.3,1.4-3.8-0.4c-5.2-19.8-18.8-34.9-41-45.8C407.2,537,407.5,534.5,409.3,534z M420.4,446.8
	l21.9,17.3c4.5,3.5,8.3,7.9,11.2,12.8l0,0c0.1,0.1,0.1,0.2,0.2,0.3c6.9,11.8,0.2,26.8-13.1,29.9l-23.1,5.3c-1.7,0.4-3.1-1.4-2.3-2.9
	c10.5-19.7,11.1-39.7,2-60.3C416.4,447.3,418.7,445.5,420.4,446.8z M562.9,440.2c1.8,0.2,2.5,2.5,1,3.6l-22.7,18.2
	c-0.3,0-0.5,0-0.8,0c-14.2,0.8-22.1-4-26.4-16c-0.4-1.1-0.9-2.1-1.6-3l0-25.6c0-1.9,2.4-2.8,3.6-1.3
	C527.3,430,542.8,438,562.9,440.2z M543.3,514.7c-0.2,0.1-0.4,0.2-0.6,0.3c-2,0.9-4.3,0.7-6.1-0.7l-11.7-9.3c-1.8-1.4-1.8-4.1,0-5.5
	l7.5-6c1.6-1.3,3.9-0.4,4.3,1.6c1.2,5.6,3.7,10.7,7.6,15.1C545.6,511.7,545.1,513.9,543.3,514.7z M504,458.8
	c4.2,7.2,10.1,12.2,17.6,15c1.4,0.5,1.7,2.4,0.5,3.4l-14.9,11.9c-0.7,0.6-1.7,0.6-2.4,0l-19.1-15.1c-1.1-0.9-1-2.7,0.3-3.3
	c5.6-2.7,10.6-6.8,14.8-12.1C501.6,457.4,503.3,457.6,504,458.8z M474.7,489.8l14.1,11.1c0.9,0.7,0.9,2.1,0,2.8l-17.1,13.7
	c-0.6,0.5-1.5,0.5-2.2,0.1c-1.6-1.1-3.2-2.1-5-3.1c-1-0.5-1.2-1.7-0.6-2.6c4.9-6.8,7.6-13.7,7.9-20.7
	C471.9,489.7,473.6,488.9,474.7,489.8z M484.3,539.3c-0.3-1.4-0.6-2.7-1-3.9c-0.4-1.2,0-2.5,1-3.3l19.9-15.9c1.1-0.9,2.7-0.9,3.8,0
	l16.6,13.1c1.1,0.9,1.4,2.3,0.9,3.6c-0.8,1.9-1.6,3.8-2.2,5.9c-0.5,1.7-2.4,2.6-4.1,2c-11-4.4-21.2-4.2-30.5,0.7
	C486.9,542.3,484.7,541.3,484.3,539.3z M495.9,432.4c0,4.1-1,8.2-3,11.8l0,0c-0.1,0.1-0.1,0.2-0.2,0.3c-7,12.8-24,16-35.4,7
	L441,438.6c-1.3-1.1-0.9-3.2,0.8-3.6c7.2-1.5,14.3-4.1,20.9-7.8c11.4-6.3,21.4-15.8,29.5-27.5c1.1-1.7,3.7-0.9,3.7,1.1L495.9,432.4z
	 M411,414.8L375.8,387c-1.8-1.4-1.3-4.3,0.9-5.1c5.2-1.8,10.2-4.3,14.8-7.3c9.7-6.5,17.6-15.6,23.3-26.7c1.1-2.2,4.2-2.2,5.3,0
	l28.3,59.5c2.4,5.1-0.4,11.2-5.9,12.7c-2.1,0.6-4.2,1-6.4,1.4C427.1,422.8,418,420.4,411,414.8z M567.7,508.7
	c-2.7-0.6-5.2-1.7-7.4-3.3l0,0c-5-3.6-8-7.6-9.3-12.5c-1.8-7.3,1.1-14.9,6.9-19.6l19.8-15.8c1.4-1.1,3.6,0.1,3.3,1.9
	c-3,19.9,0.2,36.8,9.8,51.1c1,1.5-0.3,3.5-2.1,3.1L567.7,508.7z M541.4,402.3c-3.2,6.7-12.5,7.5-16.8,1.4c-3.6-5.1-6.6-11.1-9.1-18
	l0-0.1c-2.2-6-3.3-12.2-3.3-18.6l0-39.9c0-2.4,2.7-3.8,4.6-2.4c5.6,4.1,11.9,7.4,18.6,9.6c10.1,3.3,21.1,4,32.2,2.2
	c2.3-0.4,4.1,2,3.1,4.1L541.4,402.3z M495.9,344.3c0,13.5-3.6,26.8-10.3,38.5c-0.1,0.1-0.2,0.3-0.2,0.4c-2.9,5.4-6.2,10.3-9.8,14.7
	c-3.1,3.7-9,3-11.1-1.4L439,343.1c-1-2.1,0.8-4.5,3.1-4.1c4.4,0.7,8.8,1.1,13.2,1.1c13,0,25.7-3.2,36-10.5c1.9-1.4,4.6,0,4.6,2.4
	L495.9,344.3z M405.6,325.7c-0.2,0.7-0.4,1.4-0.6,2.1c-9.3,32-48.5,44.1-74.6,23.4l-28.7-22.7c-1.9-1.5-1.3-4.6,1.1-5.2
	c23.9-6.5,54.4-22,71.9-59.1c1.1-2.3,4.3-2.3,5.4,0l24.7,51.9C406.2,318.9,406.5,322.4,405.6,325.7L405.6,325.7z M380,414.9
	c13.3,12.1,24.4,40.5,26,44.9c2,5.6-3.1,11.2-8.9,9.9l-61.9-14.1c-2.3-0.5-3.1-3.4-1.3-5c16.1-14.5,22.3-32.2,22.6-48.3
	c0-2.4,2.8-3.7,4.7-2.2L380,414.9z M421.8,579c4.3-3.5,10.7-1.7,12.7,3.5c2.7,7.3,3.8,15.5,3.4,24.8l0,0.1
	c-0.3,6.7-1.9,13.2-4.9,19.3l-14.1,29c-1,2.1-3.9,2.2-5.1,0.2c-8.1-13.4-21.9-25.3-42.5-30.3c-2.4-0.6-3.1-3.6-1.2-5.1L421.8,579z
	 M444.3,647.2c5-10.3,12.3-19.2,21-26.7c0,0,0.1-0.1,0.1-0.1c6.8-6,13.7-10.3,20.9-12.7c4.7-1.6,9.6,1.9,9.6,6.9l0,65.7
	c0,2.4-2.7,3.8-4.7,2.3c-13.4-9.9-27.4-13.7-40.2-13.7c-4.3,0-8.5,0.4-12.6,1.2c-2.4,0.5-4.2-2-3.2-4.2L444.3,647.2z M512.3,617.4
	c0-6,6-10.2,11.7-8.1c4.7,1.7,9.5,4,14.5,6.8l0.1,0.1c8.1,4.4,14.6,11.3,18.6,19.7l8.5,17.9c1.1,2.3-1,4.8-3.5,4.1
	c-11-3.3-21.2-3.3-30.5,0c-5.3,1.9-10.2,4.9-14.5,8.9c-1.9,1.7-4.9,0.4-4.9-2.1L512.3,617.4z M565,593.9c1.3-5,2.9-9.5,4.8-13.7
	c2.3-5,8.7-6.5,13.1-3.1l41.9,33.1c2,1.6,1.2,4.8-1.4,5.2c-6.6,1-12.8,3.3-18.3,6.7c-7.6,4.8-13.7,11.7-18.2,20.5
	c-1.1,2.2-4.2,2.1-5.2-0.1l-15-31.3C564.2,605.9,563.5,599.7,565,593.9z M647.5,603.6l-48.4-38.3c-4.9-3.9-3.7-11.7,2.3-13.8
	c3.5-1.2,7.3-2.2,11.3-2.9c0.3-0.1,0.6-0.1,0.9-0.2c19-4.5,38.9-3.7,57.9,0.6l2.7,0.6c2.3,0.5,3.1,3.5,1.3,5.1
	c-5.2,4.4-9.8,9.7-13.4,15.6c-5.7,9.2-9,19.7-9.8,31.1C652.1,603.9,649.4,605.1,647.5,603.6z M638.7,315.1
	c11.1,13,26.4,21.5,45.6,25.5c2.8,0.6,3.6,4.1,1.4,5.9l-25.9,20.7c-4.4,3.5-9.7,5.6-15.2,6.2l-0.1,0c-17.2,1.7-29.7-1.2-37.2-8.8
	c-8.9-9-9.4-23.5-8.2-34.1l0,0c0.3-2.9,1.6-7.4,2.8-10l14.7-30.8c1.7-3.5,6.8-3.3,8.1,0.4C627.8,299.5,632.5,307.8,638.7,315.1z
	 M584.6,311.9c-0.9,1.9-2.5,3.5-4.5,4.2l0,0c-30.1,12-52.6,0.2-63.6-14.8l0,0c-2.7-3.6-4.1-8-4.1-12.5l0-54.4c0-3.2,3.7-5,6.2-3
	c7.4,5.7,16.6,11.6,27.3,16c19.3,8,39.4,10.2,59.9,6.4c3.1-0.6,5.5,2.6,4.1,5.5L584.6,311.9z M495.9,290.6c0,4.4-1,8.8-3.1,12.7l0,0
	c-4.7,9.3-12.5,15.1-21.6,18c-21.3,6.9-44.4-3.7-54-23.9l-13.9-29.2c-1.1-2.4,1.1-4.9,3.6-4.1c17.4,5.6,34.1,6.3,49.4,1.9
	c13-3.7,24.5-10.9,34.4-21.5c1.8-2,5.2-0.7,5.2,2L495.9,290.6z M291.7,345l42.6,33.7c1.8,1.4,3,3.5,3.2,5.8c0.1,0.8,0.3,1.6,0.5,2.4
	c8.7,28-9.5,50.1-27.6,60.4l0,0c-2,1.2-4.5,1.5-6.8,1l-53.3-12.2c-2.6-0.6-3.2-4-0.9-5.4c19.7-12.7,32.1-28.6,36.9-47.5
	c3.2-12.7,2.5-24.9,0.7-35.4C286.5,345.2,289.6,343.3,291.7,345z M305.2,557.8c4.9-1.1,10.2-0.7,14.6,1.6c0.5,0.3,1.1,0.5,1.6,0.7
	c16.3,5.9,26.3,13.9,29.8,24c4.1,11.9-1.7,25.2-7.3,34.3l0,0c-1.5,2.4-3.3,4.5-5.5,6.2l-30.6,24.5c-2.1,1.7-5.2-0.1-4.8-2.8
	c1.6-10.7,1.1-21.1-1.6-31.2c-4.7-17.2-15.4-32-32-44.2c-2.1-1.5-1.4-4.7,1.1-5.3L305.2,557.8z M357.5,718
	c-15.1-17.5-34.2-29-56.9-34.3c-3-0.7-4-4.6-1.5-6.5l41.4-33.1c4.1-3.3,9.2-4.9,14.4-4.5l0.1,0c18.7,1.2,41.6,11,49.3,33.9
	c1.6,4.7,1.2,9.9-1,14.3l-24.7,50.8c-1.3,2.7-5.2,2.8-6.6,0.2C368.1,732,363.4,724.8,357.5,718z M419.3,698.6
	c1.4-2.9,3.8-5.1,6.7-6.5c0.3-0.1,0.5-0.3,0.8-0.4c25.4-14.7,50.9-1.9,65,13.4l0,0c2.6,2.8,4.1,6.5,4.1,10.4l0,55.7
	c0,3.1-3.5,4.8-5.9,3c-21.9-16.1-45.1-21.1-65.2-21.1c-9.8,0-18.9,1.2-26.7,2.8c-3,0.6-5.4-2.5-4.1-5.3L419.3,698.6z M512.2,716.9
	c0-5.6,1-11.2,2.8-16.5l0-0.1c3.5-10.1,10.3-23,22.1-27.2c10-3.6,22.6-0.8,37.4,8.1l0,0c3.9,2.4,7,5.8,9,9.9l14.8,31.1
	c1.3,2.8-1.2,5.9-4.2,5.2c-18.2-4-35-2.7-50.1,3.9c-9.6,4.2-18.2,10.5-25.5,18.7c-2.3,2.5-6.5,0.9-6.5-2.5L512.2,716.9z
	 M599.8,680.3c-3.5-7.3-4.2-15.8-1.6-23.5c2.4-7.2,7-15.4,15.7-20.8c12.1-7.5,27-5,37.5-1.5l0.1,0c4.7,1.6,9.1,3.9,13,7l25.9,20.5
	c2.4,1.9,1.2,5.8-1.9,6c-11.1,0.7-21.5,3.5-30.9,8.5c-14.9,7.9-26.4,20.7-34.6,38.1c-1.3,2.8-5.4,2.9-6.7,0L599.8,680.3z
	 M671.3,622.4c-1-0.8-1.7-2-2-3.3l0,0c-5.3-33.2,12.8-52.9,29.9-59.7l0.1,0c4-1.6,8.4-2,12.6-1l53.8,12.3c2.7,0.6,3.5,4.1,1.4,5.9
	c-18.5,15-40.7,41.2-42.5,81.3c-0.1,2.7-3.3,4.2-5.4,2.5L671.3,622.4z M711.9,541.5c-2.9-0.7-5.6-2.2-7.6-4.4l0,0v0
	c-20-21.6-13.1-49.5-1.1-66.7l0,0c2.5-3.7,6.3-6.2,10.6-7.2l46.4-10.6c3-0.7,5.2,2.7,3.5,5.2c-13,18.7-17.3,38-13,57.7
	c2.7,12.4,8.7,23.3,15,32.3c1.8,2.5-0.5,5.9-3.5,5.2L711.9,541.5z M856,413.8l-34.1,7.8c-11.1,2.5-22.5,3.3-33.9,2.4l-0.1,0
	c-30.1-2.4-45-14.5-52.2-24.3c-10.5-14.2-12.9-33.9-7.4-58.8l0,0c0.7-3.1,2.4-5.8,4.9-7.8l33.4-26.7c2.2-1.8,5.5-0.4,5.9,2.4
	c6.4,50.8,41.9,78.4,84.2,98.7C859.6,408.9,859.2,413.1,856,413.8z M748,187.9c25.7,10.7,59.4,15.3,102.3,13.8
	c5.5-0.2,8.1,6.8,3.8,10.2l-60.4,48.2c-2.7,2.2-6.3,3-9.7,2.4c0,0,0,0-0.1,0c-58.2-9.4-82.8-38.3-94-110.3c0-0.1,0-0.2,0-0.3
	c-0.5-5.5,6.8-7.8,9.8-3.2C711,166.2,727,179.1,748,187.9z M555.4,168.8c24,9.4,53.6,10.2,90,2.3c3-0.6,5.4,2.4,4.1,5.1l-19.6,41
	c-1.8,3.7-4.9,6.6-8.7,8.1l-0.1,0c-53.2,21-89.7-10.9-102.9-25.7l-0.1-0.1c-3.8-4.2-5.9-9.7-5.9-15.3l0-39.2c0-3.3,4.1-4.9,6.3-2.4
	C526.9,152.2,538.4,162.1,555.4,168.8z M407.5,190.7c10.3,0,20.5-1.4,30.4-4.2c19.8-5.7,37.3-16.6,51.7-31.8
	c2.2-2.4,6.3-0.8,6.3,2.5l0,20.9c0,8.9-2,17.7-5.8,25.8l0,0.1c-10.2,21.8-23.6,35.6-40,39.9c-42.9,11.3-73-34.5-83.5-53.7
	c-1.6-2.9,1.2-6.1,4.3-5.2C383.1,188.7,395.4,190.7,407.5,190.7z M227.7,197.5c29.2-10.6,55.8-31.9,83-66.5c1.7-2.2,5.2-1.8,6.4,0.7
	l0,0c2.6,5.6,2.4,12-0.2,17.5c0,0,0,0.1,0,0.1c-36.7,78.2-99.4,92.7-117.7,95.3c0,0,0,0,0,0c-1.7,0.2-3.5-0.2-4.9-1.2l-38.1-30.1
	c-3.5-2.8-1.3-8.4,3.2-8.1C181.5,207,204.6,206,227.7,197.5z M203,331.5c5.5-15.2,7.7-29.4,8.5-41.1c0.2-3.6,4.4-5.5,7.2-3.2
	l30.7,24.3c4.2,3.3,7,8,8,13.2l0,0.1c0.6,2.9,1.5,6.2,2.6,9.9c3.3,11.5,7.9,27.3,3.9,43c-4.6,18.5-21,33.6-48.5,44.7l-0.1,0
	c-6,2.4-12.5,3-18.8,1.5l-49.8-11.4c-3.8-0.9-4.7-5.8-1.5-8C173,385.1,192.4,360.6,203,331.5z M194.7,504.8
	c-2.6-18.8-11.6-37.6-26.7-55.6c-2.3-2.8-4.8-5.5-7.4-8.3c-3-3.2,0-8.4,4.2-7.4l6.5,1.5c15,3.4,29.2,9.7,42.4,17.5
	c0,0,0.1,0,0.1,0.1c26.1,15.2,34.3,32.5,36.6,44.4c3.3,17.3-3,36.2-18.7,56.2l0,0c-1,1.3-2.4,2.2-4,2.5l-36.9,8.4
	c-3.6,0.8-6.6-2.8-5-6.2C194.1,540,197.1,522.2,194.7,504.8z M131.6,610.3c-2.9-6.1,2.3-13,8.9-11.9c3.4,0.6,6.7,1.5,9.8,2.9
	c0,0,0.1,0,0.1,0c32.4,13.6,51.3,28.6,57.8,45.7c8.8,23.3-4.3,53.6-22.4,90.7l0,0.1c-4.6,9.6-11.3,18-19.6,24.7l-14.7,11.8
	c-5.4,4.3-13.2-1-11.1-7.6c8-25.2,13-48.6,12.3-70.6C151.3,657.5,139.2,626.2,131.6,610.3z M314.4,869.8c-2.5,5.1-9.2,6.2-13.3,2.2
	c-23.9-23.4-51.1-40.8-81.2-51.9c-22.4-8.2-45.6-12.8-69.4-13.6c-4.4-0.1-6.2-5.7-2.8-8.4l37.3-29.8c4.1-3.3,9.6-4.4,14.8-3.2
	c0,0,0.1,0,0.1,0c73.6,16.1,104.4,62.1,115.4,85.1c2.4,5.1,2.6,10.9,0.5,16.1L314.4,869.8z M408.8,829.7c-3.7-0.3-7.3-0.4-10.8-0.4
	c-14,0-26.5,2.3-36.8,5c-3.6,1-6.7-2.7-5.1-6.1l16.6-34c2.2-4.5,6-8.1,10.8-10l0.1,0c8.3-3.3,25.1-8.7,44.8-7.9
	c23.8,0.9,44.4,10.5,61.3,28.6l0.1,0.1c3.9,4.2,6.1,9.7,6.1,15.4l0,41.8c0,3.7-4.4,5.7-7.2,3.3C464.1,844,437.3,832.1,408.8,829.7z
	 M564.9,816.4c-16.5,8-31.6,20.4-46,38.3c-2.2,2.8-6.7,1.2-6.7-2.4l0-14.2c0-13.6,2.1-27.1,6.1-40l0-0.1c9-28.8,24.1-40.7,35.2-45.6
	c16.1-7.1,36-5.2,58.9,5.7l0,0c2.7,1.3,4.8,3.4,6.1,6l18.1,37.8c1.3,2.7-0.9,5.8-3.9,5.4C607.2,803.9,584.8,806.9,564.9,816.4z
	 M851.3,805c-56,1.8-116.5,13-150.8,59.1c-3.6,4.8-10.9,4.1-13.5-1.3l-8-16.7c-2.7-5.7-3.2-12.2-1.7-18.3c0,0,0-0.1,0-0.1
	c5.4-22.4,15.2-49.6,43.2-60.6c21.3-8.3,49.6-7.2,84.4-4.9c0,0,0.1,0,0.1,0c8.2,0.5,16.1,3.2,22.5,8.3l27.8,22
	C860.5,796.6,857.8,804.8,851.3,805z M790.5,716.6L754,687.8c-2.7-2.2-4.6-5.3-5.1-8.7l0,0c-9-57.8,31.5-86.2,49.3-95.7l0.1,0
	c4.4-2.4,9.6-3.1,14.5-1.9l50.2,11.5c2.9,0.7,3.6,4.5,1.1,6.2c-27.5,17.9-66,51.8-68.1,115.1C795.9,716.9,792.6,718.4,790.5,716.6z"
	/>
</svg>
